SplineFontDB: 3.0
FontName: Copse
FullName: Copse
FamilyName: Copse
Weight: Book
Copyright: "Copyright (c) 2010, Daniel Rhatigan\n(sparky@ultrasparky.org) with Reserved Font Name Copse"
Version: 1.000
ItalicAngle: 0
UnderlinePosition: -205
UnderlineWidth: 102
Ascent: 1638
Descent: 410
LayerCount: 2
Layer: 0 1 "Back"  1
Layer: 1 1 "Fore"  0
NeedsXUIDChange: 1
XUID: [1021 298 1767659720 9841665]
FSType: 0
OS2Version: 3
OS2_WeightWidthSlopeOnly: 0
OS2_UseTypoMetrics: 1
CreationTime: 1291723200
ModificationTime: 1294265355
PfmFamily: 17
TTFWeight: 400
TTFWidth: 5
LineGap: 57
VLineGap: 0
Panose: 2 0 5 3 8 0 0 2 0 4
OS2TypoAscent: -55
OS2TypoAOffset: 1
OS2TypoDescent: -29
OS2TypoDOffset: 1
OS2TypoLinegap: 113
OS2WinAscent: 0
OS2WinAOffset: 1
OS2WinDescent: 0
OS2WinDOffset: 1
HheadAscent: 0
HheadAOffset: 1
HheadDescent: 0
HheadDOffset: 1
OS2SubXSize: 1475
OS2SubYSize: 1229
OS2SubXOff: 0
OS2SubYOff: 0
OS2SupXSize: 1475
OS2SupYSize: 1229
OS2SupXOff: 0
OS2SupYOff: 731
OS2StrikeYSize: 102
OS2StrikeYPos: 512
OS2Vendor: '    '
OS2CodePages: 00000001.00000000
OS2UnicodeRanges: 80000003.00000000.00000000.00000000
Lookup: 258 0 0 "'kern' Horizontal Kerning in Latin lookup 0"  {"'kern' Horizontal Kerning in Latin lookup 0 per glyph data 0"  "'kern' Horizontal Kerning in Latin lookup 0 per glyph data 1"  "'kern' Horizontal Kerning in Latin lookup 0 kerning class 2"  } ['kern' ('latn' <'dflt' > ) ]
DEI: 91125
KernClass2: 24+ 21 "'kern' Horizontal Kerning in Latin lookup 0 kerning class 2" 
 50 A Agrave Aacute Acircumflex Atilde Adieresis Aring
 10 C Ccedilla
 5 D Eth
 43 E AE Egrave Eacute Ecircumflex Edieresis OE
 41 H I M Igrave Iacute Icircumflex Idieresis
 8 N Ntilde
 53 O Q Ograve Oacute Ocircumflex Otilde Odieresis Oslash
 37 U Ugrave Uacute Ucircumflex Udieresis
 8 Y Yacute
 50 a agrave aacute acircumflex atilde adieresis aring
 10 c ccedilla
 43 e ae egrave eacute ecircumflex edieresis oe
 27 guillemotleft guilsinglleft
 29 guillemotright guilsinglright

StartChar: .notdef
Encoding: 65536 -1 0
Width: 1333
Flags: W
HStem: 0 115<186 1147> 1294 115<186 1147>
VStem: 72 114<115 1294> 1147 115<115 1294>
LayerCount: 2
Fore
SplineSet
72 1409 m 1,0,-1
 1262 1409 l 1,1,-1
 1262 0 l 1,2,-1
 72 0 l 1,3,-1
 72 1409 l 1,0,-1
1147 115 m 1,4,-1
 1147 1294 l 1,5,-1
 186 1294 l 1,6,-1
 186 115 l 1,7,-1
 1147 115 l 1,4,-1
EndSplineSet
EndChar

StartChar: exclam
Encoding: 33 33 4
Width: 596
Flags: W
HStem: -20 279<197.617 399.671> 1505 20G<231.75 365.25>
VStem: 163 275<17.9189 220.462 1220.64 1517.73> 213 169<396.683 735.923>
LayerCount: 2
Fore
SplineSet
173 64 m 0,0,1
 163 90 163 90 163 119.5 c 128,-1,2
 163 149 163 149 173 174.5 c 0,3,4
 182 200 182 200 200 218 c 0,5,6
 238 258 238 258 296 259 c 256,7,8
 354 258 354 258 396 218 c 0,9,10
 438 179 438 179 438 134 c 128,-1,11
 438 89 438 89 427 63.5 c 128,-1,12
 416 38 416 38 396 20 c 0,13,14
 354 -19 354 -19 296 -20 c 256,15,16
 206 -20 206 -20 173 64 c 0,0,1
299 391 m 0,17,18
 213 391 213 391 213 435 c 1,19,-1
 165 1494 l 1,20,21
 165 1525 165 1525 298.5 1525 c 128,-1,22
 432 1525 432 1525 432 1492 c 1,23,-1
 382 432 l 1,24,25
 382 405 382 405 327 394 c 0,26,27
 312 391 312 391 299 391 c 0,17,18
EndSplineSet
EndChar

StartChar: quotedbl
Encoding: 34 34 5
Width: 760
Flags: W
HStem: 1110 473<119.035 264.891 494.2 641.625>
VStem: 67 233<1425.38 1574.91> 459 233<1425.38 1573.62>
LayerCount: 2
Fore
SplineSet
459 1538 m 1,0,1
 460 1570 460 1570 536 1580 c 0,2,3
 554 1582 554 1582 568.5 1582.5 c 128,-1,4
 583 1583 583 1583 604 1582 c 0,5,6
 624 1580 624 1580 644 1576 c 0,7,8
 692 1565 692 1565 692 1534 c 1,9,-1
 640 1140 l 2,10,11
 636 1110 636 1110 563 1110 c 256,12,13
 497 1110 497 1110 494 1140 c 2,14,-1
 459 1538 l 1,0,1
67 1534 m 1,15,16
 67 1583 67 1583 191 1583 c 0,17,18
 253 1583 253 1583 276.5 1566.5 c 128,-1,19
 300 1550 300 1550 300 1538 c 1,20,-1
 265 1140 l 2,21,22
 262 1110 262 1110 196 1110 c 256,23,24
 154 1110 154 1110 137 1121 c 128,-1,25
 120 1132 120 1132 119 1140 c 2,26,-1
 67 1534 l 1,15,16
EndSplineSet
EndChar

StartChar: numbersign
Encoding: 35 35 6
Width: 1190
Flags: W
HStem: 442 154<64.4148 263 430 694 861 1042.85> 906 154<159.468 331 497 762 928 1124.69> 1505 20G<483.25 493.75 914.25 924.75>
LayerCount: 2
Fore
SplineSet
353 1060 m 1,0,-1
 419 1505 l 2,1,2
 422 1523 422 1523 450 1524 c 128,-1,3
 478 1525 478 1525 488.5 1525 c 128,-1,4
 499 1525 499 1525 511.5 1524.5 c 128,-1,5
 524 1524 524 1524 535 1522 c 0,6,7
 561 1518 561 1518 561 1505 c 1,8,-1
 497 1060 l 1,9,-1
 784 1060 l 1,10,-1
 850 1505 l 2,11,12
 853 1523 853 1523 881 1524 c 128,-1,13
 909 1525 909 1525 919.5 1525 c 128,-1,14
 930 1525 930 1525 942.5 1524.5 c 128,-1,15
 955 1524 955 1524 966 1522 c 0,16,17
 992 1518 992 1518 992 1505 c 1,18,-1
 928 1060 l 1,19,-1
 1090 1060 l 2,20,21
 1116 1060 1116 1060 1126 1009 c 0,22,23
 1128 996 1128 996 1128.5 985 c 128,-1,24
 1129 974 1129 974 1126.5 960 c 128,-1,25
 1124 946 1124 946 1120 934 c 0,26,27
 1110 906 1110 906 1090 906 c 2,28,-1
 906 906 l 1,29,-1
 861 596 l 1,30,-1
 1009 596 l 2,31,32
 1036 596 1036 596 1046 546 c 0,33,34
 1048 533 1048 533 1048 521.5 c 128,-1,35
 1048 510 1048 510 1045.5 496 c 0,36,37
 1042 482 1042 482 1038 470 c 0,38,39
 1028 442 1028 442 1009 442 c 2,40,-1
 839 442 l 1,41,-1
 776 0 l 2,42,43
 774 -17 774 -17 742.5 -18.5 c 128,-1,44
 711 -20 711 -20 701 -20 c 128,-1,45
 691 -20 691 -20 679 -19.5 c 0,46,47
 668 -20 668 -20 656 -18 c 0,48,49
 630 -15 630 -15 629 0 c 1,50,-1
 694 442 l 1,51,-1
 408 442 l 1,52,-1
 345 0 l 2,53,54
 343 -17 343 -17 311.5 -18.5 c 128,-1,55
 280 -20 280 -20 270 -20 c 128,-1,56
 260 -20 260 -20 248 -19.5 c 0,57,58
 236 -20 236 -20 224 -18 c 0,59,60
 198 -15 198 -15 198 0 c 1,61,-1
 263 442 l 1,62,-1
 101 442 l 2,63,64
 72 442 72 442 62 494 c 0,65,66
 60 507 60 507 60 518.5 c 128,-1,67
 60 530 60 530 62.5 543.5 c 0,68,69
 65 556 65 556 70 568 c 0,70,71
 82 596 82 596 101 596 c 2,72,-1
 285 596 l 1,73,-1
 331 906 l 1,74,-1
 185 906 l 2,75,76
 156 906 156 906 146 958 c 0,77,78
 144 971 144 971 144 982 c 256,79,80
 144 1028 144 1028 159 1044 c 128,-1,81
 174 1060 174 1060 185 1060 c 2,82,-1
 353 1060 l 1,0,-1
430 596 m 1,83,-1
 716 596 l 1,84,-1
 762 906 l 1,85,-1
 475 906 l 1,86,-1
 430 596 l 1,83,-1
EndSplineSet
EndChar

StartChar: dollar
Encoding: 36 36 7
Width: 1130
Flags: W
HStem: 21 154<359.944 490 632 733.672> 101 355<144.312 302.656> 1043 360<805.843 965.25> 1327 154<391.803 490 632 763.675>
VStem: 65 307<223.219 409.558> 100 211<1021.37 1255.88> 490 142<-168.66 25.2407 184 619 919 1318 1477.28 1634.66> 737 307<1088.44 1289.19> 846 211<274.364 510.055>
LayerCount: 2
Fore
SplineSet
490 1608 m 2,0,1
 490 1636 490 1636 561 1636 c 128,-1,2
 632 1636 632 1636 632 1608 c 2,3,-1
 632 1481 l 1,4,5
 785 1472 785 1472 904 1403 c 0,6,7
 1044 1322 1044 1322 1044 1197 c 0,8,9
 1044 1133 1044 1133 1000 1087 c 0,10,11
 957 1043 957 1043 891 1043 c 256,12,13
 826 1043 826 1043 782 1087 c 0,14,15
 737 1132 737 1132 737 1182.5 c 128,-1,16
 737 1233 737 1233 766 1291 c 1,17,18
 711 1323 711 1323 632 1327 c 1,19,-1
 632 850 l 1,20,21
 836 756 836 756 908.5 699 c 128,-1,22
 981 642 981 642 1019 580 c 128,-1,23
 1057 518 1057 518 1057 431.5 c 128,-1,24
 1057 345 1057 345 1025 274 c 0,25,26
 992 204 992 204 936 152 c 0,27,28
 824 49 824 49 632 26 c 1,29,-1
 632 -142 l 2,30,31
 632 -170 632 -170 561 -170 c 128,-1,32
 490 -170 490 -170 490 -142 c 2,33,-1
 490 21 l 1,34,35
 327 32 327 32 206 101 c 0,36,37
 65 181 65 181 65 300 c 0,38,39
 65 366 65 366 110 411 c 128,-1,40
 155 456 155 456 219 456 c 256,41,42
 284 456 284 456 328 411 c 0,43,44
 372 365 372 365 372 300 c 0,45,46
 372 292 372 292 370 282 c 2,47,-1
 364 261 l 2,48,49
 361 250 361 250 357.5 240 c 128,-1,50
 354 230 354 230 352 223 c 1,51,52
 410 180 410 180 490 175 c 1,53,-1
 490 681 l 1,54,55
 305 761 305 761 236.5 822.5 c 128,-1,56
 168 884 168 884 134 949 c 128,-1,57
 100 1014 100 1014 100 1100.5 c 128,-1,58
 100 1187 100 1187 130.5 1251.5 c 128,-1,59
 161 1316 161 1316 214 1362 c 0,60,61
 317 1452 317 1452 490 1475 c 1,62,-1
 490 1608 l 2,0,1
830 321 m 0,63,64
 846 358 846 358 846 400 c 128,-1,65
 846 442 846 442 829.5 472.5 c 0,66,67
 813 502 813 502 784 528 c 0,68,69
 737 570 737 570 632 619 c 1,70,-1
 632 184 l 1,71,72
 785 213 785 213 830 321 c 0,63,64
490 1318 m 1,73,74
 311 1286 311 1286 311 1135 c 0,75,76
 311 1015 311 1015 490 919 c 1,77,-1
 490 1318 l 1,73,74
EndSplineSet
EndChar

StartChar: percent
Encoding: 37 37 8
Width: 1281
Flags: W
HStem: -20 112<827.043 1006.86> 494 108<819.592 1000.26> 883 109<279.636 460.36> 1394 111<273.092 451.981>
VStem: 81 157<1032.53 1357.88> 495 159<1029.12 1351.82> 627 158<132.536 455.065> 1042 158<126.351 451.833>
LayerCount: 2
Fore
SplineSet
912 92 m 256,0,1
 1042 92 1042 92 1042 281 c 0,2,3
 1042 429 1042 429 971 477 c 0,4,5
 946 494 946 494 912 494 c 256,6,7
 785 494 785 494 785 305 c 0,8,9
 785 158 785 158 854 109 c 0,10,11
 878 92 878 92 912 92 c 256,0,1
348 883 m 0,12,13
 280 883 280 883 230.5 908 c 0,14,15
 182 933 182 933 148 974 c 0,16,17
 82 1055 82 1055 81 1182 c 0,18,19
 81 1322 81 1322 166 1413 c 0,20,21
 252 1505 252 1505 386 1505 c 256,22,23
 515 1505 515 1505 588 1414 c 0,24,25
 654 1332 654 1332 654 1206 c 0,26,27
 654 1066 654 1066 569 975 c 0,28,29
 483 883 483 883 348 883 c 0,12,13
894 -20 m 0,30,31
 826 -20 826 -20 776.5 5 c 0,32,33
 728 30 728 30 694 71 c 0,34,35
 628 152 628 152 627 279 c 0,36,37
 627 419 627 419 712 510 c 0,38,39
 798 602 798 602 932 602 c 256,40,41
 1061 602 1061 602 1134 511 c 0,42,43
 1200 429 1200 429 1200 303 c 0,44,45
 1200 163 1200 163 1115 72 c 0,46,47
 1029 -20 1029 -20 894 -20 c 0,30,31
1059 1505 m 2,48,49
 1079 1537 1079 1537 1155 1537 c 0,50,51
 1217 1537 1217 1537 1217 1505 c 1,52,-1
 233 0 l 1,53,54
 211 -30 211 -30 130 -30 c 0,55,56
 67 -30 67 -30 67 0 c 1,57,-1
 1059 1505 l 2,48,49
365 992 m 256,58,59
 495 992 495 992 495 1181 c 0,60,61
 495 1329 495 1329 424 1377 c 0,62,63
 399 1394 399 1394 365 1394 c 256,64,65
 238 1394 238 1394 238 1205 c 0,66,67
 238 1058 238 1058 307 1009 c 0,68,69
 331 992 331 992 365 992 c 256,58,59
EndSplineSet
EndChar

StartChar: ampersand
Encoding: 38 38 9
Width: 1354
Flags: W
HStem: -20 154<399.166 717.347> 0 141<1084.24 1247.05> 666 141<878.042 1052 1220.3 1321.44> 1370.5 154.5<448.276 702.402>
VStem: 74 233<235.498 573.381> 197 202<1056.09 1321.57> 753 205<1010.49 1319.92> 874 449<666.017 807> 1052 175<511.625 665.996>
LayerCount: 2
Fore
SplineSet
1298 807 m 2,0,1
 1323 807 1323 807 1323 736.5 c 128,-1,2
 1323 666 1323 666 1288 666 c 2,3,-1
 1227 666 l 1,4,5
 1205 481 1205 481 1025 263 c 1,6,-1
 1046 230 l 2,7,8
 1077 181 1077 181 1122.5 161 c 128,-1,9
 1168 141 1168 141 1238 141 c 0,10,11
 1262 141 1262 141 1262 76 c 0,12,13
 1262 29 1262 29 1247.5 14.5 c 128,-1,14
 1233 0 1233 0 1223 0 c 2,15,-1
 1053 0 l 2,16,17
 977 0 977 0 885 103 c 1,18,19
 714 -20 714 -20 506 -20 c 0,20,21
 316 -20 316 -20 196 89 c 0,22,23
 74 200 74 200 74 376 c 0,24,25
 74 501 74 501 134 604 c 0,26,27
 186 693 186 693 330 837 c 1,28,-1
 286 909 l 1,29,30
 197 1060 197 1060 197 1200 c 0,31,32
 198 1336 198 1336 298 1427 c 0,33,34
 406 1525 406 1525 590 1525 c 0,35,36
 785 1524 785 1524 883 1414 c 0,37,38
 958 1329 958 1329 958 1205 c 0,39,40
 958 1085 958 1085 895 976 c 0,41,42
 836 874 836 874 680 714 c 1,43,-1
 935 376 l 1,44,45
 1052 545 1052 545 1052 650 c 0,46,47
 1052 666 1052 666 1039 666 c 2,48,-1
 915 666 l 2,49,50
 886 666 886 666 876 720 c 0,51,52
 874 734 874 734 874 748 c 0,53,54
 874 807 874 807 900 807 c 2,55,-1
 1298 807 l 2,0,1
424 712 m 1,56,57
 307 595 307 595 307 423 c 0,58,59
 308 286 308 286 370 208 c 0,60,61
 429 134 429 134 512 134 c 0,62,63
 673 134 673 134 793 225 c 1,64,-1
 424 712 l 1,56,57
588 840 m 1,65,66
 753 986 753 986 753 1187 c 0,67,68
 752 1312 752 1312 660 1356 c 0,69,70
 630 1370 630 1370 586.5 1370.5 c 128,-1,71
 543 1371 543 1371 507.5 1359 c 128,-1,72
 472 1347 472 1347 448 1326 c 0,73,74
 399 1283 399 1283 399 1228 c 128,-1,75
 399 1173 399 1173 414.5 1126 c 128,-1,76
 430 1079 430 1079 456 1031 c 0,77,78
 498 954 498 954 588 840 c 1,65,66
EndSplineSet
EndChar

StartChar: quotesingle
Encoding: 39 39 10
Width: 379
Flags: W
HStem: 1110 473<116.075 262.891>
VStem: 73 233<1405.63 1567.53>
LayerCount: 2
Fore
SplineSet
73 1534 m 1,0,1
 73 1583 73 1583 189 1583 c 0,2,3
 260 1583 260 1583 283 1568 c 128,-1,4
 306 1553 306 1553 306 1538 c 1,5,-1
 263 1140 l 2,6,7
 260 1110 260 1110 194 1110 c 0,8,9
 120 1110 120 1110 117 1140 c 2,10,-1
 73 1534 l 1,0,1
EndSplineSet
EndChar

StartChar: parenleft
Encoding: 40 40 11
Width: 636
Flags: W
VStem: 92 211.5<361.185 1089.49>
LayerCount: 2
Fore
SplineSet
513 -233 m 0,0,1
 500 -239 500 -239 480.5 -239 c 128,-1,2
 461 -239 461 -239 439 -227 c 1,3,4
 200 30 200 30 120 436 c 0,5,6
 92 576 92 576 92 727 c 256,7,8
 92 1014 92 1014 194 1276 c 0,9,10
 284 1506 284 1506 439 1675 c 1,11,12
 449 1684 449 1684 481.5 1684 c 128,-1,13
 514 1684 514 1684 537 1662.5 c 128,-1,14
 560 1641 560 1641 560 1614 c 1,15,16
 352 1258 352 1258 316 954 c 0,17,18
 304 848 304 848 303.5 729.5 c 128,-1,19
 303 611 303 611 315.5 503 c 0,20,21
 328 396 328 396 358 288 c 0,22,23
 417 78 417 78 560 -166 c 1,24,25
 560 -211 560 -211 513 -233 c 0,0,1
EndSplineSet
EndChar

StartChar: parenright
Encoding: 41 41 12
Width: 637
Flags: W
VStem: 332.5 211.5<352.867 1091.06>
LayerCount: 2
Fore
SplineSet
197 -227 m 1,0,1
 175 -239 175 -239 155.5 -239 c 128,-1,2
 136 -239 136 -239 123 -233 c 0,3,4
 110 -228 110 -228 100 -218 c 0,5,6
 76 -197 76 -197 76 -166 c 1,7,8
 284 187 284 187 320 503 c 0,9,10
 332 611 332 611 332.5 729.5 c 128,-1,11
 333 848 333 848 320.5 954.5 c 128,-1,12
 308 1061 308 1061 278 1166 c 0,13,14
 220 1370 220 1370 76 1614 c 1,15,16
 76 1641 76 1641 99 1662.5 c 128,-1,17
 122 1684 122 1684 146 1684 c 0,18,19
 187 1684 187 1684 197 1675 c 1,20,21
 438 1414 438 1414 516 1018 c 0,22,23
 544 880 544 880 544 727 c 256,24,25
 544 294 544 294 331 -50 c 0,26,27
 268 -152 268 -152 197 -227 c 1,0,1
EndSplineSet
EndChar

StartChar: asterisk
Encoding: 42 42 13
Width: 676
Flags: W
HStem: 1324 153<83.1309 129 544 590.214>
VStem: 66 544<1325.13 1408.28>
LayerCount: 2
Fore
SplineSet
124 1479 m 1,0,-1
 129 1478 l 1,1,-1
 276 1411 l 1,2,-1
 259 1569 l 1,3,4
 259 1590 259 1590 311 1598 c 0,5,6
 324 1600 324 1600 335.5 1600 c 128,-1,7
 347 1600 347 1600 362 1598.5 c 0,8,9
 378 1598 378 1598 390 1594 c 0,10,11
 420 1586 420 1586 419 1569 c 1,12,-1
 399 1409 l 1,13,-1
 544 1476 l 2,14,15
 546 1477 546 1477 554 1477 c 128,-1,16
 562 1477 562 1477 573 1462.5 c 128,-1,17
 584 1448 584 1448 592 1428 c 0,18,19
 610 1387 610 1387 610 1358.5 c 128,-1,20
 610 1330 610 1330 596 1324 c 1,21,-1
 435 1291 l 1,22,-1
 549 1175 l 1,23,24
 552 1170 552 1170 552 1160.5 c 128,-1,25
 552 1151 552 1151 539 1134.5 c 128,-1,26
 526 1118 526 1118 508 1104 c 0,27,28
 464 1070 464 1070 445.5 1070 c 128,-1,29
 427 1070 427 1070 423 1077 c 2,30,-1
 334 1222 l 1,31,-1
 257 1080 l 1,32,33
 251 1073 251 1073 239.5 1073 c 128,-1,34
 228 1073 228 1073 208.5 1081.5 c 128,-1,35
 189 1090 189 1090 170 1104 c 0,36,37
 124 1137 124 1137 124 1163 c 0,38,39
 124 1168 124 1168 127 1173 c 1,40,-1
 236 1295 l 1,41,-1
 80 1325 l 2,42,43
 66 1329 66 1329 66 1349 c 128,-1,44
 66 1369 66 1369 70 1389 c 128,-1,45
 74 1409 74 1409 82 1429 c 0,46,47
 100 1479 100 1479 124 1479 c 1,0,-1
EndSplineSet
EndChar

StartChar: plus
Encoding: 43 43 14
Width: 1042
Flags: W
HStem: 575 154<63.6724 448 592 966.048>
VStem: 448 144<142.005 575 729 1118>
LayerCount: 2
Fore
SplineSet
592 162 m 2,0,1
 592 141 592 141 520 141 c 128,-1,2
 448 141 448 141 448 162 c 2,3,-1
 448 575 l 1,4,-1
 100 575 l 2,5,6
 72 575 72 575 62 627 c 0,7,8
 60 640 60 640 59.5 651.5 c 128,-1,9
 59 663 59 663 61.5 676.5 c 128,-1,10
 64 690 64 690 69 702 c 0,11,12
 81 730 81 730 100 729 c 2,13,-1
 448 729 l 1,14,-1
 448 1098 l 2,15,16
 448 1119 448 1119 520 1119 c 128,-1,17
 592 1119 592 1119 592 1098 c 2,18,-1
 592 729 l 1,19,-1
 942 729 l 2,20,21
 968 729 968 729 978 679 c 0,22,23
 980 666 980 666 981 655 c 256,24,25
 981 610 981 610 966.5 592.5 c 128,-1,26
 952 575 952 575 942 575 c 2,27,-1
 592 575 l 1,28,-1
 592 162 l 2,0,1
EndSplineSet
EndChar

StartChar: comma
Encoding: 44 44 15
Width: 505
Flags: W
HStem: -270 522
LayerCount: 2
Fore
SplineSet
180 -16 m 1,0,1
 106 23 106 23 106 113 c 0,2,3
 106 172 106 172 148 212 c 128,-1,4
 190 252 190 252 235 252 c 128,-1,5
 280 252 280 252 307 241 c 128,-1,6
 334 230 334 230 354 212 c 0,7,8
 398 172 398 172 399 113 c 0,9,10
 399 -63 399 -63 134 -270 c 1,11,12
 105 -270 105 -270 89.5 -254 c 128,-1,13
 74 -238 74 -238 74 -211 c 1,14,15
 180 -92 180 -92 180 -16 c 1,0,1
EndSplineSet
EndChar

StartChar: hyphen
Encoding: 45 45 16
Width: 750
Flags: W
HStem: 513 176<118.418 623.048>
VStem: 112 526<533.117 688.96>
LayerCount: 2
Fore
SplineSet
599 689 m 2,0,1
 626 690 626 690 636 630 c 0,2,3
 638 616 638 616 638 604 c 256,4,5
 638 552 638 552 623.5 532.5 c 128,-1,6
 609 513 609 513 599 513 c 2,7,-1
 153 513 l 2,8,9
 124 512 124 512 114 574 c 0,10,11
 112 588 112 588 112 600 c 128,-1,12
 112 612 112 612 114.5 627 c 128,-1,13
 117 642 117 642 122 656 c 0,14,15
 134 689 134 689 153 689 c 2,16,-1
 599 689 l 2,0,1
EndSplineSet
EndChar

StartChar: period
Encoding: 46 46 17
Width: 487
Flags: W
HStem: -20 274<140.474 345.571>
VStem: 106 275<14.7937 218.436>
LayerCount: 2
Fore
SplineSet
106 115 m 256,0,1
 106 210 106 210 190 244 c 0,2,3
 216 254 216 254 245 254 c 128,-1,4
 274 254 274 254 299 243.5 c 0,5,6
 324 232 324 232 342 214 c 0,7,8
 381 174 381 174 381 115 c 256,9,10
 381 23 381 23 299 -10 c 0,11,12
 274 -20 274 -20 244.5 -20 c 128,-1,13
 215 -20 215 -20 189.5 -10 c 128,-1,14
 164 0 164 0 146 18 c 0,15,16
 106 56 106 56 106 115 c 256,0,1
EndSplineSet
EndChar

StartChar: slash
Encoding: 47 47 18
Width: 913
Flags: W
LayerCount: 2
Fore
SplineSet
707 1606 m 1,0,1
 756 1638 756 1638 781.5 1638 c 128,-1,2
 807 1638 807 1638 820 1637 c 0,3,4
 832 1636 832 1636 844 1632 c 0,5,6
 872 1624 872 1624 872 1606 c 1,7,-1
 206 -141 l 1,8,9
 166 -170 166 -170 109 -170 c 0,10,11
 63 -170 63 -170 48.5 -160 c 128,-1,12
 34 -150 34 -150 34 -141 c 1,13,-1
 707 1606 l 1,0,1
EndSplineSet
EndChar

StartChar: zero
Encoding: 48 48 19
Width: 1200
Flags: W
HStem: -20 165<484.748 719.095> 1360 165<472.587 730.347>
VStem: 94 233<386.195 1110.37> 873 233<415.518 1144.17>
LayerCount: 2
Fore
SplineSet
401 1479.5 m 128,-1,1
 500 1525 500 1525 628 1525 c 128,-1,2
 756 1525 756 1525 846.5 1469 c 0,3,4
 937 1414 937 1414 995 1314 c 0,5,6
 1106 1124 1106 1124 1106 778 c 0,7,8
 1106 411 1106 411 964 197 c 0,9,10
 820 -20 820 -20 574 -20 c 0,11,12
 334 -20 334 -20 204 226 c 0,13,14
 94 432 94 432 94 678.5 c 128,-1,15
 94 925 94 925 129.5 1080.5 c 128,-1,16
 165 1236 165 1236 233.5 1335 c 128,-1,0
 302 1434 302 1434 401 1479.5 c 128,-1,1
602 1360 m 256,17,18
 384 1360 384 1360 340 996 c 0,19,20
 326 884 326 884 327 753 c 256,21,22
 327 326 327 326 480 191 c 0,23,24
 532 145 532 145 601.5 145 c 128,-1,25
 671 145 671 145 722 191 c 0,26,27
 772 237 772 237 806 318 c 0,28,29
 872 479 872 479 873 753 c 256,30,31
 873 1192 873 1192 733 1314 c 0,32,33
 681 1360 681 1360 602 1360 c 256,17,18
EndSplineSet
EndChar

StartChar: one
Encoding: 49 49 20
Width: 1200
Flags: W
HStem: 0 141<322.25 591.544 807 1075.44> 1505 20G<683.86 761.5>
VStem: 596 211<166.25 1211.99>
LayerCount: 2
Fore
SplineSet
1052 141 m 2,0,1
 1077 141 1077 141 1077 70.5 c 128,-1,2
 1077 0 1077 0 1041 0 c 2,3,-1
 318 0 l 2,4,5
 295 0 295 0 295 55 c 0,6,7
 294 104 294 104 322 133 c 0,8,9
 330 141 330 141 338 141 c 2,10,-1
 487 141 l 2,11,12
 578 141 578 141 592 166 c 0,13,14
 596 174 596 174 596 184 c 2,15,-1
 596 1151 l 2,16,17
 596 1212 596 1212 575 1212 c 0,18,19
 568 1212 568 1212 548 1204 c 2,20,-1
 502 1186 l 2,21,22
 476 1176 476 1176 447 1163 c 128,-1,23
 418 1150 418 1150 391 1140 c 0,24,25
 325 1114 325 1114 311 1114 c 128,-1,26
 297 1114 297 1114 285 1123 c 0,27,28
 274 1132 274 1132 264 1146 c 0,29,30
 242 1177 242 1177 242 1203.5 c 128,-1,31
 242 1230 242 1230 258 1240 c 2,32,-1
 716 1525 l 1,33,34
 807 1525 807 1525 807 1505 c 2,35,-1
 807 141 l 1,36,-1
 1052 141 l 2,0,1
EndSplineSet
EndChar

StartChar: two
Encoding: 50 50 21
Width: 1200
Flags: W
HStem: 0 211<338 891> 1009 21G<264.5 330.5> 1371 154<405.95 729.313>
VStem: 143 307<1054.41 1278.5> 806 233<994.333 1298.42> 931 134<298.899 363.791>
LayerCount: 2
Fore
SplineSet
297 1009 m 256,0,1
 232 1009 232 1009 188 1053 c 0,2,3
 143 1098 143 1098 143 1174 c 128,-1,4
 143 1250 143 1250 183.5 1317 c 128,-1,5
 224 1384 224 1384 288 1430 c 0,6,7
 419 1524 419 1524 595 1525 c 0,8,9
 794 1525 794 1525 916 1436 c 0,10,11
 1040 1345 1040 1345 1039 1193 c 0,12,13
 1039 962 1039 962 853 783 c 0,14,15
 800 731 800 731 740 682 c 2,16,-1
 620 584 l 2,17,18
 397 402 397 402 338 211 c 1,19,-1
 891 211 l 1,20,-1
 931 348 l 1,21,22
 958 370 958 370 986 370 c 0,23,24
 1041 370 1041 370 1065 319 c 1,25,-1
 1019 0 l 1,26,-1
 173 0 l 1,27,-1
 173 75 l 2,28,29
 173 354 173 354 373 574 c 0,30,31
 430 636 430 636 490 692 c 2,32,-1
 606 802 l 2,33,34
 731 920 731 920 779 1028 c 0,35,36
 806 1089 806 1089 806 1178 c 128,-1,37
 806 1267 806 1267 741 1319 c 128,-1,38
 676 1371 676 1371 561 1371 c 0,39,40
 436 1371 436 1371 376 1300 c 1,41,42
 408 1284 408 1284 429 1246 c 128,-1,43
 450 1208 450 1208 450 1169 c 128,-1,44
 450 1130 450 1130 438 1102 c 128,-1,45
 426 1074 426 1074 406 1053 c 0,46,47
 364 1009 364 1009 297 1009 c 256,0,1
EndSplineSet
EndChar

StartChar: three
Encoding: 51 51 22
Width: 1200
Flags: W
HStem: -20 154<407.809 716.028> 731 93<545 650.656> 1009 21G<266.5 332> 1371 154<407.95 715.604>
VStem: 145 307<236.791 449.909 1054.41 1278.5> 808 211<981.288 1279.49> 826 233<249.25 580.16>
LayerCount: 2
Fore
SplineSet
378 205 m 1,0,1
 438 134 438 134 563 134 c 0,2,3
 680 134 680 134 752 210 c 0,4,5
 826 287 826 287 826 416 c 0,6,7
 826 532 826 532 755 620 c 0,8,9
 678 716 678 716 545 731 c 1,10,-1
 545 824 l 1,11,12
 718 873 718 873 782 1013 c 0,13,14
 808 1068 808 1068 808 1130 c 128,-1,15
 808 1192 808 1192 791 1233 c 128,-1,16
 774 1274 774 1274 742 1305 c 0,17,18
 675 1371 675 1371 563 1371 c 0,19,20
 438 1371 438 1371 378 1300 c 1,21,22
 410 1284 410 1284 431 1246 c 128,-1,23
 452 1208 452 1208 452 1169 c 128,-1,24
 452 1130 452 1130 440 1102 c 128,-1,25
 428 1074 428 1074 408 1053 c 0,26,27
 365 1009 365 1009 299 1009 c 256,28,29
 234 1009 234 1009 190 1053 c 0,30,31
 145 1098 145 1098 145 1174 c 128,-1,32
 145 1250 145 1250 185.5 1317 c 128,-1,33
 226 1384 226 1384 290 1430 c 0,34,35
 421 1524 421 1524 597 1525 c 0,36,37
 791 1525 791 1525 907 1420 c 0,38,39
 1019 1318 1019 1318 1019 1161 c 0,40,41
 1020 973 1020 973 862 856 c 0,42,43
 818 823 818 823 771 802 c 1,44,45
 896 739 896 739 951 679 c 0,46,47
 1059 559 1059 559 1059 406 c 0,48,49
 1060 239 1060 239 928 113 c 0,50,51
 789 -20 789 -20 582 -20 c 0,52,53
 418 -20 418 -20 288 74 c 0,54,55
 144 179 144 179 145 342 c 0,56,57
 145 407 145 407 190 452 c 0,58,59
 234 496 234 496 299 496 c 0,60,61
 359 496 359 496 404 454 c 0,62,63
 450 411 450 411 450 341 c 128,-1,64
 450 271 450 271 378 205 c 1,0,1
EndSplineSet
EndChar

StartChar: four
Encoding: 52 52 23
Width: 1200
Flags: W
HStem: 0 141<422.25 691.544 907 1077.44> 416 154<314 696 907 1097.47> 1000 20G<801.5 907> 1505 20G<546.173 642.5>
VStem: 696 211<166.25 416 570 962.625>
LayerCount: 2
Fore
SplineSet
1090 570 m 2,0,1
 1115 570 1115 570 1115 508 c 0,2,3
 1115 456 1115 456 1098 436 c 128,-1,4
 1081 416 1081 416 1070 416 c 2,5,-1
 907 416 l 1,6,-1
 907 141 l 1,7,-1
 1054 141 l 2,8,9
 1079 141 1079 141 1079 70.5 c 128,-1,10
 1079 0 1079 0 1043 0 c 2,11,-1
 418 0 l 2,12,13
 395 0 395 0 395 55 c 0,14,15
 394 104 394 104 422 133 c 0,16,17
 430 141 430 141 438 141 c 2,18,-1
 587 141 l 2,19,20
 678 141 678 141 692 166 c 0,21,22
 696 174 696 174 696 184 c 2,23,-1
 696 416 l 1,24,-1
 143 416 l 1,25,26
 102 440 102 440 96 485 c 1,27,-1
 555 1525 l 1,28,29
 730 1525 730 1525 730 1393 c 1,30,-1
 314 570 l 1,31,-1
 696 570 l 1,32,-1
 696 918 l 2,33,34
 696 1020 696 1020 907 1020 c 1,35,-1
 907 570 l 1,36,-1
 1090 570 l 2,0,1
EndSplineSet
EndChar

StartChar: five
Encoding: 53 53 24
Width: 1200
Flags: W
HStem: -20 154<407.563 721.292> 760 154<399 677.342> 1294 211<399 979.938>
VStem: 145 307<236.765 449.558> 245 154<914 1294> 840 233<255.19 604.896>
LayerCount: 2
Fore
SplineSet
378 205 m 1,0,1
 438 134 438 134 575 134 c 0,2,3
 686 134 686 134 760 210 c 0,4,5
 840 292 840 292 840 428 c 0,6,7
 840 581 840 581 743 672 c 0,8,9
 649 760 649 760 489 760 c 2,10,-1
 245 760 l 1,11,-1
 245 1505 l 1,12,-1
 1003 1505 l 1,13,14
 1003 1395 1003 1395 991 1362 c 0,15,16
 966 1294 966 1294 893 1294 c 2,17,-1
 399 1294 l 1,18,-1
 399 914 l 1,19,-1
 553 914 l 2,20,21
 801 914 801 914 944 768 c 0,22,23
 1073 636 1073 636 1073 439 c 0,24,25
 1073 230 1073 230 934 104 c 0,26,27
 797 -19 797 -19 579 -20 c 0,28,29
 417 -20 417 -20 288 74 c 0,30,31
 145 178 145 178 145 340 c 0,32,33
 145 406 145 406 190 451 c 128,-1,34
 235 496 235 496 299 496 c 256,35,36
 364 496 364 496 408 451 c 0,37,38
 452 405 452 405 452 339 c 128,-1,39
 452 273 452 273 378 205 c 1,0,1
EndSplineSet
EndChar

StartChar: six
Encoding: 54 54 25
Width: 1200
Flags: W
HStem: -20 154<492.214 756.394> 765 154<464.222 758.981> 1009 21G<886 950> 1371 154<533.561 810.022>
VStem: 109 233<357.119 651.988 809 1058.21> 765 307<1055.44 1278.95> 882 233<271.119 631.748>
LayerCount: 2
Fore
SplineSet
839 1300 m 1,0,1
 779 1371 779 1371 662 1371 c 0,2,3
 535 1372 535 1372 443 1226 c 0,4,5
 342 1066 342 1066 342 809 c 1,6,7
 411 881 411 881 546 909 c 0,8,9
 595 919 595 919 675.5 919 c 128,-1,10
 756 919 756 919 841 887 c 0,11,12
 926 856 926 856 987 794 c 0,13,14
 1115 665 1115 665 1115 443 c 0,15,16
 1115 237 1115 237 959 104 c 0,17,18
 813 -20 813 -20 628 -20 c 0,19,20
 109 -20 109 -20 109 710 c 0,21,22
 109 1114 109 1114 291 1334 c 0,23,24
 449 1526 449 1526 660 1525 c 0,25,26
 959 1524 959 1524 1044 1320 c 0,27,28
 1072 1252 1072 1252 1072 1192 c 128,-1,29
 1072 1132 1072 1132 1060 1103.5 c 128,-1,30
 1048 1075 1048 1075 1027 1054 c 0,31,32
 982 1009 982 1009 918 1009 c 256,33,34
 854 1009 854 1009 810 1054 c 0,35,36
 766 1100 766 1100 765 1165 c 0,37,38
 765 1262 765 1262 839 1300 c 1,0,1
624 765 m 0,39,40
 566 765 566 765 520 747.5 c 128,-1,41
 474 730 474 730 438 702 c 0,42,43
 370 649 370 649 342 577 c 1,44,45
 342 409 342 409 412 278 c 0,46,47
 490 134 490 134 614 134 c 0,48,49
 730 134 730 134 805 222 c 0,50,51
 882 313 882 313 882 459 c 0,52,53
 882 582 882 582 812 670 c 0,54,55
 736 764 736 764 624 765 c 0,39,40
EndSplineSet
EndChar

StartChar: seven
Encoding: 55 55 26
Width: 1200
Flags: W
HStem: 1310 195<262 899>
VStem: 91 134<1172.17 1234.04> 375 233<-16.9482 288.46>
LayerCount: 2
Fore
SplineSet
608 0 m 1,0,1
 608 -20 608 -20 491.5 -20 c 128,-1,2
 375 -20 375 -20 375 0 c 1,3,4
 428 556 428 556 706 1014 c 0,5,6
 794 1158 794 1158 899 1310 c 1,7,-1
 262 1310 l 1,8,-1
 225 1186 l 2,9,10
 219 1167 219 1167 181 1167 c 0,11,12
 97 1167 97 1167 91 1215 c 1,13,-1
 129 1505 l 1,14,-1
 1101 1505 l 2,15,16
 1136 1505 1136 1505 1136 1440 c 1,17,-1
 988 1182 l 1,18,19
 850 935 850 935 788.5 778.5 c 128,-1,20
 727 622 727 622 695 508 c 0,21,22
 631 282 631 282 608 0 c 1,0,1
EndSplineSet
EndChar

StartChar: eight
Encoding: 56 56 27
Width: 1200
Flags: W
HStem: -20 154<445.867 761.354> 1371 154<444.826 757.162>
VStem: 93 233<253.418 577.121> 164 202<1067.8 1298.33> 847 205<1007.55 1285.02> 880 233<250.012 510.856>
LayerCount: 2
Fore
SplineSet
93 392 m 0,0,1
 93 626 93 626 357 836 c 1,2,3
 270 908 270 908 235 964 c 0,4,5
 164 1076 164 1076 164 1200 c 0,6,7
 164 1332 164 1332 288 1427 c 0,8,9
 415 1525 415 1525 604 1525 c 0,10,11
 809 1525 809 1525 937 1424 c 0,12,13
 1052 1333 1052 1333 1052 1205 c 0,14,15
 1052 1016 1052 1016 912 858 c 0,16,17
 874 814 874 814 836 778 c 1,18,19
 975 703 975 703 1023.5 646 c 128,-1,20
 1072 589 1072 589 1092.5 533 c 128,-1,21
 1113 477 1113 477 1113 391.5 c 128,-1,22
 1113 306 1113 306 1072.5 228 c 128,-1,23
 1032 150 1032 150 964 95 c 0,24,25
 823 -20 823 -20 625 -20 c 0,26,27
 366 -20 366 -20 226 96 c 0,28,29
 92 206 92 206 93 392 c 0,0,1
487 761 m 1,30,31
 326 589 326 589 326 413 c 0,32,33
 326 290 326 290 402 213 c 0,34,35
 480 134 480 134 610 134 c 0,36,37
 731 134 731 134 811 220 c 0,38,39
 880 294 880 294 880 365 c 128,-1,40
 880 436 880 436 851.5 486 c 128,-1,41
 823 536 823 536 771 582 c 0,42,43
 693 650 693 650 487 761 c 1,30,31
702 850 m 1,44,45
 847 1037 847 1037 847 1157 c 0,46,47
 848 1253 848 1253 774 1314 c 0,48,49
 706 1371 706 1371 604 1371 c 0,50,51
 493 1370 493 1370 427 1314 c 0,52,53
 366 1262 366 1262 366 1200.5 c 128,-1,54
 366 1139 366 1139 393 1094 c 128,-1,55
 420 1049 420 1049 466 1008 c 0,56,57
 537 944 537 944 702 850 c 1,44,45
EndSplineSet
EndChar

StartChar: nine
Encoding: 57 57 28
Width: 1200
Flags: W
HStem: -20 154<396.992 698.682> 586 154<444.476 742.242> 1371 154<450.606 720.158>
VStem: 92 233<871.235 1233.12> 135 307<228.953 449.558> 865 233<398.969 696 852.695 1147.88>
LayerCount: 2
Fore
SplineSet
368 205 m 1,0,1
 428 134 428 134 566 134 c 0,2,3
 695 134 695 134 775 268 c 0,4,5
 865 419 865 419 865 696 c 1,6,7
 801 624 801 624 661 596 c 0,8,9
 612 586 612 586 531.5 586 c 128,-1,10
 451 586 451 586 366 618 c 128,-1,11
 281 650 281 650 220 712 c 0,12,13
 92 841 92 841 92 1062 c 0,14,15
 92 1268 92 1268 248 1401 c 0,16,17
 394 1525 394 1525 579 1525 c 0,18,19
 1098 1525 1098 1525 1098 795 c 0,20,21
 1098 174 1098 174 780 26 c 0,22,23
 680 -20 680 -20 579 -20 c 128,-1,24
 478 -20 478 -20 403 3 c 128,-1,25
 328 26 328 26 268 72 c 0,26,27
 134 174 134 174 135 340 c 0,28,29
 135 406 135 406 180 451 c 128,-1,30
 225 496 225 496 289 496 c 256,31,32
 354 496 354 496 398 451 c 0,33,34
 442 405 442 405 442 340 c 0,35,36
 442 243 442 243 368 205 c 1,0,1
583 740 m 0,37,38
 641 740 641 740 687 757.5 c 0,39,40
 732 774 732 774 768 802 c 0,41,42
 838 856 838 856 865 928 c 1,43,44
 864 1125 864 1125 794 1246 c 0,45,46
 721 1371 721 1371 593 1371 c 0,47,48
 477 1370 477 1370 402 1282 c 0,49,50
 325 1191 325 1191 325 1046 c 0,51,52
 324 922 324 922 394 834 c 0,53,54
 468 740 468 740 583 740 c 0,37,38
EndSplineSet
EndChar

StartChar: colon
Encoding: 58 58 29
Width: 559
Flags: W
HStem: 35 266.5<176.277 382.84> 635 273.5<181.197 382.84>
VStem: 142 275<59.3965 266.842 675.739 874.604>
LayerCount: 2
Fore
SplineSet
142 772 m 256,0,1
 142 830 142 830 181 870 c 0,2,3
 218 908 218 908 263.5 908.5 c 128,-1,4
 309 909 309 909 334 899 c 0,5,6
 360 888 360 888 378 870 c 0,7,8
 418 830 418 830 417 772 c 256,9,10
 418 714 418 714 378 674 c 0,11,12
 340 636 340 636 294 635 c 0,13,14
 218 635 218 635 180 674.5 c 128,-1,15
 142 714 142 714 142 772 c 256,0,1
142 162 m 256,16,17
 142 222 142 222 181 262 c 0,18,19
 219 302 219 302 264 301.5 c 128,-1,20
 309 301 309 301 334 290.5 c 0,21,22
 360 280 360 280 378 262 c 0,23,24
 418 222 418 222 417 162 c 256,25,26
 418 104 418 104 378 64 c 0,27,28
 340 26 340 26 295 25.5 c 128,-1,29
 250 25 250 25 224.5 35 c 0,30,31
 199 46 199 46 181 64 c 0,32,33
 142 104 142 104 142 162 c 256,16,17
EndSplineSet
EndChar

StartChar: semicolon
Encoding: 59 59 30
Width: 573
Flags: W
HStem: 635 264<186.712 386.84>
VStem: 142 293<5.76782 211.992 683.461 860.3>
LayerCount: 2
Fore
SplineSet
185.5 673.5 m 128,-1,1
 147 712 147 712 147 772 c 256,2,3
 147 866 147 866 229 899 c 0,4,5
 254 909 254 909 283.5 909 c 128,-1,6
 313 909 313 909 338 899 c 0,7,8
 364 888 364 888 382 870 c 0,9,10
 422 830 422 830 421 772 c 256,11,12
 422 714 422 714 382 674 c 0,13,14
 344 636 344 636 298 635 c 0,15,0
 224 635 224 635 185.5 673.5 c 128,-1,1
216 -16 m 1,16,17
 142 23 142 23 142 113 c 0,18,19
 142 172 142 172 184 212 c 128,-1,20
 226 252 226 252 271 252 c 128,-1,21
 316 252 316 252 343 241 c 128,-1,22
 370 230 370 230 390 212 c 0,23,24
 434 172 434 172 435 113 c 0,25,26
 435 -63 435 -63 170 -270 c 1,27,28
 141 -270 141 -270 125.5 -254 c 128,-1,29
 110 -238 110 -238 110 -211 c 1,30,31
 216 -92 216 -92 216 -16 c 1,16,17
EndSplineSet
EndChar

StartChar: less
Encoding: 60 60 31
Width: 1075
Flags: W
LayerCount: 2
Fore
SplineSet
331 642 m 1,0,-1
 967 196 l 1,1,2
 967 120 967 120 905 96 c 1,3,-1
 106 558 l 2,4,5
 56 588 56 588 56 641 c 256,6,7
 56 701 56 701 109 731 c 2,8,-1
 900 1174 l 1,9,10
 946 1159 946 1159 962 1101 c 0,11,12
 966 1084 966 1084 967 1068 c 1,13,-1
 331 642 l 1,0,-1
EndSplineSet
EndChar

StartChar: equal
Encoding: 61 61 32
Width: 1165
Flags: W
HStem: 389 154<126.415 1038.85> 762 154<133.468 1038.85>
LayerCount: 2
Fore
SplineSet
1005 916 m 2,0,1
 1032 916 1032 916 1042 865 c 0,2,3
 1044 852 1044 852 1044 841 c 128,-1,4
 1044 830 1044 830 1041.5 816 c 0,5,6
 1038 802 1038 802 1034 790 c 0,7,8
 1024 762 1024 762 1005 762 c 2,9,-1
 159 762 l 2,10,11
 130 762 130 762 120 814 c 0,12,13
 118 827 118 827 118 838 c 256,14,15
 118 884 118 884 133 900 c 128,-1,16
 148 916 148 916 159 916 c 2,17,-1
 1005 916 l 2,0,1
1005 543 m 2,18,19
 1032 543 1032 543 1042 493 c 0,20,21
 1044 480 1044 480 1044 468.5 c 128,-1,22
 1044 457 1044 457 1041.5 443 c 0,23,24
 1038 429 1038 429 1034 417 c 0,25,26
 1024 389 1024 389 1005 389 c 2,27,-1
 163 389 l 2,28,29
 134 389 134 389 124 441 c 0,30,31
 122 454 122 454 122 465.5 c 128,-1,32
 122 477 122 477 124.5 490.5 c 128,-1,33
 127 504 127 504 132 516 c 0,34,35
 144 544 144 544 163 543 c 2,36,-1
 1005 543 l 2,18,19
EndSplineSet
EndChar

StartChar: greater
Encoding: 62 62 33
Width: 1074
Flags: W
LayerCount: 2
Fore
SplineSet
108 1068 m 1,0,1
 108 1125 108 1125 146 1158 c 0,2,3
 158 1169 158 1169 175 1174 c 1,4,-1
 966 731 l 2,5,6
 1019 701 1019 701 1019 641 c 256,7,8
 1019 588 1019 588 969 558 c 2,9,-1
 170 96 l 1,10,11
 108 120 108 120 108 196 c 1,12,-1
 744 642 l 1,13,-1
 108 1068 l 1,0,1
EndSplineSet
EndChar

StartChar: question
Encoding: 63 63 34
Width: 947
Flags: W
HStem: -20 278.5<316.945 523.754> 1371 153.5<315.428 582.6>
VStem: 56 280<1170.68 1358.72> 281 280<16.6582 221.322> 326 195<391.613 692> 666 217<995.171 1289.76>
LayerCount: 2
Fore
SplineSet
313 1360 m 1,0,1
 336 1319 336 1319 336 1281 c 128,-1,2
 336 1243 336 1243 325 1217.5 c 128,-1,3
 314 1192 314 1192 295 1174 c 0,4,5
 254 1134 254 1134 210 1134 c 128,-1,6
 166 1134 166 1134 140.5 1144.5 c 0,7,8
 115 1156 115 1156 96 1174 c 0,9,10
 56 1213 56 1213 56 1266.5 c 128,-1,11
 56 1320 56 1320 78 1356.5 c 128,-1,12
 100 1393 100 1393 136 1420.5 c 128,-1,13
 172 1448 172 1448 216.5 1468 c 128,-1,14
 261 1488 261 1488 307 1500 c 0,15,16
 397 1524 397 1524 482.5 1524.5 c 128,-1,17
 568 1525 568 1525 646 1496 c 128,-1,18
 724 1467 724 1467 776 1418 c 0,19,20
 882 1319 882 1319 883 1167 c 0,21,22
 883 1018 883 1018 766 896 c 0,23,24
 714 842 714 842 650 793 c 1,25,-1
 521 692 l 1,26,-1
 521 445 l 2,27,28
 521 400 521 400 458 386 c 0,29,30
 440 382 440 382 420 382 c 0,31,32
 326 382 326 382 326 445 c 2,33,-1
 326 715 l 1,34,35
 362 748 362 748 402 778 c 2,36,-1
 479 838 l 1,37,38
 569 911 569 911 603 960 c 0,39,40
 666 1053 666 1053 666 1147 c 0,41,42
 666 1248 666 1248 603 1310 c 0,43,44
 541 1370 541 1370 437 1371 c 0,45,46
 356 1371 356 1371 313 1360 c 1,0,1
291.5 63.5 m 128,-1,48
 281 89 281 89 281 119 c 128,-1,49
 281 149 281 149 291.5 174.5 c 128,-1,50
 302 200 302 200 321 218 c 0,51,52
 363 258 363 258 406.5 258.5 c 128,-1,53
 450 259 450 259 475.5 248 c 0,54,55
 501 236 501 236 520 218 c 0,56,57
 561 178 561 178 561 133.5 c 128,-1,58
 561 89 561 89 550 63.5 c 128,-1,59
 539 38 539 38 520 20 c 0,60,61
 479 -20 479 -20 435 -20 c 128,-1,62
 391 -20 391 -20 365.5 -9.5 c 128,-1,63
 340 1 340 1 321 19.5 c 128,-1,47
 302 38 302 38 291.5 63.5 c 128,-1,48
EndSplineSet
EndChar

StartChar: at
Encoding: 64 64 35
Width: 1843
Flags: W
HStem: -350 150<633.388 1194.81> -20 154<758.261 1020.54 1306.44 1470.93> 870 154<783.139 1071.74> 1201 154<664.613 1193.58>
VStem: 68 165<195.638 747.537> 460 205<250.62 729.975> 1102 195<200.016 822.041> 1598 162<296.697 790.392>
LayerCount: 2
Fore
SplineSet
929 1024 m 0,0,1
 1029 1024 1029 1024 1162 987 c 1,2,-1
 1202 1038 l 1,3,4
 1208 1040 1208 1040 1214 1040 c 2,5,-1
 1229 1040 l 2,6,7
 1288 1040 1288 1040 1333 1004 c 0,8,9
 1346 994 1346 994 1352 981 c 1,10,-1
 1297 766 l 1,11,-1
 1297 196 l 2,12,13
 1296 155 1296 155 1306 145 c 0,14,15
 1320 130 1320 130 1359 130 c 128,-1,16
 1398 130 1398 130 1439.5 155 c 128,-1,17
 1481 180 1481 180 1516 230 c 0,18,19
 1598 348 1598 348 1598 508.5 c 128,-1,20
 1598 669 1598 669 1553 791.5 c 128,-1,21
 1508 914 1508 914 1422 1005 c 0,22,23
 1238 1201 1238 1201 930 1201 c 0,24,25
 620 1200 620 1200 431 1006 c 0,26,27
 233 803 233 803 233 448 c 0,28,29
 234 162 234 162 416 -17 c 0,30,31
 602 -200 602 -200 887 -200 c 128,-1,32
 1172 -200 1172 -200 1348 -84 c 1,33,34
 1394 -104 1394 -104 1424 -168 c 0,35,36
 1432 -186 1432 -186 1435 -202 c 1,37,38
 1218 -350 1218 -350 912 -350 c 0,39,40
 522 -350 522 -350 298 -140 c 0,41,42
 68 76 68 76 68 459 c 0,43,44
 68 857 68 857 317 1109 c 0,45,46
 473 1267 473 1267 698 1326 c 0,47,48
 809 1355 809 1355 964 1355 c 128,-1,49
 1119 1355 1119 1355 1272.5 1292 c 128,-1,50
 1426 1229 1426 1229 1534 1118 c 0,51,52
 1760 887 1760 887 1760 529 c 0,53,54
 1760 304 1760 304 1631 148 c 0,55,56
 1499 -12 1499 -12 1299 -11 c 0,57,58
 1196 -11 1196 -11 1156 41 c 0,59,60
 1142 59 1142 59 1132 85 c 1,61,62
 1049 18 1049 18 921 -10 c 0,63,64
 875 -20 875 -20 826 -20 c 0,65,66
 460 -20 460 -20 460 512 c 0,67,68
 460 740 460 740 598 885 c 0,69,70
 730 1024 730 1024 929 1024 c 0,0,1
867 134 m 256,71,72
 982 134 982 134 1102 234 c 1,73,-1
 1102 805 l 1,74,75
 1019 870 1019 870 914 870 c 0,76,77
 756 870 756 870 690 686 c 0,78,79
 665 616 665 616 665 511.5 c 128,-1,80
 665 407 665 407 681 335.5 c 128,-1,81
 697 264 697 264 724 219 c 0,82,83
 775 134 775 134 867 134 c 256,71,72
EndSplineSet
EndChar

StartChar: A
Encoding: 65 65 36
Width: 1424
Flags: W
HStem: 0 141<-7.40625 138.453 287 471.079 910.468 1059.97 1301 1429.05> 499 154<485 874> 1505 20G<677.5 726.5>
LayerCount: 2
Fore
SplineSet
13 0 m 2,0,1
 -12 0 -12 0 -12 57 c 0,2,3
 -12 109 -12 109 12 133 c 0,4,5
 20 141 20 141 48 141 c 0,6,7
 122 141 122 141 145 198 c 2,8,-1
 654 1505 l 2,9,10
 662 1525 662 1525 693 1525 c 0,11,12
 760 1525 760 1525 768 1505 c 2,13,-1
 1301 141 l 1,14,-1
 1418 141 l 2,15,16
 1444 141 1444 141 1444 81 c 0,17,18
 1444 31 1444 31 1429.5 15.5 c 128,-1,19
 1415 0 1415 0 1405 0 c 2,20,-1
 920 0 l 2,21,22
 895 0 895 0 895 55 c 0,23,24
 895 107 895 107 910 124 c 128,-1,25
 925 141 925 141 936 141 c 0,26,27
 1060 141 1060 141 1060 165 c 0,28,29
 1060 174 1060 174 1052 190 c 1,30,-1
 933 499 l 1,31,-1
 426 499 l 1,32,-1
 287 141 l 1,33,-1
 459 141 l 2,34,35
 485 141 485 141 485 83 c 0,36,37
 485 31 485 31 471.5 15.5 c 128,-1,38
 458 0 458 0 449 0 c 2,39,-1
 13 0 l 2,0,1
485 653 m 1,40,-1
 874 653 l 1,41,-1
 681 1157 l 1,42,-1
 485 653 l 1,40,-1
EndSplineSet
EndChar

StartChar: B
Encoding: 66 66 37
Width: 1329
Flags: W
HStem: 0 141.5<128.255 291 542.748 905.391> 733 154<502 834.899> 1364 141<78.042 291 502 784.615>
VStem: 291 211<182.682 733 887 1350.86> 924 233<982.939 1263.47> 1016 233<245.151 581.44>
LayerCount: 2
Fore
SplineSet
678 -10 m 1,0,-1
 427 0 l 1,1,-1
 125 0 l 2,2,3
 100 0 100 0 100 57 c 0,4,5
 100 106 100 106 128 134 c 0,6,7
 136 142 136 142 162.5 141.5 c 128,-1,8
 189 141 189 141 218 143.5 c 128,-1,9
 247 146 247 146 263 151 c 0,10,11
 291 160 291 160 291 184 c 2,12,-1
 291 1348 l 2,13,14
 291 1364 291 1364 278 1364 c 2,15,-1
 115 1364 l 2,16,17
 86 1364 86 1364 76 1418 c 0,18,19
 74 1432 74 1432 74 1446 c 0,20,21
 74 1505 74 1505 100 1505 c 2,22,-1
 614 1505 l 2,23,24
 1157 1505 1157 1505 1157 1137 c 0,25,26
 1157 1023 1157 1023 1075 932 c 0,27,28
 996 845 996 845 881 814 c 1,29,30
 1050 790 1050 790 1150 690 c 0,31,32
 1249 590 1249 590 1249 438 c 0,33,34
 1249 120 1249 120 933 23 c 0,35,36
 825 -10 825 -10 678 -10 c 1,0,-1
502 298 m 2,37,38
 502 219 502 219 541.5 181.5 c 128,-1,39
 581 144 581 144 674.5 144 c 128,-1,40
 768 144 768 144 832 158 c 128,-1,41
 896 172 896 172 937 206 c 0,42,43
 1016 271 1016 271 1016 437 c 0,44,45
 1016 580 1016 580 884 662 c 0,46,47
 769 734 769 734 606 733 c 2,48,-1
 502 733 l 1,49,-1
 502 298 l 2,37,38
655 887 m 2,50,51
 841 887 841 887 901 1005 c 0,52,53
 924 1050 924 1050 924 1123 c 128,-1,54
 924 1196 924 1196 896 1242 c 128,-1,55
 868 1288 868 1288 814 1312 c 0,56,57
 727 1351 727 1351 502 1351 c 1,58,-1
 502 887 l 1,59,-1
 655 887 l 2,50,51
EndSplineSet
EndChar

StartChar: C
Encoding: 67 67 38
Width: 1274
Flags: W
HStem: -20 164.5<584.016 962.867> 1371 154<584.812 922.994>
VStem: 102 233<461.709 1060.33> 903 307<1132.44 1333.81>
LayerCount: 2
Fore
SplineSet
925 1335 m 1,0,1
 866 1371 866 1371 770 1371 c 128,-1,2
 674 1371 674 1371 594.5 1332 c 0,3,4
 516 1293 516 1293 458 1221 c 0,5,6
 336 1068 336 1068 335 823 c 0,7,8
 335 316 335 316 584 186 c 0,9,10
 664 144 664 144 746.5 144.5 c 128,-1,11
 829 145 829 145 877.5 158 c 128,-1,12
 926 171 926 171 965 189.5 c 128,-1,13
 1004 208 1004 208 1034 228 c 0,14,15
 1092 268 1092 268 1106.5 268 c 128,-1,16
 1121 268 1121 268 1135 257 c 128,-1,17
 1149 246 1149 246 1161 230 c 0,18,19
 1188 195 1188 195 1188 168.5 c 128,-1,20
 1188 142 1188 142 1169.5 125.5 c 128,-1,21
 1151 109 1151 109 1112.5 83.5 c 128,-1,22
 1074 58 1074 58 1018 35 c 0,23,24
 883 -20 883 -20 741 -20 c 128,-1,25
 599 -20 599 -20 486 24.5 c 0,26,27
 374 69 374 69 288 162 c 0,28,29
 102 364 102 364 102 734 c 0,30,31
 102 1120 102 1120 296 1330 c 0,32,33
 477 1526 477 1526 777 1525 c 0,34,35
 934 1525 934 1525 1065 1449 c 0,36,37
 1210 1365 1210 1365 1210 1241 c 0,38,39
 1210 1177 1210 1177 1166 1131 c 0,40,41
 1123 1087 1123 1087 1057 1087 c 256,42,43
 992 1087 992 1087 948 1131 c 0,44,45
 903 1176 903 1176 903 1236.5 c 128,-1,46
 903 1297 903 1297 925 1335 c 1,0,1
EndSplineSet
EndChar

StartChar: D
Encoding: 68 68 39
Width: 1517
Flags: W
HStem: 0 154<127.224 290 501 867.872> 1351 154<81.2363 290 501 896.053>
VStem: 290 211<154.179 1350.86> 1180 233<477.662 1033.25>
LayerCount: 2
Fore
SplineSet
73 1442 m 0,0,1
 73 1505 73 1505 99 1505 c 2,2,-1
 681 1505 l 2,3,4
 1076 1505 1076 1505 1250 1315 c 0,5,6
 1412 1138 1412 1138 1413 758 c 0,7,8
 1414 376 1414 376 1184 176 c 0,9,10
 982 1 982 1 681 0 c 2,11,-1
 128 0 l 2,12,13
 101 0 101 0 101 57 c 0,14,15
 101 103 101 103 127 133 c 0,16,17
 134 141 134 141 160.5 141 c 128,-1,18
 187 141 187 141 216 143.5 c 0,19,20
 246 146 246 146 262 151 c 0,21,22
 290 160 290 160 290 184 c 2,23,-1
 290 1350 l 2,24,25
 290 1364 290 1364 278 1364 c 2,26,-1
 114 1364 l 2,27,28
 86 1364 86 1364 76 1416 c 0,29,30
 74 1430 74 1430 73 1442 c 0,0,1
501 154 m 1,31,-1
 648 154 l 2,32,33
 862 154 862 154 1012 293 c 0,34,35
 1180 450 1180 450 1180 723 c 0,36,37
 1180 1191 1180 1191 888 1312 c 0,38,39
 794 1351 794 1351 673 1351 c 2,40,-1
 501 1351 l 1,41,-1
 501 154 l 1,31,-1
EndSplineSet
EndChar

StartChar: E
Encoding: 69 69 40
Width: 1288
Flags: W
HStem: 0 154<126.255 290 501 1031> 0 134<104.19 160.161> 694 154<501 808.741> 1002 20G<852 908> 1180 325<1058.02 1199> 1351 154<81.2363 290 501 1034.77>
VStem: 290 211<154.179 694 848 1350.86> 820 144<517.962 694 871.016 1007.56> 1058 141<1181.4 1309.24>
LayerCount: 2
Fore
SplineSet
892 516 m 128,-1,1
 820 516 820 516 820 543 c 2,2,-1
 820 694 l 1,3,-1
 501 694 l 1,4,-1
 501 154 l 1,5,-1
 1031 154 l 1,6,-1
 1107 303 l 2,7,8
 1117 322 1117 322 1144.5 322 c 128,-1,9
 1172 322 1172 322 1187 319 c 128,-1,10
 1202 316 1202 316 1214 311 c 0,11,12
 1241 300 1241 300 1241 281 c 0,13,14
 1241 276 1241 276 1240 274 c 2,15,-1
 1148 0 l 1,16,-1
 128 0 l 2,17,18
 101 0 101 0 101 59 c 0,19,20
 102 109 102 109 126 134 c 0,21,22
 134 142 134 142 161 141.5 c 128,-1,23
 188 141 188 141 217 143.5 c 128,-1,24
 246 146 246 146 262 151 c 0,25,26
 290 160 290 160 290 184 c 2,27,-1
 290 1350 l 2,28,29
 290 1364 290 1364 278 1364 c 2,30,-1
 114 1364 l 2,31,32
 86 1364 86 1364 76 1416 c 0,33,34
 74 1430 74 1430 73 1442 c 0,35,36
 73 1505 73 1505 99 1505 c 2,37,-1
 1199 1505 l 1,38,-1
 1199 1214 l 2,39,40
 1199 1180 1199 1180 1128.5 1180 c 128,-1,41
 1058 1180 1058 1180 1058 1202 c 0,42,43
 1058 1286 1058 1286 1036 1310 c 0,44,45
 997 1351 997 1351 894 1351 c 2,46,-1
 501 1351 l 1,47,-1
 501 848 l 1,48,-1
 755 848 l 2,49,50
 801 848 801 848 809 870 c 0,51,52
 822 902 822 902 822 999 c 0,53,54
 822 1022 822 1022 882 1022 c 0,55,56
 934 1022 934 1022 949 1008 c 128,-1,57
 964 994 964 994 964 985 c 2,58,-1
 964 557 l 2,59,0
 964 516 964 516 892 516 c 128,-1,1
EndSplineSet
EndChar

StartChar: F
Encoding: 70 70 41
Width: 1236
Flags: W
HStem: 0 141<105.805 290 501 726.532> 694 154<501 808.741> 1002 20G<852 908> 1180 325<1058.02 1199> 1351 154<81.2363 290 501 1034.77>
VStem: 290 211<147.104 694 848 1350.86> 820 144<517.962 694 871.016 1007.56> 1058 141<1181.4 1309.24>
LayerCount: 2
Fore
SplineSet
892 516 m 128,-1,1
 820 516 820 516 820 543 c 2,2,-1
 820 694 l 1,3,-1
 501 694 l 1,4,-1
 501 141 l 1,5,-1
 716 141 l 2,6,7
 742 141 742 141 742 80 c 0,8,9
 742 32 742 32 727 16 c 128,-1,10
 712 0 712 0 701 0 c 2,11,-1
 128 0 l 2,12,13
 101 0 101 0 101 59 c 0,14,15
 102 110 102 110 126 134 c 0,16,17
 134 142 134 142 161 141.5 c 128,-1,18
 188 141 188 141 217 143.5 c 128,-1,19
 246 146 246 146 262 151 c 0,20,21
 290 160 290 160 290 184 c 2,22,-1
 290 1350 l 2,23,24
 290 1364 290 1364 278 1364 c 2,25,-1
 114 1364 l 2,26,27
 86 1364 86 1364 76 1416 c 0,28,29
 74 1430 74 1430 73 1442 c 0,30,31
 73 1505 73 1505 99 1505 c 2,32,-1
 1199 1505 l 1,33,-1
 1199 1214 l 2,34,35
 1199 1180 1199 1180 1128.5 1180 c 128,-1,36
 1058 1180 1058 1180 1058 1202 c 0,37,38
 1058 1286 1058 1286 1036 1310 c 0,39,40
 997 1351 997 1351 894 1351 c 2,41,-1
 501 1351 l 1,42,-1
 501 848 l 1,43,-1
 755 848 l 2,44,45
 801 848 801 848 809 870 c 0,46,47
 822 902 822 902 822 999 c 0,48,49
 822 1022 822 1022 882 1022 c 0,50,51
 934 1022 934 1022 949 1008 c 128,-1,52
 964 994 964 994 964 985 c 2,53,-1
 964 557 l 2,54,0
 964 516 964 516 892 516 c 128,-1,1
EndSplineSet
EndChar

StartChar: G
Encoding: 71 71 42
Width: 1363
Flags: W
HStem: -20 164.5<580.016 983.085> 491 141<774.415 987 1198 1302.44> 1371 154<588.604 939.589>
VStem: 100 233<465.104 1057.35> 926 307<1132.44 1334.84> 987 211<170 490.996>
LayerCount: 2
Fore
SplineSet
1279 632 m 2,0,1
 1304 632 1304 632 1304 561.5 c 128,-1,2
 1304 491 1304 491 1269 491 c 2,3,-1
 1198 491 l 1,4,-1
 1198 147 l 1,5,6
 1114 75 1114 75 1044 44 c 0,7,8
 897 -20 897 -20 721 -20 c 0,9,10
 554 -20 554 -20 411 74 c 0,11,12
 190 220 190 220 122 520 c 0,13,14
 100 620 100 620 100 777 c 128,-1,15
 100 934 100 934 151.5 1082.5 c 0,16,17
 203 1232 203 1232 293 1330 c 0,18,19
 472 1526 472 1526 773 1525 c 0,20,21
 959 1526 959 1526 1091 1450 c 0,22,23
 1233 1369 1233 1369 1233 1241 c 0,24,25
 1232 1177 1232 1177 1188 1131 c 0,26,27
 1145 1087 1145 1087 1080 1087 c 256,28,29
 1015 1087 1015 1087 971 1131 c 0,30,31
 926 1176 926 1176 926 1237.5 c 128,-1,32
 926 1299 926 1299 942 1336 c 1,33,34
 865 1371 865 1371 768.5 1371 c 128,-1,35
 672 1371 672 1371 592.5 1332 c 0,36,37
 514 1293 514 1293 456 1221 c 0,38,39
 334 1068 334 1068 333 823 c 0,40,41
 332 316 332 316 580 186 c 0,42,43
 660 144 660 144 773 144.5 c 128,-1,44
 886 145 886 145 987 186 c 1,45,-1
 987 475 l 2,46,47
 987 491 987 491 974 491 c 2,48,-1
 811 491 l 2,49,50
 782 492 782 492 772 546 c 0,51,52
 770 560 770 560 770 573 c 0,53,54
 770 632 770 632 796 632 c 2,55,-1
 1279 632 l 2,0,1
EndSplineSet
EndChar

StartChar: H
Encoding: 72 72 43
Width: 1612
Flags: W
HStem: 0 141<126.255 290 501 679.532 948.255 1111 1322 1501.02> 694 154<501 1111> 1364 141<77.9766 290 501 714.438 897.797 1111 1322 1535.44>
VStem: 290 211<147.104 694 848 1364> 1111 211<147.104 694 848 1364>
LayerCount: 2
Fore
SplineSet
669 141 m 2,0,1
 695 141 695 141 695 80 c 0,2,3
 695 32 695 32 680 16 c 128,-1,4
 665 0 665 0 654 0 c 2,5,-1
 122 0 l 2,6,7
 99 0 99 0 99 57 c 0,8,9
 98 106 98 106 126 134 c 0,10,11
 134 142 134 142 161 141.5 c 128,-1,12
 188 141 188 141 217 143.5 c 128,-1,13
 246 146 246 146 262 151 c 0,14,15
 290 160 290 160 290 184 c 2,16,-1
 290 1348 l 2,17,18
 290 1364 290 1364 277 1364 c 2,19,-1
 114 1364 l 2,20,21
 86 1364 86 1364 76 1417 c 0,22,23
 74 1431 74 1431 73 1444 c 0,24,25
 73 1505 73 1505 99 1505 c 2,26,-1
 691 1505 l 2,27,28
 716 1505 716 1505 716 1434.5 c 128,-1,29
 716 1364 716 1364 681 1364 c 2,30,-1
 501 1364 l 1,31,-1
 501 848 l 1,32,-1
 1111 848 l 1,33,-1
 1111 1348 l 2,34,35
 1111 1364 1111 1364 1099 1364 c 2,36,-1
 935 1364 l 2,37,38
 906 1364 906 1364 896 1417 c 0,39,40
 894 1431 894 1431 894 1444 c 0,41,42
 894 1505 894 1505 921 1505 c 2,43,-1
 1512 1505 l 2,44,45
 1537 1505 1537 1505 1537 1434.5 c 128,-1,46
 1537 1364 1537 1364 1502 1364 c 2,47,-1
 1322 1364 l 1,48,-1
 1322 141 l 1,49,-1
 1490 141 l 2,50,51
 1517 141 1517 141 1517 80 c 0,52,53
 1517 31 1517 31 1501.5 15.5 c 128,-1,54
 1486 0 1486 0 1476 0 c 2,55,-1
 945 0 l 2,56,57
 921 0 921 0 921 57 c 0,58,59
 921 108 921 108 948 134 c 0,60,61
 956 142 956 142 983 141.5 c 128,-1,62
 1010 141 1010 141 1038.5 143.5 c 128,-1,63
 1067 146 1067 146 1083 151 c 0,64,65
 1111 160 1111 160 1111 184 c 2,66,-1
 1111 694 l 1,67,-1
 501 694 l 1,68,-1
 501 141 l 1,69,-1
 669 141 l 2,0,1
EndSplineSet
EndChar

StartChar: I
Encoding: 73 73 44
Width: 791
Flags: W
HStem: 0 141<128.255 291 502 680.532> 1364 141<78.042 291 502 715.438>
VStem: 291 211<147.104 1364>
LayerCount: 2
Fore
SplineSet
670 141 m 2,0,1
 696 141 696 141 696 80 c 0,2,3
 696 32 696 32 681 16 c 128,-1,4
 666 0 666 0 655 0 c 2,5,-1
 123 0 l 2,6,7
 100 0 100 0 100 57 c 0,8,9
 100 106 100 106 128 134 c 0,10,11
 136 142 136 142 162.5 141.5 c 128,-1,12
 189 141 189 141 218 143.5 c 128,-1,13
 247 146 247 146 263 151 c 0,14,15
 291 160 291 160 291 184 c 2,16,-1
 291 1348 l 2,17,18
 291 1364 291 1364 278 1364 c 2,19,-1
 115 1364 l 2,20,21
 86 1364 86 1364 76 1418 c 0,22,23
 74 1432 74 1432 74 1446 c 0,24,25
 74 1505 74 1505 100 1505 c 2,26,-1
 692 1505 l 2,27,28
 717 1505 717 1505 717 1434.5 c 128,-1,29
 717 1364 717 1364 682 1364 c 2,30,-1
 502 1364 l 1,31,-1
 502 141 l 1,32,-1
 670 141 l 2,0,1
EndSplineSet
EndChar

StartChar: J
Encoding: 74 74 45
Width: 756
Flags: W
HStem: -440 276<-19.9998 183.601> 1364 141<60.042 273 484 697.438>
VStem: 273 211<-162.364 1364>
LayerCount: 2
Fore
SplineSet
674 1505 m 2,0,1
 699 1505 699 1505 699 1434.5 c 128,-1,2
 699 1364 699 1364 664 1364 c 2,3,-1
 484 1364 l 1,4,-1
 484 68 l 2,5,6
 484 -119 484 -119 384 -271 c 0,7,8
 314 -375 314 -375 206 -418 c 0,9,10
 150 -440 150 -440 102.5 -440 c 128,-1,11
 55 -440 55 -440 30 -430 c 0,12,13
 4 -420 4 -420 -14 -402 c 0,14,15
 -54 -362 -54 -362 -53 -303 c 256,16,17
 -53 -208 -53 -208 30 -174 c 0,18,19
 55 -164 55 -164 84 -164 c 0,20,21
 159 -164 159 -164 201 -231 c 1,22,23
 273 -186 273 -186 273 0 c 2,24,-1
 273 1348 l 2,25,26
 273 1364 273 1364 260 1364 c 2,27,-1
 97 1364 l 2,28,29
 68 1364 68 1364 58 1418 c 0,30,31
 56 1432 56 1432 56 1446 c 0,32,33
 56 1505 56 1505 82 1505 c 2,34,-1
 674 1505 l 2,0,1
EndSplineSet
EndChar

StartChar: K
Encoding: 75 75 46
Width: 1487
Flags: W
HStem: 0 141<128.255 291 502 680.532 1310.06 1469.05> 1364 141<78.042 291 502 663.438 949.921 1094 1285 1409.75>
VStem: 291 211<147.104 1364>
LayerCount: 2
Fore
SplineSet
670 141 m 2,0,1
 696 141 696 141 696 80 c 0,2,3
 696 32 696 32 681 16 c 128,-1,4
 666 0 666 0 655 0 c 2,5,-1
 123 0 l 2,6,7
 100 0 100 0 100 57 c 0,8,9
 100 106 100 106 128 134 c 0,10,11
 136 142 136 142 162.5 141.5 c 128,-1,12
 189 141 189 141 218 143.5 c 128,-1,13
 247 146 247 146 263 151 c 0,14,15
 291 160 291 160 291 184 c 2,16,-1
 291 1348 l 2,17,18
 291 1364 291 1364 278 1364 c 2,19,-1
 115 1364 l 2,20,21
 86 1364 86 1364 76 1418 c 0,22,23
 74 1432 74 1432 74 1446 c 0,24,25
 74 1505 74 1505 100 1505 c 2,26,-1
 640 1505 l 2,27,28
 665 1505 665 1505 665 1434.5 c 128,-1,29
 665 1364 665 1364 630 1364 c 2,30,-1
 502 1364 l 1,31,-1
 502 141 l 1,32,-1
 670 141 l 2,0,1
1460 141 m 0,33,34
 1484 141 1484 141 1484 76 c 0,35,36
 1484 29 1484 29 1469.5 14.5 c 128,-1,37
 1455 0 1455 0 1445 0 c 2,38,-1
 1275 0 l 2,39,40
 1206 0 1206 0 1136 62 c 0,41,42
 1116 80 1116 80 1100 102 c 2,43,-1
 569 796 l 1,44,-1
 1094 1364 l 1,45,-1
 962 1364 l 2,46,47
 936 1364 936 1364 936 1422 c 0,48,49
 936 1474 936 1474 949.5 1489.5 c 128,-1,50
 963 1505 963 1505 972 1505 c 2,51,-1
 1409 1505 l 2,52,53
 1434 1505 1434 1505 1434 1448 c 0,54,55
 1434 1396 1434 1396 1410 1372 c 0,56,57
 1402 1364 1402 1364 1385.5 1364 c 128,-1,58
 1369 1364 1369 1364 1352 1360.5 c 128,-1,59
 1335 1357 1335 1357 1323 1351 c 0,60,61
 1303 1341 1303 1341 1285 1321 c 2,62,-1
 828 803 l 1,63,-1
 1268 230 l 2,64,65
 1303 184 1303 184 1346.5 162.5 c 128,-1,66
 1390 141 1390 141 1460 141 c 0,33,34
EndSplineSet
EndChar

StartChar: L
Encoding: 76 76 47
Width: 1183
Flags: W
HStem: 0 154<126.255 290 501 970> 1364 141<78.0332 290 501 714.438>
VStem: 290 211<154.179 1364>
LayerCount: 2
Fore
SplineSet
691 1505 m 2,0,1
 716 1505 716 1505 716 1434.5 c 128,-1,2
 716 1364 716 1364 681 1364 c 2,3,-1
 501 1364 l 1,4,-1
 501 154 l 1,5,-1
 970 154 l 1,6,-1
 1047 303 l 2,7,8
 1057 322 1057 322 1084.5 322 c 128,-1,9
 1112 322 1112 322 1127 319 c 128,-1,10
 1142 316 1142 316 1154 311 c 0,11,12
 1182 299 1182 299 1182 281 c 0,13,14
 1182 276 1182 276 1181 274 c 2,15,-1
 1088 0 l 1,16,-1
 122 0 l 2,17,18
 99 0 99 0 99 59 c 0,19,20
 98 106 98 106 126 134 c 0,21,22
 134 142 134 142 161 141.5 c 128,-1,23
 188 141 188 141 217 143.5 c 128,-1,24
 246 146 246 146 262 151 c 0,25,26
 290 160 290 160 290 184 c 2,27,-1
 290 1348 l 2,28,29
 290 1364 290 1364 277 1364 c 2,30,-1
 114 1364 l 2,31,32
 86 1364 86 1364 76 1418 c 0,33,34
 74 1432 74 1432 73.5 1443.5 c 128,-1,35
 73 1455 73 1455 74.5 1465.5 c 128,-1,36
 76 1476 76 1476 79 1484 c 0,37,38
 86 1504 86 1504 99 1505 c 2,39,-1
 691 1505 l 2,0,1
EndSplineSet
EndChar

StartChar: M
Encoding: 77 77 48
Width: 1969
Flags: W
HStem: 0 141<128.255 291 445 622.532 1306.25 1469 1680 1858.53> 1364 141<78.042 291 1680 1893.44>
VStem: 291 154<147.104 1023> 1469 211<147.104 1119>
LayerCount: 2
Fore
SplineSet
612 141 m 2,0,1
 638 141 638 141 638 80 c 0,2,3
 638 32 638 32 623 16 c 128,-1,4
 608 0 608 0 597 0 c 2,5,-1
 125 0 l 2,6,7
 100 0 100 0 100 57 c 0,8,9
 100 106 100 106 128 134 c 0,10,11
 136 142 136 142 162.5 141.5 c 128,-1,12
 189 141 189 141 218 143.5 c 128,-1,13
 247 146 247 146 263 151 c 0,14,15
 291 160 291 160 291 184 c 2,16,-1
 291 1348 l 2,17,18
 291 1364 291 1364 278 1364 c 2,19,-1
 115 1364 l 2,20,21
 86 1364 86 1364 76 1418 c 0,22,23
 74 1432 74 1432 74 1446 c 0,24,25
 74 1505 74 1505 100 1505 c 2,26,-1
 398 1505 l 2,27,28
 426 1505 426 1505 439 1476 c 2,29,-1
 988 320 l 1,30,-1
 1469 1485 l 2,31,32
 1478 1505 1478 1505 1495 1505 c 2,33,-1
 1870 1505 l 2,34,35
 1895 1505 1895 1505 1895 1434.5 c 128,-1,36
 1895 1364 1895 1364 1860 1364 c 2,37,-1
 1680 1364 l 1,38,-1
 1680 141 l 1,39,-1
 1848 141 l 2,40,41
 1874 141 1874 141 1874 80 c 0,42,43
 1874 32 1874 32 1859 16 c 128,-1,44
 1844 0 1844 0 1833 0 c 2,45,-1
 1303 0 l 2,46,47
 1278 0 1278 0 1278 57 c 0,48,49
 1278 106 1278 106 1306 134 c 0,50,51
 1314 142 1314 142 1340.5 141.5 c 128,-1,52
 1367 141 1367 141 1396 143.5 c 128,-1,53
 1425 146 1425 146 1441 151 c 0,54,55
 1469 160 1469 160 1469 184 c 2,56,-1
 1469 1119 l 1,57,-1
 1020 0 l 1,58,59
 1008 -12 1008 -12 980 -12 c 0,60,61
 926 -12 926 -12 905 0 c 1,62,-1
 445 1023 l 1,63,-1
 445 141 l 1,64,-1
 612 141 l 2,0,1
EndSplineSet
EndChar

StartChar: N
Encoding: 78 78 49
Width: 1667
Flags: W
HStem: 0 141<128.255 291 445 624.532> 1364 141<78.042 291 1028.04 1241 1395 1607.44>
VStem: 291 154<147.104 1127> 1241 154<345 1364>
LayerCount: 2
Fore
SplineSet
74 1446 m 0,0,1
 74 1505 74 1505 100 1505 c 2,2,-1
 448 1505 l 1,3,-1
 1241 345 l 1,4,-1
 1241 1348 l 2,5,6
 1241 1364 1241 1364 1228 1364 c 2,7,-1
 1065 1364 l 2,8,9
 1036 1364 1036 1364 1026 1418 c 0,10,11
 1024 1432 1024 1432 1024 1446 c 0,12,13
 1024 1505 1024 1505 1050 1505 c 2,14,-1
 1584 1505 l 2,15,16
 1609 1505 1609 1505 1609 1434.5 c 128,-1,17
 1609 1364 1609 1364 1574 1364 c 2,18,-1
 1395 1364 l 1,19,-1
 1395 -2 l 2,20,21
 1395 -20 1395 -20 1321 -20 c 0,22,23
 1250 -20 1250 -20 1239 -2 c 1,24,-1
 445 1127 l 1,25,-1
 445 141 l 1,26,-1
 613 141 l 2,27,28
 640 141 640 141 640 80 c 0,29,30
 640 30 640 30 625 15 c 128,-1,31
 610 0 610 0 598 0 c 2,32,-1
 125 0 l 2,33,34
 100 0 100 0 100 57 c 0,35,36
 100 106 100 106 128 134 c 0,37,38
 136 142 136 142 162.5 141.5 c 128,-1,39
 189 141 189 141 218 143.5 c 128,-1,40
 247 146 247 146 263 151 c 0,41,42
 291 160 291 160 291 184 c 2,43,-1
 291 1348 l 2,44,45
 291 1364 291 1364 278 1364 c 2,46,-1
 115 1364 l 2,47,48
 86 1364 86 1364 76 1418 c 0,49,50
 74 1432 74 1432 74 1446 c 0,0,1
EndSplineSet
EndChar

StartChar: O
Encoding: 79 79 50
Width: 1501
Flags: W
HStem: -20 165<578.426 943.932> 1360 165<566.622 901.393>
VStem: 102 230<465.674 1061.78> 1168 230<420.095 1016.56>
LayerCount: 2
Fore
SplineSet
734 -20 m 0,0,1
 602 -20 602 -20 487.5 24.5 c 0,2,3
 374 69 374 69 288 161 c 0,4,5
 102 361 102 361 102 731 c 0,6,7
 102 1117 102 1117 294 1328 c 0,8,9
 473 1525 473 1525 774 1525 c 0,10,11
 1077 1524 1077 1524 1239 1310 c 0,12,13
 1398 1100 1398 1100 1398 716 c 0,14,15
 1398 350 1398 350 1198 154 c 0,16,17
 1022 -20 1022 -20 734 -20 c 0,0,1
581 187 m 0,18,19
 661 145 661 145 752.5 145 c 128,-1,20
 844 145 844 145 917 175 c 0,21,22
 990 206 990 206 1046 274 c 0,23,24
 1168 423 1168 423 1168 729 c 0,25,26
 1168 994 1168 994 1046 1176 c 0,27,28
 922 1360 922 1360 741 1360 c 0,29,30
 566 1360 566 1360 452 1215 c 0,31,32
 332 1064 332 1064 332 823 c 0,33,34
 332 318 332 318 581 187 c 0,18,19
EndSplineSet
EndChar

StartChar: P
Encoding: 80 80 51
Width: 1221
Flags: W
HStem: 0 141<126.255 290 501 734.532> 629 154<501 789.312> 1364 141<78.168 290 501 769.035>
VStem: 290 211<147.104 629 783 1350.82> 927 233<910.372 1238.25>
LayerCount: 2
Fore
SplineSet
724 141 m 2,0,1
 750 141 750 141 750 80 c 0,2,3
 750 32 750 32 735 16 c 128,-1,4
 720 0 720 0 709 0 c 2,5,-1
 123 0 l 2,6,7
 99 0 99 0 99 56 c 0,8,9
 98 106 98 106 126 134 c 0,10,11
 134 142 134 142 161 141.5 c 128,-1,12
 188 141 188 141 217 143.5 c 128,-1,13
 246 146 246 146 262 151 c 0,14,15
 290 160 290 160 290 184 c 2,16,-1
 290 1349 l 2,17,18
 290 1364 290 1364 277 1364 c 2,19,-1
 114 1364 l 2,20,21
 86 1364 86 1364 76 1418 c 0,22,23
 74 1432 74 1432 73 1446 c 0,24,25
 73 1505 73 1505 100 1505 c 2,26,-1
 656 1505 l 2,27,28
 887 1504 887 1504 1023 1394 c 0,29,30
 1160 1283 1160 1283 1160 1090 c 0,31,32
 1160 629 1160 629 501 629 c 1,33,-1
 501 141 l 1,34,-1
 724 141 l 2,0,1
501 783 m 1,35,36
 711 784 711 784 805 834 c 0,37,38
 927 899 927 899 927 1064 c 0,39,40
 928 1232 928 1232 828 1294 c 0,41,42
 736 1351 736 1351 501 1351 c 1,43,-1
 501 783 l 1,35,36
EndSplineSet
EndChar

StartChar: Q
Encoding: 81 81 52
Width: 1502
Flags: W
HStem: -439 154<1227.6 1559.78> -20 165<582.016 764.327> 1360 165<567.224 902.026>
VStem: 103 230<468.982 1059.68> 1169 230<420.079 1011.73>
LayerCount: 2
Fore
SplineSet
1360 -439 m 0,0,1
 997 -439 997 -439 740 -20 c 1,2,-1
 732 -20 l 2,3,4
 456 -20 456 -20 288 162 c 0,5,6
 102 363 102 363 103 731 c 0,7,8
 103 1117 103 1117 295 1328 c 0,9,10
 474 1525 474 1525 775 1525 c 0,11,12
 1078 1524 1078 1524 1240 1310 c 0,13,14
 1399 1100 1399 1100 1399 716 c 0,15,16
 1399 306 1399 306 1157 116 c 0,17,18
 1083 58 1083 58 996 25 c 1,19,20
 1161 -285 1161 -285 1388 -285 c 0,21,22
 1496 -285 1496 -285 1636 -201 c 0,23,24
 1643 -197 1643 -197 1653.5 -197 c 128,-1,25
 1664 -197 1664 -197 1678.5 -206.5 c 0,26,27
 1694 -216 1694 -216 1706 -231 c 0,28,29
 1734 -265 1734 -265 1734 -296 c 128,-1,30
 1734 -327 1734 -327 1712 -342.5 c 128,-1,31
 1690 -358 1690 -358 1657 -374.5 c 0,32,33
 1624 -392 1624 -392 1579 -406 c 0,34,35
 1475 -440 1475 -440 1360 -439 c 0,0,1
582 187 m 0,36,37
 662 145 662 145 753.5 145 c 128,-1,38
 845 145 845 145 918 175 c 0,39,40
 991 206 991 206 1047 274 c 0,41,42
 1169 423 1169 423 1169 729 c 0,43,44
 1168 994 1168 994 1046 1176 c 0,45,46
 922 1360 922 1360 742 1360 c 0,47,48
 566 1360 566 1360 452 1215 c 0,49,50
 332 1064 332 1064 333 823 c 0,51,52
 333 318 333 318 582 187 c 0,36,37
EndSplineSet
EndChar

StartChar: R
Encoding: 82 82 53
Width: 1355
Flags: W
HStem: 0 141<126.255 290 501 734.532 1186.6 1350.05> 629 154<501 651.025> 1364 141<78.168 290 501 769.035>
VStem: 290 211<147.104 629 783 1350.82> 927 233<905.535 1238.25>
LayerCount: 2
Fore
SplineSet
724 141 m 2,0,1
 750 141 750 141 750 80 c 0,2,3
 750 32 750 32 735 16 c 128,-1,4
 720 0 720 0 709 0 c 2,5,-1
 123 0 l 2,6,7
 99 0 99 0 99 56 c 0,8,9
 98 106 98 106 126 134 c 0,10,11
 134 142 134 142 161 141.5 c 128,-1,12
 188 141 188 141 217 143.5 c 128,-1,13
 246 146 246 146 262 151 c 0,14,15
 290 160 290 160 290 184 c 2,16,-1
 290 1349 l 2,17,18
 290 1364 290 1364 277 1364 c 2,19,-1
 114 1364 l 2,20,21
 86 1364 86 1364 76 1418 c 0,22,23
 74 1432 74 1432 73 1446 c 0,24,25
 73 1505 73 1505 100 1505 c 2,26,-1
 656 1505 l 2,27,28
 887 1504 887 1504 1023 1394 c 0,29,30
 1160 1283 1160 1283 1160 1090 c 0,31,32
 1160 788 1160 788 869 682 c 1,33,-1
 1149 230 l 2,34,35
 1179 181 1179 181 1225 161 c 128,-1,36
 1271 141 1271 141 1341 141 c 0,37,38
 1365 141 1365 141 1365 76 c 0,39,40
 1365 29 1365 29 1350.5 14.5 c 128,-1,41
 1336 0 1336 0 1326 0 c 2,42,-1
 1156 0 l 2,43,44
 1080 0 1080 0 1015 60 c 0,45,46
 995 78 995 78 981 102 c 2,47,-1
 653 636 l 1,48,49
 590 629 590 629 501 629 c 1,50,-1
 501 141 l 1,51,-1
 724 141 l 2,0,1
501 783 m 1,52,53
 711 784 711 784 805 834 c 0,54,55
 927 899 927 899 927 1064 c 0,56,57
 928 1232 928 1232 828 1294 c 0,58,59
 736 1351 736 1351 501 1351 c 1,60,-1
 501 783 l 1,52,53
EndSplineSet
EndChar

StartChar: S
Encoding: 83 83 54
Width: 1177
Flags: W
HStem: -20 154<364.152 741.82> 1087 369<801.38 973.125> 1371 154<432.887 782.151>
VStem: 83 307<170.563 369.589> 118 211<1046.2 1278.06> 755 307<1132.44 1333.72> 865 211<247.111 491.133>
LayerCount: 2
Fore
SplineSet
362 169 m 1,0,1
 427 134 427 134 523 134 c 128,-1,2
 619 134 619 134 677 151.5 c 0,3,4
 734 168 734 168 776 200 c 0,5,6
 864 267 864 267 865 377 c 0,7,8
 866 503 866 503 660 622 c 0,9,10
 602 656 602 656 534 689 c 1,11,-1
 391 762 l 1,12,13
 118 906 118 906 118 1147 c 0,14,15
 118 1332 118 1332 268 1434 c 0,16,17
 403 1526 403 1526 614 1525 c 0,18,19
 770 1526 770 1526 904 1456 c 0,20,21
 1062 1375 1062 1375 1062 1241 c 0,22,23
 1062 1177 1062 1177 1018 1131 c 0,24,25
 975 1087 975 1087 909 1087 c 256,26,27
 844 1087 844 1087 800 1131 c 0,28,29
 755 1176 755 1176 755 1241 c 256,30,31
 755 1294 755 1294 784 1335 c 1,32,33
 725 1371 725 1371 642.5 1371 c 128,-1,34
 560 1371 560 1371 505.5 1356.5 c 0,35,36
 452 1342 452 1342 412 1314 c 0,37,38
 330 1257 330 1257 329 1151 c 0,39,40
 328 1072 328 1072 416 1008 c 0,41,42
 458 976 458 976 520 944 c 2,43,-1
 655 874 l 1,44,45
 876 764 876 764 965 671 c 0,46,47
 1076 556 1076 556 1076 395 c 0,48,49
 1076 211 1076 211 932 95.5 c 128,-1,50
 788 -20 788 -20 567 -20 c 0,51,52
 397 -20 397 -20 252 51 c 0,53,54
 83 134 83 134 83 260 c 0,55,56
 83 326 83 326 128 371 c 128,-1,57
 173 416 173 416 237 416 c 256,58,59
 302 416 302 416 346 371 c 0,60,61
 390 325 390 325 390 272 c 128,-1,62
 390 219 390 219 362 169 c 1,0,1
EndSplineSet
EndChar

StartChar: T
Encoding: 84 84 55
Width: 1275
Flags: W
HStem: 0 141<368.255 531 742 921.017> 1177 328<56 151.711 1121.29 1217> 1351 154<196 531 742 1077>
VStem: 18 134<1208.31 1251.22> 531 211<146.862 1351> 1121 134<1182.91 1251.22>
CounterMasks: 1 1c
LayerCount: 2
Fore
SplineSet
910 141 m 2,0,1
 937 141 937 141 937 74 c 0,2,3
 937 31 937 31 921.5 15.5 c 128,-1,4
 906 0 906 0 896 0 c 2,5,-1
 365 0 l 2,6,7
 341 0 341 0 341 57 c 0,8,9
 341 108 341 108 368 134 c 0,10,11
 376 142 376 142 403 141.5 c 128,-1,12
 430 141 430 141 459 143.5 c 128,-1,13
 488 146 488 146 504 151 c 0,14,15
 531 159 531 159 531 184 c 2,16,-1
 531 1351 l 1,17,-1
 196 1351 l 1,18,-1
 152 1203 l 1,19,20
 143 1177 143 1177 102 1177 c 0,21,22
 52 1178 52 1178 26 1208 c 0,23,24
 18 1218 18 1218 18 1228 c 2,25,-1
 18 1232 l 1,26,-1
 56 1505 l 1,27,-1
 1217 1505 l 1,28,-1
 1255 1232 l 1,29,-1
 1255 1228 l 2,30,31
 1255 1192 1255 1192 1200 1180 c 0,32,33
 1185 1176 1185 1176 1169 1177 c 0,34,35
 1130 1177 1130 1177 1121 1203 c 1,36,-1
 1077 1351 l 1,37,-1
 742 1351 l 1,38,-1
 742 141 l 1,39,-1
 910 141 l 2,0,1
EndSplineSet
EndChar

StartChar: U
Encoding: 85 85 56
Width: 1545
Flags: W
HStem: -20 165<618.603 978.415> 1364 141<46.0332 257.997 469 662.438 932.042 1126 1291 1482.08>
VStem: 258 211<317.858 1364> 1126 165<317.054 1364>
LayerCount: 2
Fore
SplineSet
1291 555 m 2,0,1
 1291 -20 1291 -20 772 -20 c 0,2,3
 492 -20 492 -20 370 132 c 0,4,5
 258 271 258 271 258 569 c 2,6,-1
 258 1348 l 2,7,8
 258 1364 258 1364 245 1364 c 2,9,-1
 82 1364 l 2,10,11
 54 1364 54 1364 44 1418 c 0,12,13
 42 1432 42 1432 41 1444 c 0,14,15
 41 1505 41 1505 67 1505 c 2,16,-1
 639 1505 l 2,17,18
 664 1505 664 1505 664 1434.5 c 128,-1,19
 664 1364 664 1364 629 1364 c 2,20,-1
 469 1364 l 1,21,-1
 469 578 l 2,22,23
 469 237 469 237 663 167 c 0,24,25
 724 145 724 145 804 145 c 128,-1,26
 884 145 884 145 946 170.5 c 128,-1,27
 1008 196 1008 196 1048 249 c 0,28,29
 1126 352 1126 352 1126 575 c 2,30,-1
 1126 1348 l 2,31,32
 1126 1364 1126 1364 1113 1364 c 2,33,-1
 969 1364 l 2,34,35
 940 1364 940 1364 930 1418 c 0,36,37
 928 1432 928 1432 928 1446 c 0,38,39
 928 1505 928 1505 954 1505 c 2,40,-1
 1470 1505 l 2,41,42
 1496 1505 1496 1505 1496 1441 c 0,43,44
 1496 1393 1496 1393 1482.5 1378.5 c 128,-1,45
 1469 1364 1469 1364 1460 1364 c 2,46,-1
 1291 1364 l 1,47,-1
 1291 555 l 2,0,1
EndSplineSet
EndChar

StartChar: V
Encoding: 86 86 57
Width: 1426
Flags: W
HStem: 1364 141<-4.56323 117 365.03 514.017 953.921 1119 1285.88 1432.41>
LayerCount: 2
Fore
SplineSet
1412 1505 m 2,0,1
 1437 1505 1437 1505 1437 1448 c 0,2,3
 1437 1396 1437 1396 1413 1372 c 0,4,5
 1404 1364 1404 1364 1376 1364 c 0,6,7
 1300 1364 1300 1364 1280 1307 c 2,8,-1
 777 0 l 2,9,10
 769 -20 769 -20 716 -20 c 0,11,12
 667 -20 667 -20 657 0 c 1,13,-1
 117 1364 l 1,14,-1
 7 1364 l 2,15,16
 -19 1364 -19 1364 -19 1424 c 0,17,18
 -19 1473 -19 1473 -5 1489 c 128,-1,19
 9 1505 9 1505 20 1505 c 2,20,-1
 505 1505 l 2,21,22
 530 1505 530 1505 530 1450 c 0,23,24
 530 1397 530 1397 514.5 1380.5 c 128,-1,25
 499 1364 499 1364 489 1364 c 0,26,27
 365 1364 365 1364 365 1340 c 0,28,29
 365 1331 365 1331 373 1315 c 1,30,-1
 744 348 l 1,31,-1
 1119 1364 l 1,32,-1
 966 1364 l 2,33,34
 940 1364 940 1364 940 1422 c 0,35,36
 940 1474 940 1474 953.5 1489.5 c 128,-1,37
 967 1505 967 1505 976 1505 c 2,38,-1
 1412 1505 l 2,0,1
EndSplineSet
EndChar

StartChar: W
Encoding: 87 87 58
Width: 2059
Flags: W
HStem: 1364 141<-22.5632 98 347.03 496.017 699.437 828 1069.03 1218.02 1564.92 1733 1897.55 2043.41>
LayerCount: 2
Fore
SplineSet
2023 1505 m 2,0,1
 2048 1505 2048 1505 2048 1448 c 0,2,3
 2048 1396 2048 1396 2024 1372 c 0,4,5
 2016 1364 2016 1364 1988 1364 c 0,6,7
 1914 1364 1914 1364 1891 1307 c 1,8,-1
 1481 0 l 2,9,10
 1475 -20 1475 -20 1440 -20 c 0,11,12
 1369 -20 1369 -20 1361 0 c 2,13,-1
 1030 848 l 1,14,-1
 753 0 l 2,15,16
 747 -20 747 -20 698 -20 c 128,-1,17
 649 -20 649 -20 639 0 c 1,18,-1
 98 1364 l 1,19,-1
 -11 1364 l 2,20,21
 -37 1364 -37 1364 -37 1424 c 0,22,23
 -37 1473 -37 1473 -23 1489 c 128,-1,24
 -9 1505 -9 1505 2 1505 c 2,25,-1
 487 1505 l 2,26,27
 512 1505 512 1505 512 1450 c 0,28,29
 512 1397 512 1397 496.5 1380.5 c 128,-1,30
 481 1364 481 1364 471 1364 c 0,31,32
 347 1364 347 1364 347 1340 c 0,33,34
 347 1331 347 1331 355 1315 c 1,35,-1
 715 376 l 1,36,-1
 944 1067 l 1,37,-1
 828 1364 l 1,38,-1
 711 1364 l 2,39,40
 685 1364 685 1364 685 1424 c 0,41,42
 685 1473 685 1473 699 1489 c 128,-1,43
 713 1505 713 1505 724 1505 c 2,44,-1
 1209 1505 l 2,45,46
 1234 1505 1234 1505 1234 1450 c 0,47,48
 1234 1397 1234 1397 1218.5 1380.5 c 128,-1,49
 1203 1364 1203 1364 1193 1364 c 0,50,51
 1069 1364 1069 1364 1069 1340 c 0,52,53
 1069 1331 1069 1331 1077 1315 c 1,54,-1
 1436 376 l 1,55,-1
 1733 1364 l 1,56,-1
 1577 1364 l 2,57,58
 1551 1364 1551 1364 1551 1422 c 0,59,60
 1551 1474 1551 1474 1564.5 1489.5 c 128,-1,61
 1578 1505 1578 1505 1587 1505 c 2,62,-1
 2023 1505 l 2,0,1
EndSplineSet
EndChar

StartChar: X
Encoding: 88 88 59
Width: 1383
Flags: W
HStem: 0 141<43.2222 196.91 364.004 497.532 802.25 945 1171.07 1354.53> 1364 141<44.952 179 450.027 587.017 856.921 1034 1195.2 1328.53>
LayerCount: 2
Fore
SplineSet
1344 141 m 0,0,1
 1370 141 1370 141 1370 80 c 0,2,3
 1370 32 1370 32 1355 16 c 128,-1,4
 1340 0 1340 0 1329 0 c 2,5,-1
 801 0 l 2,6,7
 774 0 774 0 774 61 c 0,8,9
 774 108 774 108 802 134 c 0,10,11
 810 141 810 141 816 141 c 2,12,-1
 945 141 l 1,13,-1
 646 618 l 1,14,-1
 371 171 l 2,15,16
 364 161 364 161 364 154 c 256,17,18
 364 141 364 141 382 141 c 2,19,-1
 487 141 l 2,20,21
 513 141 513 141 513 81 c 0,22,23
 513 32 513 32 498 16 c 128,-1,24
 483 0 483 0 472 0 c 2,25,-1
 43 0 l 2,26,27
 17 0 17 0 17 61 c 0,28,29
 17 108 17 108 43 134 c 0,30,31
 50 141 50 141 71 141 c 128,-1,32
 92 141 92 141 116.5 145.5 c 128,-1,33
 141 150 141 150 158 158 c 0,34,35
 186 170 186 170 205 196 c 1,36,-1
 554 765 l 1,37,-1
 179 1364 l 1,38,-1
 57 1364 l 2,39,40
 30 1364 30 1364 30 1422 c 0,41,42
 30 1472 30 1472 44.5 1488.5 c 128,-1,43
 59 1505 59 1505 69 1505 c 2,44,-1
 580 1505 l 2,45,46
 603 1505 603 1505 603 1448 c 0,47,48
 603 1395 603 1395 587.5 1379.5 c 128,-1,49
 572 1364 572 1364 561 1364 c 0,50,51
 450 1364 450 1364 450 1342 c 0,52,53
 450 1335 450 1335 459 1317 c 1,54,-1
 716 906 l 1,55,-1
 1034 1364 l 1,56,-1
 869 1364 l 2,57,58
 843 1364 843 1364 843 1423 c 0,59,60
 843 1474 843 1474 856.5 1489.5 c 128,-1,61
 870 1505 870 1505 879 1505 c 2,62,-1
 1320 1505 l 2,63,64
 1344 1505 1344 1505 1344 1447 c 0,65,66
 1344 1396 1344 1396 1329 1380 c 128,-1,67
 1314 1364 1314 1364 1304 1364 c 0,68,69
 1232 1364 1232 1364 1194 1321 c 1,70,-1
 807 761 l 1,71,-1
 1156 204 l 2,72,73
 1190 148 1190 148 1290 142 c 0,74,75
 1318 140 1318 140 1344 141 c 0,0,1
EndSplineSet
EndChar

StartChar: Y
Encoding: 89 89 60
Width: 1284
Flags: W
HStem: 0 141<270.25 539.544 755 1010.53> 1364 141<-16.5632 107 379.026 510.532 817.921 986 1152 1296.41>
VStem: 544 211<166.25 559>
LayerCount: 2
Fore
SplineSet
268 0 m 2,0,1
 243 0 243 0 243 57 c 0,2,3
 242 106 242 106 270 134 c 0,4,5
 278 142 278 142 286 141 c 2,6,-1
 435 141 l 2,7,8
 526 141 526 141 540 166 c 0,9,10
 544 174 544 174 544 184 c 2,11,-1
 544 559 l 1,12,-1
 107 1364 l 1,13,-1
 -5 1364 l 2,14,15
 -31 1364 -31 1364 -31 1424 c 0,16,17
 -31 1473 -31 1473 -17 1489 c 128,-1,18
 -3 1505 -3 1505 8 1505 c 2,19,-1
 501 1505 l 2,20,21
 526 1505 526 1505 526 1448 c 0,22,23
 526 1396 526 1396 511 1380 c 128,-1,24
 496 1364 496 1364 485 1364 c 0,25,26
 379 1364 379 1364 379 1329 c 0,27,28
 379 1319 379 1319 385 1307 c 2,29,-1
 670 735 l 1,30,-1
 986 1364 l 1,31,-1
 830 1364 l 2,32,33
 804 1364 804 1364 804 1422 c 0,34,35
 804 1474 804 1474 817.5 1489.5 c 128,-1,36
 831 1505 831 1505 840 1505 c 2,37,-1
 1276 1505 l 2,38,39
 1301 1505 1301 1505 1301 1448 c 0,40,41
 1301 1396 1301 1396 1277 1372 c 0,42,43
 1268 1364 1268 1364 1240 1364 c 0,44,45
 1174 1364 1174 1364 1152 1321 c 2,46,-1
 755 559 l 1,47,-1
 755 141 l 1,48,-1
 1000 141 l 2,49,50
 1026 141 1026 141 1026 80 c 0,51,52
 1026 32 1026 32 1011 16 c 128,-1,53
 996 0 996 0 985 0 c 2,54,-1
 268 0 l 2,0,1
EndSplineSet
EndChar

StartChar: Z
Encoding: 90 90 61
Width: 1280
Flags: W
HStem: 0 154<374 1000> 1351 154<258 902>
VStem: 80 134<1208.31 1251.22>
LayerCount: 2
Fore
SplineSet
80 75 m 1,0,-1
 902 1351 l 1,1,-1
 258 1351 l 1,2,-1
 214 1203 l 1,3,4
 205 1177 205 1177 164 1177 c 0,5,6
 114 1178 114 1178 88 1208 c 0,7,8
 80 1218 80 1218 80 1228 c 2,9,-1
 80 1232 l 1,10,-1
 118 1505 l 1,11,-1
 1202 1505 l 1,12,-1
 1199 1437 l 1,13,-1
 374 154 l 1,14,-1
 1000 154 l 1,15,-1
 1077 303 l 2,16,17
 1087 322 1087 322 1114.5 322 c 128,-1,18
 1142 322 1142 322 1157 319 c 128,-1,19
 1172 316 1172 316 1184 311 c 0,20,21
 1212 299 1212 299 1212 281 c 0,22,23
 1212 276 1212 276 1211 274 c 2,24,-1
 1118 0 l 1,25,-1
 80 0 l 1,26,-1
 80 75 l 1,0,-1
EndSplineSet
EndChar

StartChar: bracketleft
Encoding: 91 91 62
Width: 654
Flags: W
HStem: -160 141<380 642.762> 1530 141<380 645.638>
VStem: 185 459<-160 -19.0172 1530.02 1671> 185 195<-19 1530>
LayerCount: 2
Fore
SplineSet
614 -19 m 2,0,1
 644 -19 644 -19 644 -89.5 c 128,-1,2
 644 -160 644 -160 614 -160 c 2,3,-1
 185 -160 l 1,4,-1
 185 1671 l 1,5,-1
 614 1671 l 2,6,7
 647 1671 647 1671 647 1600.5 c 128,-1,8
 647 1530 647 1530 614 1530 c 2,9,-1
 380 1530 l 1,10,-1
 380 -19 l 1,11,-1
 614 -19 l 2,0,1
EndSplineSet
EndChar

StartChar: backslash
Encoding: 92 92 63
Width: 913
Flags: W
LayerCount: 2
Fore
SplineSet
41 1606 m 1,0,1
 41 1638 41 1638 116 1638 c 0,2,3
 157 1638 157 1638 206 1606 c 1,4,-1
 879 -141 l 1,5,6
 879 -170 879 -170 804 -170 c 0,7,8
 747 -170 747 -170 707 -141 c 1,9,-1
 41 1606 l 1,0,1
EndSplineSet
EndChar

StartChar: bracketright
Encoding: 93 93 64
Width: 654
Flags: W
HStem: -160 141<11.2378 274> 1530 141<8.36157 274>
VStem: 10 459<-160 -19.0172 1530.02 1671> 274 195<-19 1530>
LayerCount: 2
Fore
SplineSet
40 1530 m 2,0,1
 7 1530 7 1530 7 1600.5 c 128,-1,2
 7 1671 7 1671 40 1671 c 2,3,-1
 469 1671 l 1,4,-1
 469 -160 l 1,5,-1
 40 -160 l 2,6,7
 10 -160 10 -160 10 -89.5 c 128,-1,8
 10 -19 10 -19 40 -19 c 2,9,-1
 274 -19 l 1,10,-1
 274 1530 l 1,11,-1
 40 1530 l 2,0,1
EndSplineSet
EndChar

StartChar: asciicircum
Encoding: 94 94 65
Width: 1180
Flags: W
HStem: 834 610
LayerCount: 2
Fore
SplineSet
135 834 m 1,0,1
 59 834 59 834 59 920 c 1,2,-1
 512 1409 l 1,3,4
 542 1444 542 1444 576 1444 c 0,5,6
 626 1444 626 1444 659 1409 c 2,7,-1
 1118 918 l 1,8,9
 1118 880 1118 880 1098 857 c 128,-1,10
 1078 834 1078 834 1042 834 c 1,11,-1
 580 1239 l 1,12,-1
 135 834 l 1,0,1
EndSplineSet
EndChar

StartChar: underscore
Encoding: 95 95 66
Width: 1178
Flags: W
HStem: -287 123<0 1178>
LayerCount: 2
Fore
SplineSet
1178 -164 m 1,0,-1
 1178 -287 l 1,1,-1
 0 -287 l 1,2,-1
 0 -164 l 1,3,-1
 1178 -164 l 1,0,-1
EndSplineSet
EndChar

StartChar: grave
Encoding: 96 96 67
Width: 1065
Flags: W
HStem: 1188 393
VStem: 211 422
LayerCount: 2
Fore
SplineSet
211 1423 m 1,0,1
 211 1532 211 1532 301 1570 c 0,2,3
 328 1582 328 1582 360 1581 c 1,4,-1
 633 1296 l 1,5,6
 632 1253 632 1253 612 1230 c 0,7,8
 576 1188 576 1188 535 1188 c 1,9,-1
 211 1423 l 1,0,1
EndSplineSet
EndChar

StartChar: a
Encoding: 97 97 68
Width: 1045
Flags: W
HStem: -16 157<303.975 607.446 871 1054.92> 0 141<874.19 1060.83> 429 150<341.23 676> 880 141<378.977 618.25>
VStem: 69 202<173.668 381.169> 116 274<716.314 879.186> 676 195<202.579 429 579 792.955>
LayerCount: 2
Fore
SplineSet
378 880 m 1,0,1
 390 854 390 854 390 821 c 128,-1,2
 390 788 390 788 379.5 763 c 0,3,4
 368 738 368 738 350 720 c 0,5,6
 312 682 312 682 253 681 c 256,7,8
 160 681 160 681 126 763 c 0,9,10
 116 788 116 788 116 824.5 c 128,-1,11
 116 861 116 861 137 893 c 128,-1,12
 158 925 158 925 192.5 948 c 128,-1,13
 227 971 227 971 270.5 985 c 128,-1,14
 314 999 314 999 359 1007 c 0,15,16
 438 1021 438 1021 531.5 1021 c 128,-1,17
 625 1021 625 1021 693.5 991 c 128,-1,18
 762 961 762 961 802 910 c 0,19,20
 872 820 872 820 871 653 c 2,21,-1
 871 141 l 1,22,-1
 1039 141 l 2,23,24
 1066 141 1066 141 1066 82 c 0,25,26
 1066 56 1066 56 1056 30.5 c 128,-1,27
 1046 5 1046 5 1025 0 c 0,28,29
 969 -16 969 -16 864.5 -16 c 128,-1,30
 760 -16 760 -16 748 -12.5 c 128,-1,31
 736 -9 736 -9 726 0 c 0,32,33
 707 17 707 17 688 69 c 1,34,35
 566 -20 566 -20 394 -20 c 0,36,37
 240 -20 240 -20 152 62 c 0,38,39
 68 139 68 139 69 264 c 0,40,41
 69 417 69 417 182 503 c 0,42,43
 281 579 281 579 429 579 c 2,44,-1
 676 579 l 1,45,46
 676 746 676 746 648.5 794.5 c 128,-1,47
 621 843 621 843 582.5 861.5 c 128,-1,48
 544 880 544 880 480 880 c 2,49,-1
 378 880 l 1,0,1
430 134 m 0,50,51
 556 134 556 134 676 234 c 1,52,-1
 676 429 l 1,53,-1
 464 429 l 2,54,55
 379 430 379 430 340 402 c 0,56,57
 271 354 271 354 271 291 c 0,58,59
 271 173 271 173 369 143 c 0,60,61
 398 134 398 134 430 134 c 0,50,51
EndSplineSet
EndChar

StartChar: b
Encoding: 98 98 69
Width: 1099
Flags: W
HStem: -14 154<389.552 685.641> 847 174<413.614 698.209> 1409 174<-42.6676 147> 1409 136.5<-66.2734 145.978>
VStem: -70 412<1409.01 1545.16> 147 195<179.274 792.155 939 1409> 812 205<281.228 719>
LayerCount: 2
Fore
SplineSet
342 207 m 1,0,1
 437 140 437 140 530 140 c 0,2,3
 721 140 721 140 786 322 c 0,4,5
 812 394 812 394 812 503 c 128,-1,6
 812 612 812 612 787 677.5 c 0,7,8
 762 742 762 742 725 780 c 0,9,10
 659 846 659 846 565 847 c 0,11,12
 478 847 478 847 396 798 c 0,13,14
 366 780 366 780 342 753 c 1,15,-1
 342 207 l 1,0,1
342 939 m 1,16,17
 480 1021 480 1021 588.5 1021 c 128,-1,18
 697 1021 697 1021 772 985.5 c 0,19,20
 848 950 848 950 902 884 c 0,21,22
 1018 743 1018 743 1017 506 c 0,23,24
 1018 262 1018 262 878 119 c 0,25,26
 748 -14 748 -14 542 -14 c 0,27,28
 462 -14 462 -14 362 46 c 0,29,30
 338 60 338 60 321 69 c 1,31,-1
 251 -16 l 1,32,33
 241 -22 241 -22 226 -22 c 0,34,35
 196 -22 196 -22 147 2 c 0,36,37
 104 23 104 23 102 44 c 1,38,-1
 147 225 l 1,39,-1
 147 1409 l 1,40,-1
 -29 1409 l 2,41,42
 -58 1409 -58 1409 -68 1461 c 0,43,44
 -70 1475 -70 1475 -70 1491 c 0,45,46
 -70 1535 -70 1535 -43.5 1545.5 c 128,-1,47
 -17 1556 -17 1556 27 1563 c 128,-1,48
 71 1570 71 1570 120 1574 c 0,49,50
 213 1582 213 1582 297 1583 c 0,51,52
 340 1583 340 1583 342 1498 c 0,53,54
 342 1473 342 1473 342 1446 c 2,55,-1
 342 939 l 1,16,17
EndSplineSet
EndChar

StartChar: c
Encoding: 99 99 70
Width: 1004
Flags: W
HStem: -20 154<408.437 722.548> 880 141<426.297 653.863>
VStem: 82 205<272.817 725.068> 646 274<726.429 878.875>
LayerCount: 2
Fore
SplineSet
655 880 m 1,0,-1
 562 880 l 2,1,2
 458 880 458 880 383 801 c 0,3,4
 287 700 287 700 287 510 c 0,5,6
 287 232 287 232 442 158 c 0,7,8
 491 134 491 134 542 134 c 128,-1,9
 593 134 593 134 634 145 c 128,-1,10
 675 156 675 156 714 173.5 c 0,11,12
 754 191 754 191 790 213 c 2,13,-1
 861 256 l 2,14,15
 865 259 865 259 874.5 259 c 128,-1,16
 884 259 884 259 898 247.5 c 128,-1,17
 912 236 912 236 924 220 c 0,18,19
 950 182 950 182 950 157 c 128,-1,20
 950 132 950 132 939 123 c 0,21,22
 748 -20 748 -20 523 -20 c 0,23,24
 314 -20 314 -20 196 125 c 0,25,26
 82 265 82 265 82 510 c 0,27,28
 82 750 82 750 227 890 c 0,29,30
 363 1020 363 1020 574 1021 c 0,31,32
 800 1020 800 1020 887 922 c 0,33,34
 920 884 920 884 920 841 c 128,-1,35
 920 798 920 798 909.5 773 c 0,36,37
 898 748 898 748 880 730 c 0,38,39
 840 691 840 691 783 691 c 256,40,41
 726 691 726 691 686 730 c 0,42,43
 646 768 646 768 646 806 c 128,-1,44
 646 844 646 844 655 880 c 1,0,-1
EndSplineSet
EndChar

StartChar: d
Encoding: 100 100 71
Width: 1147
Flags: W
HStem: -20 154<400.579 676.098 954 1110.26> 0.5 139.5<954.752 1144.92> 867 154<416.474 729.89> 1409 174<569.848 759> 1409 137<544.979 757.737>
VStem: 83 205<274.639 722.506> 542 412<1409.01 1545.68> 759 195<202.579 830.438 1001 1409>
LayerCount: 2
Fore
SplineSet
1122 140 m 2,0,1
 1148 140 1148 140 1148 80 c 0,2,3
 1148 35 1148 35 1133 18 c 128,-1,4
 1118 1 1118 1 1110.5 0.5 c 128,-1,5
 1103 0 1103 0 1082.5 -2.5 c 128,-1,6
 1062 -5 1062 -5 1030 -8 c 0,7,8
 943 -16 943 -16 894.5 -16 c 128,-1,9
 846 -16 846 -16 832.5 -12.5 c 0,10,11
 818 -9 818 -9 808 0 c 0,12,13
 789 16 789 16 770 69 c 1,14,15
 648 -20 648 -20 483 -20 c 0,16,17
 289 -20 289 -20 184 126 c 0,18,19
 83 266 83 266 83 512 c 0,20,21
 82 754 82 754 232 894 c 0,22,23
 368 1021 368 1021 583 1021 c 256,24,25
 684 1021 684 1021 759 1001 c 1,26,-1
 759 1409 l 1,27,-1
 583 1409 l 2,28,29
 554 1409 554 1409 544 1458 c 0,30,31
 542 1472 542 1472 542 1488 c 0,32,33
 542 1536 542 1536 569 1546 c 128,-1,34
 596 1556 596 1556 640 1563 c 128,-1,35
 684 1570 684 1570 732 1574 c 0,36,37
 824 1582 824 1582 909 1583 c 0,38,39
 952 1584 952 1584 954 1498 c 0,40,41
 954 1474 954 1474 954 1448 c 2,42,-1
 954 140 l 1,43,-1
 1122 140 l 2,0,1
510 134 m 0,44,45
 639 134 639 134 759 234 c 1,46,-1
 759 802 l 1,47,48
 676 867 676 867 571 867 c 0,49,50
 384 867 384 867 314 686 c 0,51,52
 288 617 288 617 288 512 c 128,-1,53
 288 407 288 407 309 335.5 c 128,-1,54
 330 264 330 264 362 219 c 0,55,56
 424 134 424 134 510 134 c 0,44,45
EndSplineSet
EndChar

StartChar: e
Encoding: 101 101 72
Width: 1041
Flags: W
HStem: -20 154<411.223 723.054> 455 150<286 757> 867 154<411.287 689.948>
VStem: 81 205<276.041 455 605 742.292> 757 205<605 792.751>
LayerCount: 2
Fore
SplineSet
81 514 m 0,0,1
 81 638 81 638 121.5 733.5 c 0,2,3
 162 828 162 828 230 892 c 0,4,5
 368 1020 368 1020 571 1021 c 0,6,7
 759 1022 759 1022 861 904 c 0,8,9
 962 788 962 788 962 569 c 0,10,11
 962 522 962 522 919 488 c 128,-1,12
 876 454 876 454 809 455 c 2,13,-1
 286 455 l 1,14,15
 304 221 304 221 449 155 c 0,16,17
 495 134 495 134 546 134 c 128,-1,18
 597 134 597 134 637 145.5 c 128,-1,19
 677 157 677 157 714 174.5 c 128,-1,20
 751 192 751 192 786 214 c 0,21,22
 860 260 860 260 872 259.5 c 128,-1,23
 884 259 884 259 897.5 248 c 0,24,25
 910 236 910 236 922 220 c 0,26,27
 948 182 948 182 948.5 156 c 128,-1,28
 949 130 949 130 938 122 c 0,29,30
 755 -20 755 -20 522 -20 c 0,31,32
 313 -20 313 -20 196 126 c 0,33,34
 81 268 81 268 81 514 c 0,0,1
757 605 m 1,35,36
 758 807 758 807 642 853 c 0,37,38
 606 867 606 867 562 867 c 128,-1,39
 518 867 518 867 470 851 c 0,40,41
 422 834 422 834 382 802 c 0,42,43
 293 729 293 729 286 605 c 1,44,-1
 757 605 l 1,35,36
EndSplineSet
EndChar

StartChar: f
Encoding: 102 102 73
Width: 792
Flags: W
HStem: 0 141<81.4678 248.442 450 687.532> 847 154<77.9225 248.442 450 719.749> 1280 303<572.225 760.317> 1449 134<475.644 540>
VStem: 255 195<164.251 847 1024.25 1407.25> 540 274<1319.25 1446.55>
LayerCount: 2
Fore
SplineSet
93 0 m 2,0,1
 66 0 66 0 66 61 c 0,2,3
 66 109 66 109 81 125 c 128,-1,4
 96 141 96 141 107 141 c 0,5,6
 232 140 232 140 249 164 c 0,7,8
 255 172 255 172 255 184 c 2,9,-1
 255 847 l 1,10,-1
 64 847 l 1,11,12
 64 957 64 957 77.5 979 c 128,-1,13
 91 1001 91 1001 107 1001 c 0,14,15
 232 1000 232 1000 249 1024 c 0,16,17
 255 1032 255 1032 255 1044 c 2,18,-1
 255 1167 l 2,19,20
 254 1457 254 1457 434 1549 c 0,21,22
 500 1583 500 1583 569 1583 c 128,-1,23
 638 1583 638 1583 676 1576 c 128,-1,24
 714 1569 714 1569 744 1550 c 0,25,26
 814 1507 814 1507 814 1417 c 0,27,28
 814 1358 814 1358 774 1318 c 0,29,30
 736 1280 736 1280 677 1280 c 256,31,32
 584 1280 584 1280 550 1362 c 0,33,34
 540 1387 540 1387 540 1417 c 2,35,-1
 540 1449 l 1,36,37
 458 1450 458 1450 452 1280 c 0,38,39
 450 1232 450 1232 450 1184 c 2,40,-1
 450 1001 l 1,41,-1
 719 1001 l 2,42,43
 744 1001 744 1001 744 942 c 0,44,45
 744 884 744 884 720 856 c 0,46,47
 712 846 712 846 699 847 c 2,48,-1
 450 847 l 1,49,-1
 450 141 l 1,50,-1
 676 141 l 2,51,52
 703 141 703 141 703 80 c 0,53,54
 703 32 703 32 688 16 c 128,-1,55
 673 0 673 0 662 0 c 2,56,-1
 93 0 l 2,0,1
EndSplineSet
EndChar

StartChar: g
Encoding: 103 103 74
Width: 1130
Flags: W
HStem: -440 154<309.179 708.336> 45 150<394.584 807.147> 348 154<382.828 620.701> 803.5 197.5<932.824 1111.59> 886 130<383.496 634.121>
VStem: 63 195<-237.028 -31.7998> 108 210.5<555.137 821.435> 169 190<216.841 353.107> 691 211<574.829 829.154> 842 195<-178.305 7.78528>
LayerCount: 2
Fore
SplineSet
826 892 m 1,0,1
 902 806 902 806 902 712 c 128,-1,2
 902 618 902 618 864.5 551 c 128,-1,3
 827 484 827 484 766 439 c 0,4,5
 643 348 643 348 468 348 c 0,6,7
 429 348 429 348 393 354 c 1,8,9
 359 312 359 312 359 278 c 128,-1,10
 359 244 359 244 393.5 219.5 c 128,-1,11
 428 195 428 195 485 195 c 2,12,-1
 683 195 l 2,13,14
 883 196 883 196 970 110 c 0,15,16
 1037 44 1037 44 1037 -82 c 0,17,18
 1037 -218 1037 -218 909 -320 c 0,19,20
 758 -440 758 -440 493 -440 c 0,21,22
 276 -440 276 -440 156 -342 c 0,23,24
 106 -301 106 -301 84.5 -255 c 128,-1,25
 63 -209 63 -209 63 -166 c 128,-1,26
 63 -123 63 -123 77.5 -84 c 128,-1,27
 92 -45 92 -45 116 -12 c 0,28,29
 140 22 140 22 171 52 c 2,30,-1
 235 117 l 1,31,32
 223 132 223 132 211 145.5 c 0,33,34
 199 160 199 160 190 176 c 0,35,36
 169 214 169 214 169 266.5 c 128,-1,37
 169 319 169 319 253 408 c 1,38,39
 185 453 185 453 146.5 523.5 c 128,-1,40
 108 594 108 594 108 681 c 128,-1,41
 108 768 108 768 146.5 831.5 c 128,-1,42
 185 895 185 895 246 936 c 0,43,44
 365 1016 365 1016 528 1016 c 0,45,46
 587 1016 587 1016 645 1001 c 1,47,-1
 1008 1001 l 2,48,49
 1101 1002 1101 1002 1122 940 c 0,50,51
 1128 922 1128 922 1128 901 c 128,-1,52
 1128 880 1128 880 1119 861 c 128,-1,53
 1110 842 1110 842 1096 830 c 0,54,55
 1066 804 1066 804 1030 803.5 c 128,-1,56
 994 803 994 803 976.5 814 c 0,57,58
 960 825 960 825 942 840 c 0,59,60
 894 881 894 881 826 892 c 1,0,1
258 -137 m 0,61,62
 258 -286 258 -286 499 -286 c 0,63,64
 634 -286 634 -286 732 -229 c 0,65,66
 842 -166 842 -166 842 -72 c 0,67,68
 842 7 842 7 734 35 c 0,69,70
 696 45 696 45 641 45 c 2,71,-1
 369 45 l 1,72,-1
 335 8 l 2,73,74
 258 -76 258 -76 258 -137 c 0,61,62
367 550.5 m 128,-1,76
 415 502 415 502 477 502 c 128,-1,77
 539 502 539 502 576.5 519 c 128,-1,78
 614 536 614 536 640 566 c 0,79,80
 692 626 692 626 691 715 c 0,81,82
 691 784 691 784 642 834 c 0,83,84
 592 886 592 886 532 886 c 128,-1,85
 472 886 472 886 435 871.5 c 0,86,87
 398 858 398 858 372 832 c 0,88,89
 318 778 318 778 318.5 688.5 c 128,-1,75
 319 599 319 599 367 550.5 c 128,-1,76
EndSplineSet
EndChar

StartChar: h
Encoding: 104 104 75
Width: 1249
Flags: W
HStem: 0 141<37.4678 203.473 405 583.532 721.468 851 1046 1212.53> 833 188<542.922 783.243> 1409 174<20.8479 210> 1409 136.5<-2.54395 209.717>
VStem: -7 411<1409 1545.16> 210 195<164.251 753.266 911 1409> 851 195<146.081 773.927>
LayerCount: 2
Fore
SplineSet
747 141 m 0,0,1
 851 141 851 141 851 184 c 2,2,-1
 851 481 l 2,3,4
 851 673 851 673 829 729.5 c 128,-1,5
 807 786 807 786 772.5 809.5 c 128,-1,6
 738 833 738 833 679 833 c 0,7,8
 545 833 545 833 405 721 c 1,9,-1
 405 141 l 1,10,-1
 573 141 l 2,11,12
 599 141 599 141 599 80 c 0,13,14
 599 32 599 32 584 16 c 128,-1,15
 569 0 569 0 558 0 c 2,16,-1
 48 0 l 2,17,18
 22 0 22 0 22 61 c 0,19,20
 22 109 22 109 37 125 c 128,-1,21
 52 141 52 141 63 141 c 0,22,23
 188 140 188 140 204 164 c 0,24,25
 210 172 210 172 210 184 c 2,26,-1
 210 1409 l 1,27,-1
 34 1409 l 2,28,29
 6 1410 6 1410 -4 1460 c 0,30,31
 -6 1474 -6 1474 -7 1489 c 0,32,33
 -7 1535 -7 1535 20 1545.5 c 128,-1,34
 47 1556 47 1556 91 1563 c 0,35,36
 136 1570 136 1570 184 1574 c 0,37,38
 276 1582 276 1582 360 1583 c 0,39,40
 402 1583 402 1583 404 1498 c 0,41,42
 404 1473 404 1473 405 1446 c 2,43,-1
 405 911 l 1,44,45
 534 985 534 985 664 1013 c 0,46,47
 702 1021 702 1021 726 1021 c 0,48,49
 922 1021 922 1021 992 919 c 0,50,51
 1046 841 1046 841 1046 643 c 2,52,-1
 1046 141 l 1,53,-1
 1202 141 l 2,54,55
 1228 141 1228 141 1228 80 c 0,56,57
 1228 32 1228 32 1213 16 c 128,-1,58
 1198 0 1198 0 1187 0 c 2,59,-1
 733 0 l 2,60,61
 706 0 706 0 706 61 c 0,62,63
 706 109 706 109 721 125 c 128,-1,64
 736 141 736 141 747 141 c 0,0,1
EndSplineSet
EndChar

StartChar: i
Encoding: 105 105 76
Width: 662
Flags: W
HStem: 0 141<78.4678 245.473 446 624.532> 847 174<61.8479 251> 847 136.5<37.4871 249.737> 1272 276<222.422 422.807>
VStem: 34 412<847 983.163> 190 274<1311.25 1507.26> 251 195<164.251 847>
LayerCount: 2
Fore
SplineSet
327 1272 m 256,0,1
 234 1272 234 1272 200 1354 c 0,2,3
 190 1379 190 1379 190 1409 c 256,4,5
 190 1504 190 1504 273 1538 c 0,6,7
 298 1548 298 1548 327 1548 c 256,8,9
 385 1548 385 1548 424.5 1508.5 c 128,-1,10
 464 1469 464 1469 464 1409 c 256,11,12
 464 1350 464 1350 424 1310 c 0,13,14
 386 1272 386 1272 327 1272 c 256,0,1
89 0 m 2,15,16
 63 0 63 0 63 61 c 0,17,18
 63 109 63 109 78 125 c 128,-1,19
 93 141 93 141 104 141 c 0,20,21
 230 140 230 140 246 164 c 0,22,23
 252 172 252 172 251 184 c 2,24,-1
 251 847 l 1,25,-1
 75 847 l 2,26,27
 46 848 46 848 36 898 c 0,28,29
 34 912 34 912 34 927 c 0,30,31
 34 973 34 973 61 983.5 c 128,-1,32
 88 994 88 994 132 1001 c 128,-1,33
 176 1008 176 1008 224 1012 c 0,34,35
 316 1020 316 1020 401 1021 c 0,36,37
 444 1022 444 1022 446 936 c 0,38,39
 446 912 446 912 446 884 c 2,40,-1
 446 141 l 1,41,-1
 614 141 l 2,42,43
 640 141 640 141 640 80 c 0,44,45
 640 32 640 32 625 16 c 128,-1,46
 610 0 610 0 599 0 c 2,47,-1
 89 0 l 2,15,16
EndSplineSet
EndChar

StartChar: j
Encoding: 106 106 77
Width: 568
Flags: W
HStem: -440 209<113.698 202.295> 847 174<46.3132 234> 847 135<20.9673 231.294> 1272 276<204.812 406.261>
VStem: 17 411<847 981.648> 172 275<1311.25 1507.26> 234 195<-174.301 847>
LayerCount: 2
Fore
SplineSet
144 -231 m 1,0,1
 234 -231 234 -231 234 0 c 2,2,-1
 234 847 l 1,3,-1
 58 847 l 2,4,5
 28 848 28 848 20 896 c 0,6,7
 18 910 18 910 17 925 c 0,8,9
 17 971 17 971 43 982 c 1,10,11
 148 1021 148 1021 384 1021 c 0,12,13
 426 1022 426 1022 428 936 c 0,14,15
 428 912 428 912 429 884 c 2,16,-1
 429 68 l 2,17,18
 429 -123 429 -123 337 -271 c 0,19,20
 232 -440 232 -440 45 -440 c 0,21,22
 -48 -440 -48 -440 -82 -358 c 0,23,24
 -92 -333 -92 -333 -92 -303 c 256,25,26
 -92 -208 -92 -208 -9 -174 c 0,27,28
 16 -164 16 -164 45 -164 c 0,29,30
 118 -164 118 -164 144 -231 c 1,0,1
310 1272 m 256,31,32
 216 1272 216 1272 182 1354 c 0,33,34
 172 1379 172 1379 172 1409 c 256,35,36
 172 1504 172 1504 256 1538 c 0,37,38
 282 1548 282 1548 310 1548 c 256,39,40
 368 1548 368 1548 407.5 1508.5 c 128,-1,41
 447 1469 447 1469 447 1409 c 256,42,43
 448 1350 448 1350 408 1310 c 0,44,45
 370 1272 370 1272 310 1272 c 256,31,32
EndSplineSet
EndChar

StartChar: k
Encoding: 107 107 78
Width: 1209
Flags: W
HStem: 0 141<37.4678 203.473 405 521.017 1017.91 1165.53> 860 141<863.003 1068.33> 1409 174<20.8479 210> 1409 136.5<-2.54395 209.717>
VStem: -7 411<1409 1545.16> 210 195<164.251 1409>
LayerCount: 2
Fore
SplineSet
48 0 m 2,0,1
 22 0 22 0 22 61 c 0,2,3
 22 109 22 109 37 125 c 128,-1,4
 52 141 52 141 63 141 c 0,5,6
 188 140 188 140 204 164 c 0,7,8
 210 172 210 172 210 184 c 2,9,-1
 210 1409 l 1,10,-1
 34 1409 l 2,11,12
 6 1410 6 1410 -4 1460 c 0,13,14
 -6 1474 -6 1474 -7 1489 c 0,15,16
 -7 1535 -7 1535 20 1545.5 c 128,-1,17
 47 1556 47 1556 91 1563 c 0,18,19
 136 1570 136 1570 184 1574 c 0,20,21
 276 1582 276 1582 360 1583 c 0,22,23
 402 1583 402 1583 404 1498 c 0,24,25
 404 1473 404 1473 405 1446 c 2,26,-1
 405 141 l 1,27,-1
 510 141 l 2,28,29
 537 141 537 141 537 80 c 0,30,31
 537 31 537 31 521.5 15.5 c 128,-1,32
 506 0 506 0 496 0 c 2,33,-1
 48 0 l 2,0,1
1154 141 m 0,34,35
 1181 141 1181 141 1181 78 c 0,36,37
 1181 32 1181 32 1166 16 c 128,-1,38
 1151 0 1151 0 1140 0 c 2,39,-1
 879 0 l 1,40,-1
 417 600 l 1,41,-1
 820 1001 l 1,42,-1
 1032 1001 l 2,43,44
 1060 1001 1060 1001 1070 949 c 0,45,46
 1072 935 1072 935 1072 922 c 0,47,48
 1072 860 1072 860 1046 860 c 0,49,50
 949 860 949 860 914 845.5 c 128,-1,51
 879 831 879 831 863 815 c 2,52,-1
 644 593 l 1,53,-1
 994 208 l 2,54,55
 1054 141 1054 141 1154 141 c 0,34,35
EndSplineSet
EndChar

StartChar: l
Encoding: 108 108 79
Width: 621
Flags: W
HStem: 0 141<37.4678 203.473 405 583.532> 1409 174<20.8479 210> 1409 136.5<-2.54395 209.717>
VStem: -7 411<1409 1545.16> 210 195<164.251 1409>
LayerCount: 2
Fore
SplineSet
48 0 m 2,0,1
 22 0 22 0 22 61 c 0,2,3
 22 109 22 109 37 125 c 128,-1,4
 52 141 52 141 63 141 c 0,5,6
 188 140 188 140 204 164 c 0,7,8
 210 172 210 172 210 184 c 2,9,-1
 210 1409 l 1,10,-1
 34 1409 l 2,11,12
 6 1410 6 1410 -4 1460 c 0,13,14
 -6 1474 -6 1474 -7 1489 c 0,15,16
 -7 1535 -7 1535 20 1545.5 c 128,-1,17
 47 1556 47 1556 91 1563 c 0,18,19
 136 1570 136 1570 184 1574 c 0,20,21
 276 1582 276 1582 360 1583 c 0,22,23
 402 1583 402 1583 404 1498 c 0,24,25
 404 1473 404 1473 405 1446 c 2,26,-1
 405 141 l 1,27,-1
 573 141 l 2,28,29
 599 141 599 141 599 80 c 0,30,31
 599 32 599 32 584 16 c 128,-1,32
 569 0 569 0 558 0 c 2,33,-1
 48 0 l 2,0,1
EndSplineSet
EndChar

StartChar: m
Encoding: 109 109 80
Width: 1931
Flags: W
HStem: 0 141<78.4678 244.443 446 624.017 772.25 892 1087 1267.31 1412.25 1533 1728 1908.31> 847 174<61.3317 251 595.397 822.567 1232.63 1463.91> 847 134.5<37.4225 250.49>
VStem: 251 195<164.251 751.73> 892 195<146.081 751.73> 1533 195<146.081 781.49>
CounterMasks: 1 1c
LayerCount: 2
Fore
SplineSet
1883 141 m 2,0,1
 1910 141 1910 141 1910 70.5 c 128,-1,2
 1910 0 1910 0 1873 0 c 2,3,-1
 1414 0 l 2,4,5
 1388 0 1388 0 1388 61 c 0,6,7
 1388 110 1388 110 1412 134 c 0,8,9
 1420 142 1420 142 1429 141 c 0,10,11
 1533 141 1533 141 1533 184 c 2,12,-1
 1533 481 l 2,13,14
 1533 675 1533 675 1511 735.5 c 128,-1,15
 1489 796 1489 796 1454.5 821.5 c 128,-1,16
 1420 847 1420 847 1361 847 c 0,17,18
 1250 847 1250 847 1087 718 c 1,19,-1
 1087 141 l 1,20,-1
 1242 141 l 2,21,22
 1269 141 1269 141 1269 70.5 c 128,-1,23
 1269 0 1269 0 1228 0 c 2,24,-1
 773 0 l 2,25,26
 747 0 747 0 747 59 c 0,27,28
 746 108 746 108 772 134 c 0,29,30
 780 142 780 142 788 141 c 0,31,32
 892 141 892 141 892 184 c 2,33,-1
 892 481 l 2,34,35
 892 675 892 675 870 735.5 c 128,-1,36
 848 796 848 796 813.5 821.5 c 128,-1,37
 779 847 779 847 720 847 c 0,38,39
 609 847 609 847 446 718 c 1,40,-1
 446 141 l 1,41,-1
 614 141 l 2,42,43
 640 141 640 141 640 82 c 0,44,45
 640 33 640 33 624.5 16.5 c 128,-1,46
 609 0 609 0 599 0 c 2,47,-1
 91 0 l 2,48,49
 63 0 63 0 63 57 c 0,50,51
 63 109 63 109 78 125 c 128,-1,52
 93 141 93 141 104 141 c 0,53,54
 228 140 228 140 245 164 c 0,55,56
 251 172 251 172 251 184 c 2,57,-1
 251 847 l 1,58,-1
 75 847 l 2,59,60
 46 848 46 848 36 898 c 0,61,62
 34 912 34 912 34 924 c 0,63,64
 34 971 34 971 60.5 981.5 c 128,-1,65
 87 992 87 992 128 999 c 128,-1,66
 169 1006 169 1006 214 1012 c 0,67,68
 309 1022 309 1022 353 1021.5 c 128,-1,69
 397 1021 397 1021 406 1011.5 c 0,70,71
 416 1002 416 1002 420 986 c 0,72,73
 426 966 426 966 425 896 c 1,74,75
 576 980 576 980 700 1011 c 0,76,77
 740 1021 740 1021 767 1021 c 0,78,79
 952 1021 952 1021 1033 880 c 1,80,81
 1188 970 1188 970 1334 1009 c 0,82,83
 1378 1021 1378 1021 1441 1021 c 128,-1,84
 1504 1021 1504 1021 1566 994.5 c 128,-1,85
 1628 968 1628 968 1664 918 c 0,86,87
 1728 830 1728 830 1728 638 c 2,88,-1
 1728 141 l 1,89,-1
 1883 141 l 2,0,1
EndSplineSet
EndChar

StartChar: n
Encoding: 110 110 81
Width: 1290
Flags: W
HStem: 0 141<78.4678 244.443 446 624.532 762.468 892 1087 1253.53> 847 174<61.3317 251 595.397 822.349> 847 134.5<36.8531 250.49>
VStem: 251 195<164.251 751.73> 892 195<146.081 781.49>
LayerCount: 2
Fore
SplineSet
773 0 m 2,0,1
 747 0 747 0 747 61 c 0,2,3
 747 109 747 109 762 125 c 128,-1,4
 777 141 777 141 788 141 c 0,5,6
 892 141 892 141 892 184 c 2,7,-1
 892 481 l 2,8,9
 892 675 892 675 870 735.5 c 128,-1,10
 848 796 848 796 813.5 821.5 c 128,-1,11
 779 847 779 847 720 847 c 0,12,13
 609 847 609 847 446 718 c 1,14,-1
 446 141 l 1,15,-1
 614 141 l 2,16,17
 640 141 640 141 640 80 c 0,18,19
 640 32 640 32 625 16 c 128,-1,20
 610 0 610 0 599 0 c 2,21,-1
 89 0 l 2,22,23
 63 0 63 0 63 61 c 0,24,25
 63 109 63 109 78 125 c 128,-1,26
 93 141 93 141 104 141 c 0,27,28
 228 140 228 140 245 164 c 0,29,30
 251 172 251 172 251 184 c 2,31,-1
 251 847 l 1,32,-1
 75 847 l 2,33,34
 44 848 44 848 36 896 c 0,35,36
 34 910 34 910 34 925 c 0,37,38
 34 971 34 971 60.5 981.5 c 128,-1,39
 87 992 87 992 128 999 c 128,-1,40
 169 1006 169 1006 214 1012 c 0,41,42
 309 1022 309 1022 353 1021.5 c 128,-1,43
 397 1021 397 1021 406 1011.5 c 0,44,45
 416 1002 416 1002 420 986 c 0,46,47
 426 966 426 966 425 896 c 1,48,49
 576 980 576 980 700 1011 c 0,50,51
 740 1021 740 1021 801.5 1021 c 128,-1,52
 863 1021 863 1021 925 994.5 c 128,-1,53
 987 968 987 968 1023 918 c 0,54,55
 1087 830 1087 830 1087 638 c 2,56,-1
 1087 141 l 1,57,-1
 1242 141 l 2,58,59
 1269 141 1269 141 1269 80 c 0,60,61
 1269 32 1269 32 1254 16 c 128,-1,62
 1239 0 1239 0 1228 0 c 2,63,-1
 773 0 l 2,0,1
EndSplineSet
EndChar

StartChar: o
Encoding: 111 111 82
Width: 1093
Flags: W
HStem: -20 154<407.023 683.702> 867 154<404.471 685.205>
VStem: 80 205<276.305 733.238> 807 205<278.382 731.718>
LayerCount: 2
Fore
SplineSet
517 -20 m 0,0,1
 410 -20 410 -20 329 20.5 c 0,2,3
 248 60 248 60 192 132 c 0,4,5
 80 277 80 277 80 512 c 0,6,7
 80 758 80 758 232 896 c 0,8,9
 370 1021 370 1021 580 1021 c 0,10,11
 778 1022 778 1022 898 872 c 0,12,13
 1012 730 1012 730 1012 504 c 0,14,15
 1012 252 1012 252 872 112 c 0,16,17
 740 -20 740 -20 517 -20 c 0,0,1
309.5 687.5 m 128,-1,19
 285 618 285 618 285 516.5 c 128,-1,20
 285 415 285 415 304 344.5 c 0,21,22
 324 274 324 274 358 228 c 0,23,24
 427 134 427 134 549 134 c 0,25,26
 675 134 675 134 744 244 c 0,27,28
 807 344 807 344 807 506 c 0,29,30
 806 777 806 777 648 846 c 0,31,32
 600 867 600 867 550.5 867 c 128,-1,33
 501 867 501 867 455.5 852 c 128,-1,34
 410 837 410 837 372 797 c 128,-1,18
 334 757 334 757 309.5 687.5 c 128,-1,19
EndSplineSet
EndChar

StartChar: p
Encoding: 112 112 83
Width: 1177
Flags: W
HStem: -438 141<51.4678 218.442 420 653.532> -14 154<450.056 764.235> 847 174<30.7216 225 501.736 776.266> 847 133.5<10.7983 223.542>
VStem: 225 195<-273.749 45 168.413 787.555> 890 205<279.154 719.763>
LayerCount: 2
Fore
SplineSet
63 -438 m 2,0,1
 36 -438 36 -438 36 -377 c 0,2,3
 36 -329 36 -329 51 -313 c 128,-1,4
 66 -297 66 -297 77 -297 c 0,5,6
 202 -297 202 -297 219 -274 c 0,7,8
 225 -266 225 -266 225 -254 c 2,9,-1
 225 847 l 1,10,-1
 48 847 l 2,11,12
 18 848 18 848 10 896 c 0,13,14
 8 910 8 910 7 926 c 0,15,16
 7 973 7 973 30 980.5 c 128,-1,17
 53 988 53 988 87.5 995 c 128,-1,18
 122 1002 122 1002 166 1008 c 0,19,20
 260 1021 260 1021 315.5 1021 c 128,-1,21
 371 1021 371 1021 380 1016 c 0,22,23
 390 1012 390 1012 394 1000 c 0,24,25
 400 986 400 986 399 924 c 1,26,27
 536 1002 536 1002 618 1016 c 0,28,29
 650 1022 650 1022 712 1021.5 c 128,-1,30
 774 1021 774 1021 849 985.5 c 128,-1,31
 924 950 924 950 979 884 c 0,32,33
 1095 744 1095 744 1095 506 c 0,34,35
 1095 258 1095 258 958 118 c 0,36,37
 829 -14 829 -14 620 -14 c 0,38,39
 538 -14 538 -14 450 31 c 0,40,41
 430 41 430 41 420 45 c 1,42,-1
 420 -297 l 1,43,-1
 642 -297 l 2,44,45
 669 -297 669 -297 669 -358 c 0,46,47
 669 -406 669 -406 654 -422 c 128,-1,48
 639 -438 639 -438 628 -438 c 2,49,-1
 63 -438 l 2,0,1
420 195 m 1,50,51
 489 140 489 140 608 140 c 0,52,53
 798 140 798 140 864 322 c 0,54,55
 890 394 890 394 890 502.5 c 128,-1,56
 890 611 890 611 865 676.5 c 128,-1,57
 840 742 840 742 802 780 c 0,58,59
 736 847 736 847 642 847 c 0,60,61
 554 848 554 848 474 794 c 0,62,63
 444 774 444 774 420 746 c 1,64,-1
 420 195 l 1,50,51
EndSplineSet
EndChar

StartChar: q
Encoding: 113 113 84
Width: 1116
Flags: W
HStem: -439 141<512.468 753.476 954 1128.53> -20 154<408.474 679.439> 867 154<416.14 728.421>
VStem: 83 205<280.541 722.506> 759 195<-273.749 64 200.016 808.214>
LayerCount: 2
Fore
SplineSet
524 -439 m 2,0,1
 497 -439 497 -439 497 -376 c 0,2,3
 497 -330 497 -330 512 -314 c 128,-1,4
 527 -298 527 -298 538 -298 c 2,5,-1
 622 -298 l 2,6,7
 738 -298 738 -298 754 -274 c 0,8,9
 760 -266 760 -266 759 -255 c 2,10,-1
 759 64 l 1,11,12
 692 9 692 9 566 -13 c 0,13,14
 526 -20 526 -20 455 -20 c 128,-1,15
 384 -20 384 -20 309 18 c 128,-1,16
 234 56 234 56 184 126 c 0,17,18
 83 266 83 266 83 512 c 0,19,20
 82 754 82 754 232 894 c 0,21,22
 368 1021 368 1021 581 1021 c 0,23,24
 686 1021 686 1021 819 984 c 1,25,-1
 882 1066 l 1,26,27
 888 1068 888 1068 894 1068 c 2,28,-1
 909 1068 l 2,29,30
 968 1068 968 1068 1013 1032 c 0,31,32
 1026 1022 1026 1022 1032 1009 c 1,33,-1
 954 763 l 1,34,-1
 954 -298 l 1,35,-1
 1118 -298 l 2,36,37
 1144 -298 1144 -298 1144 -357 c 0,38,39
 1144 -407 1144 -407 1129 -423 c 128,-1,40
 1114 -439 1114 -439 1103 -439 c 2,41,-1
 524 -439 l 2,0,1
759 234 m 1,42,-1
 759 802 l 1,43,44
 676 867 676 867 571 867 c 0,45,46
 384 867 384 867 314 686 c 0,47,48
 288 617 288 617 288 512 c 128,-1,49
 288 407 288 407 311 335.5 c 128,-1,50
 334 264 334 264 369 219 c 0,51,52
 435 134 435 134 537 134 c 128,-1,53
 639 134 639 134 759 234 c 1,42,-1
EndSplineSet
EndChar

StartChar: r
Encoding: 114 114 85
Width: 901
Flags: W
HStem: 0 141<65.9834 251 446 697.047> 734 286.5<660.76 850.418> 843 177.5<62.3007 251> 843 157.5<62.3007 249.051> 843 139<38.4375 249.051>
VStem: 251 195<147.104 665>
LayerCount: 2
Fore
SplineSet
423 947 m 1,0,-1
 422 907 l 2,1,2
 422 895 422 895 421.5 883 c 128,-1,3
 421 871 421 871 421 861 c 1,4,5
 538 968 538 968 656 1008 c 0,6,7
 694 1020 694 1020 734.5 1020.5 c 128,-1,8
 775 1021 775 1021 807 1005.5 c 128,-1,9
 839 990 839 990 858 968 c 0,10,11
 892 928 892 928 892 884.5 c 128,-1,12
 892 841 892 841 881 816 c 128,-1,13
 870 791 870 791 850 773 c 0,14,15
 808 734 808 734 766.5 734 c 128,-1,16
 725 734 725 734 703 745.5 c 128,-1,17
 681 757 681 757 664 775 c 0,18,19
 628 813 628 813 628 860 c 1,20,21
 570 833 570 833 539.5 798 c 0,22,23
 510 763 510 763 490 733 c 2,24,-1
 446 665 l 1,25,-1
 446 141 l 1,26,-1
 689 141 l 2,27,28
 712 141 712 141 712 80 c 0,29,30
 712 31 712 31 697.5 15.5 c 128,-1,31
 683 0 683 0 671 0 c 2,32,-1
 89 0 l 2,33,34
 61 0 61 0 61 63 c 0,35,36
 62 109 62 109 88 134 c 0,37,38
 96 141 96 141 123 141 c 128,-1,39
 150 141 150 141 178.5 143.5 c 128,-1,40
 207 146 207 146 223 151 c 0,41,42
 251 160 251 160 251 184 c 2,43,-1
 251 843 l 1,44,-1
 75 843 l 2,45,46
 36 843 36 843 36 921 c 0,47,48
 36 971 36 971 61.5 982 c 128,-1,49
 87 993 87 993 128 1000.5 c 0,50,51
 170 1008 170 1008 214 1012 c 0,52,53
 298 1020 298 1020 346.5 1020.5 c 128,-1,54
 395 1021 395 1021 404 1016 c 0,55,56
 414 1012 414 1012 418 1002 c 0,57,58
 424 990 424 990 423 947 c 1,0,-1
EndSplineSet
EndChar

StartChar: s
Encoding: 115 115 86
Width: 926
Flags: W
HStem: -20 154<347.717 613.802> 880 141<328.546 567.843>
VStem: 76 275.5<134.384 287.479> 94 184<666.749 829.078> 556 275<721.254 878.136> 662 185<181.687 359.982>
LayerCount: 2
Fore
SplineSet
347 134 m 1,0,-1
 461 134 l 2,1,2
 600 134 600 134 648 219 c 0,3,4
 662 245 662 245 662 276 c 128,-1,5
 662 307 662 307 647.5 329.5 c 128,-1,6
 633 352 633 352 602 371 c 0,7,8
 555 400 555 400 445.5 433.5 c 128,-1,9
 336 467 336 467 279 491.5 c 128,-1,10
 222 516 222 516 180 550 c 0,11,12
 94 622 94 622 94 748 c 0,13,14
 94 933 94 933 301 997 c 0,15,16
 379 1021 379 1021 454.5 1021 c 128,-1,17
 530 1021 530 1021 594.5 1011 c 0,18,19
 660 1001 660 1001 712 977 c 0,20,21
 832 922 832 922 831 818 c 0,22,23
 832 760 832 760 792 720 c 0,24,25
 754 682 754 682 694 681 c 256,26,27
 600 681 600 681 566 763 c 0,28,29
 556 788 556 788 556 804 c 128,-1,30
 556 820 556 820 568 880 c 1,31,-1
 469 880 l 2,32,33
 388 880 388 880 349 852 c 0,34,35
 278 803 278 803 278 744 c 256,36,37
 278 666 278 666 418 618 c 2,38,-1
 494 592 l 1,39,40
 687 528 687 528 742 483 c 128,-1,41
 797 438 797 438 822 385 c 128,-1,42
 847 332 847 332 847 263.5 c 128,-1,43
 847 195 847 195 820.5 145 c 0,44,45
 794 94 794 94 746 58 c 0,46,47
 643 -20 643 -20 478 -20 c 0,48,49
 332 -20 332 -20 216 24 c 0,50,51
 130 56 130 56 94 116 c 0,52,53
 76 146 76 146 76 180.5 c 128,-1,54
 76 215 76 215 86.5 240.5 c 0,55,56
 98 266 98 266 116 284 c 0,57,58
 155 322 155 322 214 322 c 256,59,60
 272 322 272 322 312 283 c 0,61,62
 352 245 352 245 351.5 195.5 c 128,-1,63
 351 146 351 146 347 134 c 1,0,-1
EndSplineSet
EndChar

StartChar: t
Encoding: 116 116 87
Width: 731
Flags: W
HStem: -20 165<319.141 620.013> 847 154<40.9225 215.931 412 681.749>
VStem: 217 195<149.067 847> 282 130<1191.32 1290.34>
LayerCount: 2
Fore
SplineSet
422 -20 m 0,0,1
 217 -20 217 -20 217 257 c 2,2,-1
 217 847 l 1,3,-1
 27 847 l 1,4,5
 27 957 27 957 40.5 979 c 128,-1,6
 54 1001 54 1001 70 1001 c 0,7,8
 202 1000 202 1000 228 1024 c 0,9,10
 238 1032 238 1032 239 1044 c 2,11,-1
 282 1265 l 2,12,13
 294 1320 294 1320 412 1320 c 1,14,-1
 412 1001 l 1,15,-1
 682 1001 l 2,16,17
 707 1001 707 1001 707 942 c 0,18,19
 706 884 706 884 682 856 c 0,20,21
 674 846 674 846 662 847 c 2,22,-1
 412 847 l 1,23,-1
 412 257 l 2,24,25
 412 145 412 145 478 145 c 0,26,27
 553 145 553 145 584.5 156.5 c 128,-1,28
 616 168 616 168 627.5 168 c 128,-1,29
 639 168 639 168 650.5 160.5 c 128,-1,30
 662 153 662 153 670 141 c 0,31,32
 687 115 687 115 687 87 c 256,33,34
 687 57 687 57 668 48 c 0,35,36
 539 -20 539 -20 422 -20 c 0,0,1
EndSplineSet
EndChar

StartChar: u
Encoding: 117 117 88
Width: 1234
Flags: W
HStem: -20 186<449.991 716.507> -16 157<1018 1205.7> 0 141<1018.15 1210.36> 847 174<672.331 823> 847 150<672.331 822.243> 847 131<23.1533 196.946 647.252 822.243>
VStem: 21 373<847.019 977.833> 199 195<222.677 847> 823 195<264 847>
LayerCount: 2
Fore
SplineSet
834 96 m 1,0,1
 675 -20 675 -20 547 -20 c 0,2,3
 295 -20 295 -20 223 182 c 0,4,5
 199 249 199 249 199 338 c 2,6,-1
 199 847 l 1,7,-1
 58 847 l 2,8,9
 21 847 21 847 21 923 c 0,10,11
 21 973 21 973 41 978 c 0,12,13
 209 1021 209 1021 348 1021 c 0,14,15
 392 1021 392 1021 394 941 c 0,16,17
 394 918 394 918 394 894 c 2,18,-1
 394 411 l 2,19,20
 394 216 394 216 494 178 c 0,21,22
 524 166 524 166 568.5 166 c 128,-1,23
 613 166 613 166 653.5 176 c 128,-1,24
 694 186 694 186 725.5 200.5 c 0,25,26
 756 215 756 215 780 232 c 2,27,-1
 823 264 l 1,28,-1
 823 847 l 1,29,-1
 686 847 l 2,30,31
 645 847 645 847 645 921 c 0,32,33
 645 968 645 968 671.5 978.5 c 128,-1,34
 698 989 698 989 736 997 c 0,35,36
 774 1004 774 1004 815 1010 c 0,37,38
 893 1020 893 1020 939.5 1020.5 c 128,-1,39
 986 1021 986 1021 996.5 1010 c 0,40,41
 1008 1000 1008 1000 1012 982 c 0,42,43
 1018 957 1018 957 1018 894 c 2,44,-1
 1018 141 l 1,45,-1
 1186 141 l 2,46,47
 1213 141 1213 141 1213 76 c 0,48,49
 1213 6 1213 6 1172 0 c 0,50,51
 1070 -16 1070 -16 990 -16 c 128,-1,52
 910 -16 910 -16 896.5 -8.5 c 0,53,54
 882 0 882 0 872 14 c 0,55,56
 856 36 856 36 834 96 c 1,0,1
EndSplineSet
EndChar

StartChar: v
Encoding: 118 118 89
Width: 1096
Flags: W
HStem: 860 141<18.4368 142 373.021 486.532 669.921 813 963.002 1067.75>
LayerCount: 2
Fore
SplineSet
1067 1001 m 2,0,1
 1092 1001 1092 1001 1092 944 c 0,2,3
 1092 892 1092 892 1068 868 c 0,4,5
 1060 860 1060 860 1043.5 860 c 128,-1,6
 1027 860 1027 860 1012 857.5 c 0,7,8
 998 856 998 856 988 850 c 0,9,10
 972 841 972 841 963 817 c 2,11,-1
 629 0 l 2,12,13
 622 -18 622 -18 589.5 -19 c 0,14,15
 558 -20 558 -20 542 -20 c 0,16,17
 486 -20 486 -20 477 0 c 2,18,-1
 142 860 l 1,19,-1
 30 860 l 2,20,21
 4 860 4 860 4 920 c 0,22,23
 4 969 4 969 18 985 c 128,-1,24
 32 1001 32 1001 43 1001 c 2,25,-1
 477 1001 l 2,26,27
 502 1001 502 1001 502 944 c 0,28,29
 502 892 502 892 487 876 c 128,-1,30
 472 860 472 860 461 860 c 0,31,32
 373 860 373 860 373 817 c 1,33,-1
 571 268 l 1,34,-1
 813 860 l 1,35,-1
 682 860 l 2,36,37
 656 860 656 860 656 918 c 0,38,39
 656 970 656 970 669.5 985.5 c 128,-1,40
 683 1001 683 1001 692 1001 c 2,41,-1
 1067 1001 l 2,0,1
EndSplineSet
EndChar

StartChar: w
Encoding: 119 119 90
Width: 1563
Flags: W
HStem: 860 141<23.4673 162 377 490.532 1133.92 1277 1436.51 1553.31>
LayerCount: 2
Fore
SplineSet
1531 1001 m 2,0,1
 1555 1001 1555 1001 1555 930.5 c 128,-1,2
 1555 860 1555 860 1515 860 c 0,3,4
 1452 860 1452 860 1436 836 c 0,5,6
 1430 828 1430 828 1427 817 c 2,7,-1
 1183 0 l 2,8,9
 1176 -20 1176 -20 1115 -20 c 0,10,11
 1043 -20 1043 -20 1036 0 c 2,12,-1
 801 587 l 1,13,-1
 562 0 l 2,14,15
 555 -17 555 -17 524.5 -18.5 c 128,-1,16
 494 -20 494 -20 484.5 -20 c 128,-1,17
 475 -20 475 -20 462 -19.5 c 0,18,19
 448 -20 448 -20 436 -18 c 0,20,21
 406 -14 406 -14 403 0 c 2,22,-1
 162 860 l 1,23,-1
 33 860 l 2,24,25
 8 860 8 860 8 921 c 0,26,27
 8 969 8 969 23 985 c 128,-1,28
 38 1001 38 1001 47 1001 c 2,29,-1
 481 1001 l 2,30,31
 506 1001 506 1001 506 944 c 0,32,33
 506 892 506 892 491 876 c 128,-1,34
 476 860 476 860 465 860 c 0,35,36
 377 860 377 860 377 817 c 1,37,-1
 513 216 l 1,38,-1
 762 906 l 1,39,40
 771 925 771 925 812 925 c 256,41,42
 856 925 856 925 864 907 c 1,43,-1
 1118 202 l 1,44,-1
 1277 860 l 1,45,-1
 1146 860 l 2,46,47
 1120 860 1120 860 1120 919 c 0,48,49
 1120 968 1120 968 1133.5 984.5 c 128,-1,50
 1147 1001 1147 1001 1156 1001 c 2,51,-1
 1531 1001 l 2,0,1
EndSplineSet
EndChar

StartChar: x
Encoding: 120 120 91
Width: 1174
Flags: W
HStem: 0 141<39.6274 209.312 367.004 452.532 674.25 771 955.828 1123.53> 860 141<57.952 192 436.016 526.017 699.921 836 980.007 1114.53>
LayerCount: 2
Fore
SplineSet
1113 141 m 0,0,1
 1139 141 1139 141 1139 80 c 0,2,3
 1139 32 1139 32 1124 16 c 128,-1,4
 1109 0 1109 0 1098 0 c 2,5,-1
 673 0 l 2,6,7
 646 0 646 0 646 61 c 0,8,9
 646 108 646 108 674 134 c 0,10,11
 682 141 682 141 688 141 c 2,12,-1
 771 141 l 1,13,-1
 550 415 l 1,14,-1
 374 171 l 2,15,16
 367 161 367 161 367 154 c 256,17,18
 367 141 367 141 385 141 c 2,19,-1
 442 141 l 2,20,21
 468 141 468 141 468 81 c 0,22,23
 468 32 468 32 453 16 c 128,-1,24
 438 0 438 0 427 0 c 2,25,-1
 61 0 l 2,26,27
 35 0 35 0 35 61 c 0,28,29
 35 108 35 108 61 134 c 0,30,31
 68 141 68 141 99 141 c 128,-1,32
 130 141 130 141 166 158 c 128,-1,33
 202 175 202 175 219 196 c 2,34,-1
 465 520 l 1,35,-1
 192 860 l 1,36,-1
 70 860 l 2,37,38
 43 860 43 860 43 918 c 0,39,40
 43 968 43 968 57.5 984.5 c 128,-1,41
 72 1001 72 1001 82 1001 c 2,42,-1
 519 1001 l 2,43,44
 542 1001 542 1001 542 944 c 0,45,46
 542 891 542 891 526.5 875.5 c 128,-1,47
 511 860 511 860 500 860 c 0,48,49
 436 860 436 860 436 842 c 0,50,51
 436 835 436 835 443 826 c 2,52,-1
 633 588 l 1,53,-1
 836 860 l 1,54,-1
 712 860 l 2,55,56
 686 860 686 860 686 919 c 0,57,58
 686 970 686 970 699.5 985.5 c 128,-1,59
 713 1001 713 1001 722 1001 c 2,60,-1
 1106 1001 l 2,61,62
 1130 1001 1130 1001 1130 943 c 0,63,64
 1130 892 1130 892 1115 876 c 128,-1,65
 1100 860 1100 860 1090 860 c 0,66,67
 1014 860 1014 860 980 817 c 2,68,-1
 715 486 l 1,69,-1
 945 197 l 2,70,71
 986 148 986 148 1064 142 c 0,72,73
 1088 140 1088 140 1113 141 c 0,0,1
EndSplineSet
EndChar

StartChar: y
Encoding: 121 121 92
Width: 1098
Flags: W
HStem: -440 154<317 377.569> 860 141<20.4368 144 375.021 488.017 671.921 815 965.002 1069.75>
VStem: 45.5 271.5<-285.87 -160.109>
LayerCount: 2
Fore
SplineSet
1069 1001 m 2,0,1
 1094 1001 1094 1001 1094 944 c 0,2,3
 1094 892 1094 892 1070 868 c 0,4,5
 1062 860 1062 860 1045.5 860 c 128,-1,6
 1029 860 1029 860 1014 857.5 c 0,7,8
 1000 856 1000 856 990 850 c 0,9,10
 974 841 974 841 965 817 c 2,11,-1
 543 -260 l 2,12,13
 511 -343 511 -343 439 -391.5 c 128,-1,14
 367 -440 367 -440 262 -440 c 0,15,16
 122 -440 122 -440 66 -348 c 0,17,18
 46 -314 46 -314 45.5 -275 c 128,-1,19
 45 -236 45 -236 55.5 -210.5 c 0,20,21
 66 -184 66 -184 84 -166 c 0,22,23
 124 -126 124 -126 172.5 -126.5 c 128,-1,24
 221 -127 221 -127 247 -140.5 c 0,25,26
 272 -154 272 -154 288 -176 c 0,27,28
 316 -217 316 -217 317 -286 c 1,29,30
 349 -286 349 -286 372.5 -250 c 128,-1,31
 396 -214 396 -214 413.5 -173 c 128,-1,32
 431 -132 431 -132 443.5 -95.5 c 128,-1,33
 456 -59 456 -59 464.5 -31 c 128,-1,34
 473 -3 473 -3 476 6 c 1,35,-1
 144 860 l 1,36,-1
 32 860 l 2,37,38
 6 860 6 860 6 920 c 0,39,40
 6 969 6 969 20 985 c 128,-1,41
 34 1001 34 1001 45 1001 c 2,42,-1
 479 1001 l 2,43,44
 504 1001 504 1001 504 944 c 0,45,46
 504 893 504 893 488.5 876.5 c 128,-1,47
 473 860 473 860 463 860 c 0,48,49
 375 860 375 860 375 817 c 1,50,-1
 578 223 l 1,51,-1
 815 860 l 1,52,-1
 684 860 l 2,53,54
 658 860 658 860 658 918 c 0,55,56
 658 970 658 970 671.5 985.5 c 128,-1,57
 685 1001 685 1001 694 1001 c 2,58,-1
 1069 1001 l 2,0,1
EndSplineSet
EndChar

StartChar: z
Encoding: 122 122 93
Width: 1007
Flags: W
HStem: 0 150<354 769> 699 302<123 235.469> 851 150<265 658>
VStem: 75 160<703.522 793.565>
LayerCount: 2
Fore
SplineSet
75 736 m 0,0,1
 75 739 75 739 79 759 c 2,2,-1
 123 1001 l 1,3,-1
 923 1001 l 1,4,-1
 923 890 l 1,5,-1
 354 150 l 1,6,-1
 769 150 l 1,7,-1
 816 259 l 2,8,9
 826 280 826 280 851 280 c 128,-1,10
 876 280 876 280 889.5 277 c 0,11,12
 902 274 902 274 914 268 c 0,13,14
 940 256 940 256 940 238 c 0,15,16
 940 233 940 233 939 231 c 2,17,-1
 867 0 l 1,18,-1
 89 0 l 1,19,-1
 89 110 l 1,20,-1
 658 851 l 1,21,-1
 265 851 l 1,22,-1
 235 741 l 2,23,24
 224 699 224 699 149.5 699 c 128,-1,25
 75 699 75 699 75 736 c 0,0,1
EndSplineSet
EndChar

StartChar: braceleft
Encoding: 123 123 94
Width: 667
Flags: W
HStem: -160 141<423.582 663.845> 611 139<63.593 177.456> 1530 141<428.946 663.66>
VStem: 206 195<6.3374 567.33 783.103 1500.93>
LayerCount: 2
Fore
SplineSet
637 -19 m 2,0,1
 665 -19 665 -19 665 -89.5 c 128,-1,2
 665 -160 665 -160 637 -160 c 2,3,-1
 473 -160 l 2,4,5
 334 -160 334 -160 272 -94 c 0,6,7
 206 -23 206 -23 206 150 c 2,8,-1
 206 471 l 2,9,10
 206 547 206 547 189 568 c 0,11,12
 162 601 162 601 91 611 c 0,13,14
 62 615 62 615 62 683 c 0,15,16
 62 744 62 744 91 750 c 1,17,18
 161 760 161 760 178 782 c 0,19,20
 206 817 206 817 206 891 c 2,21,-1
 206 1352 l 2,22,23
 206 1603 206 1603 356 1654 c 0,24,25
 406 1671 406 1671 473 1671 c 2,26,-1
 637 1671 l 2,27,28
 665 1671 665 1671 665 1602 c 256,29,30
 665 1530 665 1530 637 1530 c 2,31,-1
 558 1530 l 2,32,33
 458 1530 458 1530 426 1482 c 0,34,35
 401 1445 401 1445 401 1346 c 2,36,-1
 401 903 l 2,37,38
 402 778 402 778 304 716 c 0,39,40
 270 694 270 694 221 682 c 1,41,42
 401 630 401 630 401 457 c 2,43,-1
 401 157 l 2,44,45
 400 57 400 57 420 30 c 0,46,47
 455 -19 455 -19 558 -19 c 2,48,-1
 637 -19 l 2,0,1
EndSplineSet
EndChar

StartChar: bar
Encoding: 124 124 95
Width: 516
Flags: W
VStem: 181 154<-481.25 1634.25>
LayerCount: 2
Fore
SplineSet
335 -455 m 2,0,1
 335 -483 335 -483 258 -483 c 128,-1,2
 181 -483 181 -483 181 -455 c 2,3,-1
 181 1608 l 2,4,5
 181 1636 181 1636 258 1636 c 128,-1,6
 335 1636 335 1636 335 1608 c 2,7,-1
 335 -455 l 2,0,1
EndSplineSet
EndChar

StartChar: braceright
Encoding: 125 125 96
Width: 667
Flags: W
HStem: -160 141<3.15527 241.859> 609 141<482.378 594.169> 1530 141<3.33984 238.509>
VStem: 266 195<8.00903 573.144 795.669 1500.88>
LayerCount: 2
Fore
SplineSet
2 1602 m 256,0,1
 2 1671 2 1671 30 1671 c 2,2,-1
 194 1671 l 2,3,4
 330 1672 330 1672 394 1600 c 0,5,6
 460 1526 460 1526 461 1352 c 2,7,-1
 461 891 l 2,8,9
 460 816 460 816 478 795 c 0,10,11
 506 760 506 760 576 750 c 1,12,13
 605 744 605 744 605 683 c 0,14,15
 605 641 605 641 594.5 626.5 c 128,-1,16
 584 612 584 612 562 609 c 128,-1,17
 540 606 540 606 517.5 597.5 c 0,18,19
 494 590 494 590 482 574 c 0,20,21
 460 547 460 547 461 471 c 2,22,-1
 461 150 l 2,23,24
 461 -100 461 -100 311 -145 c 0,25,26
 261 -160 261 -160 194 -160 c 2,27,-1
 30 -160 l 2,28,29
 2 -160 2 -160 2 -89.5 c 128,-1,30
 2 -19 2 -19 30 -19 c 2,31,-1
 109 -19 l 2,32,33
 210 -20 210 -20 242 24 c 0,34,35
 266 57 266 57 266 157 c 2,36,-1
 266 457 l 2,37,38
 266 629 266 629 446 682 c 1,39,40
 266 727 266 727 266 903 c 2,41,-1
 266 1346 l 2,42,43
 266 1446 266 1446 246 1476 c 0,44,45
 209 1530 209 1530 109 1530 c 2,46,-1
 30 1530 l 2,47,48
 2 1530 2 1530 2 1602 c 256,0,1
EndSplineSet
EndChar

StartChar: asciitilde
Encoding: 126 126 97
Width: 1218
Flags: W
HStem: 442 168<693.612 938.741> 574.5 181.5<267.056 531.476>
LayerCount: 2
Fore
SplineSet
203 465 m 1,0,1
 166 466 166 466 144 486 c 0,2,3
 109 520 109 520 109 557 c 1,4,5
 174 676 174 676 288 732 c 0,6,7
 336 756 336 756 380.5 756 c 128,-1,8
 425 756 425 756 462 745 c 128,-1,9
 499 734 499 734 540.5 718 c 128,-1,10
 582 702 582 702 625.5 683 c 0,11,12
 670 664 670 664 710 648 c 0,13,14
 806 610 806 610 841 610 c 128,-1,15
 876 610 876 610 901 625.5 c 128,-1,16
 926 641 926 641 947 662.5 c 128,-1,17
 968 684 968 684 985 705.5 c 128,-1,18
 1002 727 1002 727 1016 739 c 1,19,20
 1054 739 1054 739 1076 718 c 0,21,22
 1114 682 1114 682 1114 647 c 1,23,24
 1060 526 1060 526 946 467 c 0,25,26
 898 442 898 442 849.5 442 c 128,-1,27
 801 442 801 442 760 452 c 128,-1,28
 719 462 719 462 675.5 476.5 c 0,29,30
 632 490 632 490 588 508 c 2,31,-1
 504 540 l 1,32,33
 410 574 410 574 374.5 574.5 c 128,-1,34
 339 575 339 575 312.5 561 c 128,-1,35
 286 547 286 547 265 529 c 128,-1,36
 244 511 244 511 229 492.5 c 128,-1,37
 214 474 214 474 203 465 c 1,0,1
EndSplineSet
EndChar

StartChar: exclamdown
Encoding: 161 161 99
Width: 568
Flags: W
HStem: -439 21G<229.75 321.25> 761 279<181.141 385.929>
VStem: 150 266<-427.719 -241.614 793.852 1007.15> 200 169<300.574 620.797>
LayerCount: 2
Fore
SplineSet
409 956 m 0,0,1
 419 930 419 930 419 900.5 c 128,-1,2
 419 871 419 871 409 845.5 c 0,3,4
 400 820 400 820 382 801 c 0,5,6
 345 761 345 761 286 761 c 256,7,8
 228 761 228 761 186 801 c 128,-1,9
 144 841 144 841 144 886 c 128,-1,10
 144 931 144 931 155 956.5 c 128,-1,11
 166 982 166 982 186 1000 c 0,12,13
 228 1040 228 1040 286 1040 c 256,14,15
 376 1040 376 1040 409 956 c 0,0,1
283 626 m 0,16,17
 369 626 369 626 369 582 c 1,18,-1
 416 -409 l 1,19,20
 367 -439 367 -439 275.5 -439 c 128,-1,21
 184 -439 184 -439 150 -407 c 1,22,-1
 200 585 l 1,23,24
 200 612 200 612 254 623 c 0,25,26
 268 626 268 626 283 626 c 0,16,17
EndSplineSet
EndChar

StartChar: cent
Encoding: 162 162 100
Width: 1002
Flags: W
HStem: -27 355.5<468.258 607.214> 1075 139<406.997 467 608 637.868>
VStem: 65 205<467.203 920.199> 467 141<-24.093 180.606 1210.39 1428.88> 629 263.5<926.193 1073.88>
LayerCount: 2
Fore
SplineSet
467 1403 m 1,0,1
 496 1432 496 1432 537.5 1432 c 128,-1,2
 579 1432 579 1432 608 1403 c 1,3,-1
 608 1214 l 1,4,5
 804 1202 804 1202 876 1108 c 0,6,7
 902 1074 902 1074 902.5 1033.5 c 128,-1,8
 903 993 903 993 892.5 968 c 128,-1,9
 882 943 882 943 864 925 c 0,10,11
 824 886 824 886 766 886 c 256,12,13
 708 886 708 886 668 925 c 0,14,15
 628 963 628 963 629 1023 c 0,16,17
 629 1039 629 1039 638 1075 c 1,18,-1
 545 1075 l 2,19,20
 441 1075 441 1075 366 996 c 0,21,22
 270 895 270 895 270 705 c 0,23,24
 270 426 270 426 425 352 c 0,25,26
 474 328 474 328 525 328.5 c 128,-1,27
 576 329 576 329 617 340 c 128,-1,28
 658 351 658 351 697 368.5 c 128,-1,29
 736 386 736 386 772 408 c 2,30,-1
 844 451 l 2,31,32
 848 454 848 454 857.5 454 c 128,-1,33
 867 454 867 454 881 442.5 c 0,34,35
 894 430 894 430 906 414 c 0,36,37
 932 376 932 376 932.5 351.5 c 128,-1,38
 933 327 933 327 914.5 312.5 c 128,-1,39
 896 298 896 298 864.5 277.5 c 0,40,41
 832 257 832 257 794 238 c 0,42,43
 706 195 706 195 608 182 c 1,44,-1
 608 0 l 1,45,46
 583 -27 583 -27 538.5 -27 c 128,-1,47
 494 -27 494 -27 467 0 c 1,48,-1
 467 176 l 1,49,50
 275 190 275 190 169 333 c 0,51,52
 65 474 65 474 65 705 c 0,53,54
 65 918 65 918 180 1054 c 0,55,56
 286 1179 286 1179 467 1209 c 1,57,-1
 467 1403 l 1,0,1
EndSplineSet
EndChar

StartChar: sterling
Encoding: 163 163 101
Width: 1164
Flags: W
HStem: -20 310<107.411 344.844> -20 154<531.928 879.608> 606 154<119.672 388 599 886.048> 1345 180<639.009 921.06>
VStem: 388 211<319.323 606 760 1298.2> 966 139<209.093 296.401>
LayerCount: 2
Fore
SplineSet
499 190 m 1,0,1
 648 134 648 134 750 134 c 0,2,3
 833 134 833 134 864 153 c 0,4,5
 919 187 919 187 966 282 c 0,6,7
 978 305 978 305 1004 305 c 128,-1,8
 1030 305 1030 305 1045 301 c 0,9,10
 1060 298 1060 298 1072 290 c 0,11,12
 1101 273 1101 273 1105 247 c 1,13,14
 1040 37 1040 37 912 -6 c 0,15,16
 870 -20 870 -20 826.5 -20 c 128,-1,17
 783 -20 783 -20 733 -14.5 c 0,18,19
 682 -10 682 -10 626 0 c 0,20,21
 504 21 504 21 396 52 c 1,22,23
 383 46 383 46 362.5 34 c 128,-1,24
 342 22 342 22 318 10 c 0,25,26
 257 -20 257 -20 220 -20 c 128,-1,27
 183 -20 183 -20 155 -8.5 c 128,-1,28
 127 3 127 3 106 24 c 0,29,30
 61 69 61 69 61 134 c 256,31,32
 61 200 61 200 106 245 c 128,-1,33
 151 290 151 290 215 290 c 0,34,35
 267 290 267 290 301 270 c 2,36,-1
 347 244 l 1,37,38
 388 348 388 348 388 606 c 1,39,-1
 156 606 l 2,40,41
 128 606 128 606 118 657 c 0,42,43
 116 670 116 670 115.5 681.5 c 128,-1,44
 115 693 115 693 117.5 706.5 c 128,-1,45
 120 720 120 720 125 732 c 0,46,47
 137 760 137 760 156 760 c 2,48,-1
 388 760 l 1,49,-1
 388 1193 l 2,50,51
 388 1360 388 1360 506 1450 c 0,52,53
 605 1526 605 1526 747 1525 c 0,54,55
 912 1525 912 1525 986 1479 c 0,56,57
 1007 1465 1007 1465 1007 1420 c 256,58,59
 1006 1351 1006 1351 966 1309 c 0,60,61
 954 1296 954 1296 942 1296 c 128,-1,62
 930 1296 930 1296 900 1310 c 0,63,64
 826 1345 826 1345 738 1345 c 0,65,66
 670 1346 670 1346 638 1300 c 0,67,68
 598 1243 598 1243 599 1103 c 2,69,-1
 599 760 l 1,70,-1
 862 760 l 2,71,72
 888 760 888 760 898 709 c 0,73,74
 900 696 900 696 901 685 c 256,75,76
 901 639 901 639 886.5 622.5 c 128,-1,77
 872 606 872 606 862 606 c 2,78,-1
 599 606 l 1,79,80
 595 567 595 567 592 521.5 c 128,-1,81
 589 476 589 476 580 424 c 0,82,83
 559 302 559 302 499 190 c 1,0,1
EndSplineSet
EndChar

StartChar: currency
Encoding: 164 164 102
Width: 1184
Flags: W
HStem: 175 190<447.833 735.189> 938 183<447.851 734.476>
VStem: 133 200<487.442 815.09> 849 191<484.556 817.422>
LayerCount: 2
Fore
SplineSet
820 250 m 1,0,1
 709 175 709 175 587 175 c 128,-1,2
 465 175 465 175 359 244 c 1,3,-1
 246 126 l 1,4,5
 189 126 189 126 143 172 c 0,6,7
 99 216 99 216 99 267 c 1,8,-1
 215 384 l 1,9,10
 133 509 133 509 133 650.5 c 128,-1,11
 133 792 133 792 213 912 c 1,12,-1
 97 1028 l 1,13,14
 98 1087 98 1087 144 1130 c 0,15,16
 188 1171 188 1171 244 1171 c 1,17,-1
 360 1055 l 1,18,19
 463 1121 463 1121 586.5 1121 c 128,-1,20
 710 1121 710 1121 818 1048 c 1,21,-1
 940 1173 l 1,22,23
 996 1174 996 1174 1041 1132 c 0,24,25
 1087 1089 1087 1089 1087 1032 c 1,26,-1
 962 905 l 1,27,28
 1040 784 1040 784 1040 648.5 c 128,-1,29
 1040 513 1040 513 966 395 c 1,30,-1
 1089 271 l 1,31,32
 1089 218 1089 218 1042 172 c 0,33,34
 996 127 996 127 941 128 c 1,35,-1
 820 250 l 1,0,1
591 365 m 0,36,37
 650 365 650 365 697.5 387.5 c 128,-1,38
 745 410 745 410 779 449 c 0,39,40
 849 529 849 529 849 649 c 0,41,42
 849 773 849 773 779 853 c 0,43,44
 705 938 705 938 590 938 c 0,45,46
 478 938 478 938 404 853 c 0,47,48
 334 771 334 771 333 649 c 0,49,50
 334 531 334 531 404 449 c 0,51,52
 476 365 476 365 591 365 c 0,36,37
EndSplineSet
EndChar

StartChar: yen
Encoding: 165 165 103
Width: 1275
Flags: W
HStem: 0 141<360.25 541.544 757 956.532> 412 154<179.672 543 760 1092.69> 785 154<186.468 381 912 1092.69> 1364 141<73.4368 197 446.026 577.532 819.921 918 1068.54 1212.41>
VStem: 546 211<166.25 412>
LayerCount: 2
Fore
SplineSet
358 0 m 2,0,1
 333 0 333 0 333 57 c 0,2,3
 332 106 332 106 360 134 c 0,4,5
 368 142 368 142 376 141 c 2,6,-1
 437 141 l 2,7,8
 528 141 528 141 542 166 c 0,9,10
 546 174 546 174 546 184 c 2,11,-1
 546 412 l 1,12,-1
 216 412 l 2,13,14
 188 412 188 412 178 464 c 0,15,16
 176 477 176 477 175.5 488.5 c 128,-1,17
 175 500 175 500 177.5 513.5 c 0,18,19
 180 526 180 526 185 538 c 0,20,21
 197 566 197 566 216 566 c 2,22,-1
 543 566 l 1,23,-1
 448 785 l 1,24,-1
 212 785 l 2,25,26
 184 785 184 785 174 837 c 0,27,28
 172 850 172 850 171 861 c 256,29,30
 171 907 171 907 186 923 c 128,-1,31
 201 939 201 939 212 939 c 2,32,-1
 381 939 l 1,33,-1
 197 1364 l 1,34,-1
 85 1364 l 2,35,36
 59 1364 59 1364 59 1424 c 0,37,38
 59 1473 59 1473 73 1489 c 128,-1,39
 87 1505 87 1505 98 1505 c 2,40,-1
 568 1505 l 2,41,42
 593 1505 593 1505 593 1448 c 0,43,44
 593 1396 593 1396 578 1380 c 128,-1,45
 563 1364 563 1364 552 1364 c 0,46,47
 446 1364 446 1364 446 1329 c 0,48,49
 446 1325 446 1325 452 1307 c 1,50,-1
 679 782 l 1,51,-1
 918 1364 l 1,52,-1
 832 1364 l 2,53,54
 806 1364 806 1364 806 1422 c 0,55,56
 806 1474 806 1474 819.5 1489.5 c 128,-1,57
 833 1505 833 1505 842 1505 c 2,58,-1
 1192 1505 l 2,59,60
 1217 1505 1217 1505 1217 1448 c 0,61,62
 1217 1396 1217 1396 1193 1372 c 0,63,64
 1184 1364 1184 1364 1156 1364 c 0,65,66
 1085 1364 1085 1364 1068 1321 c 2,67,-1
 912 939 l 1,68,-1
 1058 939 l 2,69,70
 1084 939 1084 939 1094 888 c 0,71,72
 1096 875 1096 875 1096.5 864 c 128,-1,73
 1097 853 1097 853 1094.5 839 c 128,-1,74
 1092 825 1092 825 1088 813 c 0,75,76
 1078 785 1078 785 1058 785 c 2,77,-1
 849 785 l 1,78,-1
 760 566 l 1,79,-1
 1058 566 l 2,80,81
 1084 566 1084 566 1094 516 c 0,82,83
 1096 503 1096 503 1096.5 491.5 c 128,-1,84
 1097 480 1097 480 1094.5 466 c 128,-1,85
 1092 452 1092 452 1088 440 c 0,86,87
 1078 412 1078 412 1058 412 c 2,88,-1
 757 412 l 1,89,-1
 757 141 l 1,90,-1
 946 141 l 2,91,92
 972 141 972 141 972 80 c 0,93,94
 972 32 972 32 957 16 c 128,-1,95
 942 0 942 0 931 0 c 2,96,-1
 358 0 l 2,0,1
EndSplineSet
EndChar

StartChar: brokenbar
Encoding: 166 166 104
Width: 522
Flags: W
VStem: 184 154<-481.25 516 694 1634.25>
LayerCount: 2
Fore
SplineSet
184 1608 m 2,0,1
 184 1636 184 1636 261 1636 c 128,-1,2
 338 1636 338 1636 338 1608 c 2,3,-1
 338 694 l 1,4,-1
 184 694 l 1,5,-1
 184 1608 l 2,0,1
338 -455 m 2,6,7
 338 -483 338 -483 261 -483 c 128,-1,8
 184 -483 184 -483 184 -455 c 2,9,-1
 184 516 l 1,10,-1
 338 516 l 1,11,-1
 338 -455 l 2,6,7
EndSplineSet
EndChar

StartChar: section
Encoding: 167 167 105
Width: 1148
Flags: W
HStem: -375 153<348.266 717.329> 1144 368<783.328 957.062> 1429 154<415.133 765.757>
VStem: 67 307<-186.56 14.5579> 102 211<681.653 851.841 1101.38 1337.1> 738 307<1189.44 1391.13> 849 211<-101.524 141.896 385.502 556.165>
LayerCount: 2
Fore
SplineSet
768 1393 m 1,0,1
 709 1429 709 1429 626.5 1429 c 128,-1,2
 544 1429 544 1429 489 1414.5 c 128,-1,3
 434 1400 434 1400 395 1372 c 0,4,5
 312 1312 312 1312 312 1208 c 0,6,7
 312 1128 312 1128 400 1064 c 0,8,9
 442 1032 442 1032 502 1002 c 2,10,-1
 638 932 l 1,11,12
 859 822 859 822 949 733 c 0,13,14
 1060 624 1060 624 1060 476 c 1,15,-1
 1059 476 l 1,16,17
 1059 392 1059 392 1000 238 c 1,18,19
 1060 147 1060 147 1060 47.5 c 128,-1,20
 1060 -52 1060 -52 1022 -128.5 c 0,21,22
 984 -206 984 -206 916 -260 c 0,23,24
 772 -376 772 -376 551 -375 c 0,25,26
 381 -375 381 -375 236 -304 c 0,27,28
 67 -221 67 -221 67 -95 c 0,29,30
 67 -29 67 -29 112 16 c 128,-1,31
 157 61 157 61 221 61 c 256,32,33
 286 61 286 61 330 16 c 0,34,35
 374 -30 374 -30 374 -95 c 0,36,37
 374 -125 374 -125 362.5 -149 c 128,-1,38
 351 -173 351 -173 346 -187 c 1,39,40
 411 -222 411 -222 507 -222 c 128,-1,41
 603 -222 603 -222 661 -202.5 c 0,42,43
 718 -183 718 -183 760 -149 c 0,44,45
 848 -76 848 -76 849 34 c 0,46,47
 850 152 850 152 644 260 c 1,48,-1
 375 396 l 1,49,50
 102 540 102 540 102 773 c 0,51,52
 102 863 102 863 140 952 c 1,53,-1
 161 1001 l 1,54,55
 101 1092 101 1092 101 1196.5 c 128,-1,56
 101 1301 101 1301 142 1372.5 c 0,57,58
 184 1444 184 1444 252 1491 c 0,59,60
 386 1583 386 1583 597 1583 c 0,61,62
 752 1582 752 1582 888 1512 c 0,63,64
 1046 1431 1046 1431 1045 1298 c 0,65,66
 1044 1234 1044 1234 1000 1188 c 0,67,68
 957 1144 957 1144 892 1144 c 256,69,70
 827 1144 827 1144 783 1188 c 0,71,72
 738 1233 738 1233 738 1283 c 128,-1,73
 738 1333 738 1333 768 1393 c 1,0,1
843 384 m 1,74,75
 849 408 849 408 849 451 c 128,-1,76
 849 494 849 494 821 535.5 c 128,-1,77
 793 577 793 577 747.5 613.5 c 128,-1,78
 702 650 702 650 643 682 c 2,79,-1
 318 853 l 1,80,81
 313 825 313 825 313 789 c 128,-1,82
 313 753 313 753 334.5 714.5 c 128,-1,83
 356 676 356 676 398 640 c 0,84,85
 470 577 470 577 632 493 c 2,86,-1
 843 384 l 1,74,75
EndSplineSet
EndChar

StartChar: dieresis
Encoding: 168 168 106
Width: 1065
Flags: W
HStem: 1190 276<216.166 415.66 662.694 862.746>
VStem: 178 273<1230.22 1430.44> 631 272<1222.03 1424.81>
LayerCount: 2
Fore
SplineSet
178 1327 m 256,0,1
 178 1422 178 1422 258 1456 c 0,2,3
 282 1466 282 1466 312 1466 c 128,-1,4
 342 1466 342 1466 367.5 1455.5 c 0,5,6
 394 1444 394 1444 412 1426 c 0,7,8
 452 1386 452 1386 451 1327 c 256,9,10
 452 1268 452 1268 412 1228 c 0,11,12
 374 1190 374 1190 328 1190 c 0,13,14
 252 1190 252 1190 215 1229 c 128,-1,15
 178 1268 178 1268 178 1327 c 256,0,1
766 1190 m 256,16,17
 674 1190 674 1190 641 1272 c 0,18,19
 631 1297 631 1297 631 1327 c 256,20,21
 631 1422 631 1422 711 1456 c 0,22,23
 736 1466 736 1466 766 1466 c 256,24,25
 824 1466 824 1466 864 1426 c 0,26,27
 902 1388 902 1388 903 1327 c 256,28,29
 903 1233 903 1233 821 1200 c 0,30,31
 796 1190 796 1190 766 1190 c 256,16,17
EndSplineSet
EndChar

StartChar: copyright
Encoding: 169 169 107
Width: 1686
Flags: W
HStem: -20 118<605.115 1084.4> 223 153.5<692.948 1003.26> 1113 154<702.034 930.211> 1407 118<608.303 1084.16>
VStem: 67 131<509.188 991.634> 365 205<515.426 967.44> 929 274<977.193 1102.72> 1488 131<506.355 996.496>
LayerCount: 2
Fore
SplineSet
67 752 m 256,0,1
 66 963 66 963 172 1143 c 0,2,3
 275 1318 275 1318 451 1420 c 0,4,5
 632 1525 632 1525 843 1525 c 256,6,7
 1054 1525 1054 1525 1235 1420 c 0,8,9
 1412 1318 1412 1318 1514 1143 c 0,10,11
 1620 963 1620 963 1619 752 c 256,12,13
 1620 541 1620 541 1514 361 c 0,14,15
 1412 188 1412 188 1235 85 c 0,16,17
 1054 -20 1054 -20 843 -20 c 256,18,19
 522 -20 522 -20 294 205 c 0,20,21
 150 347 150 347 94 546 c 0,22,23
 66 645 66 645 67 752 c 256,0,1
247.5 1007 m 128,-1,25
 198 888 198 888 198 751.5 c 128,-1,26
 198 615 198 615 247.5 496 c 128,-1,27
 297 377 297 377 384 288.5 c 128,-1,28
 471 200 471 200 589 149 c 128,-1,29
 707 98 707 98 843 98 c 256,30,31
 1114 98 1114 98 1301 288 c 128,-1,32
 1488 478 1488 478 1488 752 c 0,33,34
 1488 1024 1488 1024 1301 1215 c 0,35,36
 1113 1407 1113 1407 843 1407 c 256,37,38
 707 1407 707 1407 589 1355.5 c 128,-1,39
 471 1304 471 1304 384 1215 c 128,-1,24
 297 1126 297 1126 247.5 1007 c 128,-1,25
931 1103 m 1,40,41
 894 1113 894 1113 848.5 1113 c 128,-1,42
 803 1113 803 1113 755 1096.5 c 128,-1,43
 707 1080 707 1080 666 1039 c 0,44,45
 570 943 570 943 570 753 c 0,46,47
 570 474 570 474 725 400 c 0,48,49
 774 376 774 376 825 376.5 c 128,-1,50
 876 377 876 377 917 388 c 128,-1,51
 958 399 958 399 997 416.5 c 128,-1,52
 1036 434 1036 434 1072 456 c 2,53,-1
 1144 499 l 1,54,55
 1198 484 1198 484 1220 426 c 0,56,57
 1226 408 1226 408 1226 396 c 0,58,59
 1226 378 1226 378 1222 366 c 1,60,61
 1045 223 1045 223 806 223 c 0,62,63
 598 223 598 223 480 368 c 0,64,65
 366 508 366 508 365 753 c 0,66,67
 365 994 365 994 510 1135 c 0,68,69
 646 1267 646 1267 857 1267 c 0,70,71
 1083 1266 1083 1266 1170 1168 c 0,72,73
 1203 1130 1203 1130 1203 1087 c 128,-1,74
 1203 1044 1203 1044 1192.5 1019 c 128,-1,75
 1182 994 1182 994 1164 976 c 0,76,77
 1124 937 1124 937 1066 937 c 256,78,79
 1008 937 1008 937 968 976 c 0,80,81
 928 1014 928 1014 929 1074 c 2,82,-1
 929 1088 l 2,83,84
 929 1094 929 1094 931 1103 c 1,40,41
EndSplineSet
EndChar

StartChar: ordfeminine
Encoding: 170 170 108
Width: 915
Flags: W
HStem: 600 127<120.817 777.142> 862 100<270.556 480.276 664 784.109> 1160 97<284.652 541> 1435 89.5<327.253 496.647>
VStem: 131 129<981.146 1136.78> 161 172<1335.27 1430.5> 541 123<1013.12 1160 1257 1393.22>
LayerCount: 2
Fore
SplineSet
759 727 m 2,0,1
 779 728 779 728 787 686 c 0,2,3
 789 676 789 676 789 666 c 256,4,5
 789 627 789 627 777.5 613.5 c 128,-1,6
 766 600 766 600 759 600 c 2,7,-1
 150 600 l 2,8,9
 129 600 129 600 121 642 c 0,10,11
 119 652 119 652 119 662 c 128,-1,12
 119 672 119 672 121 683 c 0,13,14
 122 694 122 694 126 704 c 0,15,16
 134 727 134 727 150 727 c 2,17,-1
 759 727 l 2,0,1
326 1431 m 1,18,19
 333 1415 333 1415 333 1387 c 128,-1,20
 333 1359 333 1359 309 1334.5 c 128,-1,21
 285 1310 285 1310 247.5 1310 c 128,-1,22
 210 1310 210 1310 185.5 1334.5 c 128,-1,23
 161 1359 161 1359 161 1392 c 128,-1,24
 161 1425 161 1425 175 1445 c 128,-1,25
 189 1465 189 1465 212 1479.5 c 128,-1,26
 235 1494 235 1494 264 1503 c 0,27,28
 292 1512 292 1512 322 1516 c 0,29,30
 378 1524 378 1524 435.5 1524.5 c 128,-1,31
 493 1525 493 1525 538.5 1504.5 c 128,-1,32
 584 1484 584 1484 612 1450 c 0,33,34
 664 1387 664 1387 664 1283 c 2,35,-1
 664 962 l 1,36,-1
 770 962 l 2,37,38
 786 962 786 962 786 934 c 0,39,40
 786 876 786 876 760 871 c 0,41,42
 720 862 720 862 604 862 c 0,43,44
 583 862 583 862 571 880 c 128,-1,45
 559 898 559 898 547 933 c 1,46,47
 492 889 492 889 380 866 c 0,48,49
 346 859 346 859 308 859 c 128,-1,50
 270 859 270 859 234 873 c 0,51,52
 198 888 198 888 175 912 c 0,53,54
 131 959 131 959 131 1024 c 128,-1,55
 131 1089 131 1089 150.5 1130 c 128,-1,56
 170 1171 170 1171 202 1199 c 0,57,58
 269 1257 269 1257 359 1257 c 2,59,-1
 541 1257 l 1,60,61
 541 1354 541 1354 498 1394.5 c 128,-1,62
 455 1435 455 1435 374 1435 c 0,63,64
 345 1435 345 1435 326 1431 c 1,18,19
269 1094 m 128,-1,66
 260 1075 260 1075 260 1052 c 128,-1,67
 260 1029 260 1029 267 1013.5 c 128,-1,68
 274 998 274 998 286 990 c 0,69,70
 306 976 306 976 340 975.5 c 128,-1,71
 374 975 374 975 402 981.5 c 128,-1,72
 430 988 430 988 457 998 c 0,73,74
 509 1016 509 1016 541 1037 c 1,75,-1
 541 1160 l 1,76,-1
 380 1160 l 2,77,78
 330 1160 330 1160 304 1136.5 c 128,-1,65
 278 1113 278 1113 269 1094 c 128,-1,66
EndSplineSet
EndChar

StartChar: guillemotleft
Encoding: 171 171 109
Width: 1186
Flags: W
LayerCount: 2
Fore
SplineSet
581 429 m 2,0,1
 542 460 542 460 542 513 c 256,2,3
 542 568 542 568 582 601 c 2,4,-1
 1003 935 l 1,5,6
 1035 935 1035 935 1056 913 c 0,7,8
 1093 874 1093 874 1093 840 c 1,9,-1
 786 535 l 1,10,-1
 1093 184 l 1,11,12
 1093 150 1093 150 1073 129 c 0,13,14
 1037 90 1037 90 1004 90 c 1,15,-1
 581 429 l 2,0,1
84 429 m 2,16,17
 43 462 43 462 43 502 c 0,18,19
 43 570 43 570 84 602 c 2,20,-1
 505 935 l 1,21,22
 535 935 535 935 556 913 c 0,23,24
 593 874 593 874 593 840 c 1,25,-1
 287 535 l 1,26,-1
 593 184 l 1,27,28
 593 150 593 150 574 128 c 0,29,30
 540 90 540 90 506 90 c 1,31,-1
 84 429 l 2,16,17
EndSplineSet
EndChar

StartChar: logicalnot
Encoding: 172 172 110
Width: 1119
Flags: W
HStem: 575 154<87.6724 851>
VStem: 851 154<260.952 575>
LayerCount: 2
Fore
SplineSet
933 729 m 2,0,1
 1005 729 1005 729 1005 645 c 2,2,-1
 1005 285 l 2,3,4
 1005 258 1005 258 955 248 c 0,5,6
 942 246 942 246 931 246 c 256,7,8
 884 246 884 246 867.5 260.5 c 128,-1,9
 851 275 851 275 851 285 c 2,10,-1
 851 575 l 1,11,-1
 124 575 l 2,12,13
 96 575 96 575 86 627 c 0,14,15
 84 640 84 640 83.5 651.5 c 128,-1,16
 83 663 83 663 85.5 676.5 c 128,-1,17
 88 690 88 690 93 702 c 0,18,19
 105 730 105 730 124 729 c 2,20,-1
 933 729 l 2,0,1
EndSplineSet
EndChar

StartChar: uni00AD
Encoding: 173 173 111
Width: 750
Flags: W
HStem: 513 176<165.564 670.048>
VStem: 162 520
LayerCount: 2
Fore
SplineSet
646 689 m 2,0,1
 672 690 672 690 682 630 c 0,2,3
 684 616 684 616 685 604 c 256,4,5
 685 552 685 552 670.5 532.5 c 128,-1,6
 656 513 656 513 646 513 c 2,7,-1
 200 513 l 2,8,9
 172 512 172 512 162 574 c 0,10,11
 160 588 160 588 159.5 600 c 128,-1,12
 159 612 159 612 161.5 627 c 128,-1,13
 164 642 164 642 169 656 c 0,14,15
 181 689 181 689 200 689 c 2,16,-1
 646 689 l 2,0,1
EndSplineSet
EndChar

StartChar: registered
Encoding: 174 174 112
Width: 1088
Flags: W
HStem: 505 99<371.28 717.126> 693 63<341.388 387.839 491 584.985> 930 71<491 543.187> 1195 63<331.01 393 491 619.908> 1359 97<371.943 716.105>
VStem: 68 108<801.659 1162.75> 393 98<760.126 930 1001 1191.9> 652 107<1015.73 1170.89> 913 107<803.209 1158.12>
LayerCount: 2
Fore
SplineSet
68 980 m 256,0,1
 68 1177 68 1177 207.5 1316.5 c 128,-1,2
 347 1456 347 1456 545 1456 c 0,3,4
 741 1456 741 1456 880.5 1316.5 c 128,-1,5
 1020 1177 1020 1177 1020 980 c 256,6,7
 1020 784 1020 784 880 644 c 0,8,9
 742 506 742 506 545 505 c 0,10,11
 346 506 346 506 208 644 c 0,12,13
 68 784 68 784 68 980 c 256,0,1
575 756 m 1,14,15
 585 752 585 752 585 725.5 c 128,-1,16
 585 699 585 699 570 693 c 1,17,-1
 350 693 l 1,18,19
 341 702 341 702 341 717 c 128,-1,20
 341 732 341 732 346.5 743.5 c 128,-1,21
 352 755 352 755 357 756 c 1,22,23
 383 756 383 756 388 760 c 128,-1,24
 393 764 393 764 393 773 c 2,25,-1
 393 1189 l 2,26,27
 393 1195 393 1195 388 1195 c 2,28,-1
 346 1195 l 1,29,30
 331 1199 331 1199 331 1225.5 c 128,-1,31
 331 1252 331 1252 341 1258 c 1,32,-1
 569 1258 l 2,33,34
 656 1258 656 1258 707.5 1216.5 c 128,-1,35
 759 1175 759 1175 759 1103 c 0,36,37
 759 988 759 988 645 947 c 1,38,-1
 754 779 l 2,39,40
 773 751 773 751 832 746 c 1,41,42
 913 850 913 850 913 981 c 0,43,44
 912 1138 912 1138 804 1248 c 0,45,46
 694 1359 694 1359 544 1359 c 256,47,48
 393 1359 393 1359 284 1248 c 0,49,50
 176 1138 176 1138 176 981 c 256,51,52
 176 826 176 826 284 714 c 0,53,54
 391 604 391 604 544 604 c 0,55,56
 679 604 679 604 781 693 c 1,57,-1
 738 693 l 2,58,59
 696 693 696 693 671 732 c 2,60,-1
 544 932 l 1,61,62
 518 930 518 930 491 930 c 1,63,-1
 491 756 l 1,64,-1
 575 756 l 1,14,15
491 1001 m 1,65,66
 576 1001 576 1001 602 1012 c 0,67,68
 652 1034 652 1034 652 1102 c 0,69,70
 652 1192 652 1192 491 1192 c 1,71,-1
 491 1001 l 1,65,66
EndSplineSet
EndChar

StartChar: macron
Encoding: 175 175 113
Width: 1065
Flags: W
HStem: 1237 134<192.562 859.531>
VStem: 192 668<1237 1371>
LayerCount: 2
Fore
SplineSet
208 1237 m 2,0,1
 192 1237 192 1237 192 1304 c 128,-1,2
 192 1371 192 1371 208 1371 c 2,3,-1
 845 1371 l 2,4,5
 856 1371 856 1371 858 1353.5 c 128,-1,6
 860 1336 860 1336 860 1286.5 c 128,-1,7
 860 1237 860 1237 845 1237 c 2,8,-1
 208 1237 l 2,0,1
EndSplineSet
EndChar

StartChar: degree
Encoding: 176 176 114
Width: 855
Flags: W
HStem: 785 154.5<295.9 560.619> 1347 157<301.261 554.996>
VStem: 67 160<1007.2 1270.65> 628 160<1005.91 1274.02>
LayerCount: 2
Fore
SplineSet
348 954 m 0,0,1
 384 940 384 940 427.5 939.5 c 128,-1,2
 471 939 471 939 508 953.5 c 128,-1,3
 545 968 545 968 572 994 c 0,4,5
 628 1048 628 1048 628 1140 c 0,6,7
 628 1229 628 1229 572 1287 c 0,8,9
 514 1347 514 1347 426 1347 c 0,10,11
 342 1347 342 1347 284 1287 c 0,12,13
 227 1228 227 1228 227 1140 c 0,14,15
 228 1002 228 1002 348 954 c 0,0,1
428 785 m 0,16,17
 349 785 349 785 283.5 811 c 128,-1,18
 218 837 218 837 170 884 c 0,19,20
 67 985 67 985 67 1140 c 0,21,22
 67 1294 67 1294 170 1399 c 128,-1,23
 273 1504 273 1504 426 1504 c 0,24,25
 586 1504 586 1504 688 1399 c 0,26,27
 788 1295 788 1295 788 1140 c 0,28,29
 788 983 788 983 688 884 c 128,-1,30
 588 785 588 785 428 785 c 0,16,17
EndSplineSet
EndChar

StartChar: plusminus
Encoding: 177 177 115
Width: 1093
Flags: W
HStem: 0 154<100.468 1002.69> 646 144<81.8135 474 618 1010.23>
VStem: 474 144<292.766 646 790 1113.23>
LayerCount: 2
Fore
SplineSet
968 154 m 2,0,1
 994 154 994 154 1004 104 c 0,2,3
 1006 91 1006 91 1006.5 79.5 c 128,-1,4
 1007 68 1007 68 1004.5 54 c 128,-1,5
 1002 40 1002 40 998 28 c 0,6,7
 988 0 988 0 968 0 c 2,8,-1
 126 0 l 2,9,10
 98 0 98 0 88 52 c 0,11,12
 86 65 86 65 85 76 c 256,13,14
 85 122 85 122 100 138 c 128,-1,15
 115 154 115 154 126 154 c 2,16,-1
 968 154 l 2,0,1
98 646 m 2,17,18
 81 646 81 646 81 718 c 128,-1,19
 81 790 81 790 98 790 c 2,20,-1
 474 790 l 1,21,-1
 474 1098 l 2,22,23
 474 1114 474 1114 546 1114 c 128,-1,24
 618 1114 618 1114 618 1098 c 2,25,-1
 618 790 l 1,26,-1
 995 790 l 2,27,28
 1011 790 1011 790 1011 718 c 128,-1,29
 1011 646 1011 646 995 646 c 2,30,-1
 618 646 l 1,31,-1
 618 308 l 2,32,33
 618 292 618 292 546 292 c 128,-1,34
 474 292 474 292 474 308 c 2,35,-1
 474 646 l 1,36,-1
 98 646 l 2,17,18
EndSplineSet
EndChar

StartChar: uni00B2
Encoding: 178 178 116
Width: 808
Flags: W
HStem: 647 146<267 595> 1436 89<252.702 476.749>
VStem: 93 205<1233.43 1393.7> 510 185.5<1184.48 1403.99>
LayerCount: 2
Fore
SplineSet
269 1232 m 128,-1,1
 240 1203 240 1203 196.5 1203 c 128,-1,2
 153 1203 153 1203 123 1232.5 c 128,-1,3
 93 1262 93 1262 93 1310 c 128,-1,4
 93 1358 93 1358 115 1398 c 128,-1,5
 137 1438 137 1438 177 1466 c 0,6,7
 259 1524 259 1524 396 1525 c 0,8,9
 610 1526 610 1526 674 1404 c 0,10,11
 696 1364 696 1364 695.5 1301.5 c 128,-1,12
 695 1239 695 1239 669.5 1190.5 c 128,-1,13
 644 1142 644 1142 604.5 1105.5 c 128,-1,14
 565 1069 565 1069 515.5 1038.5 c 128,-1,15
 466 1008 466 1008 418 974 c 0,16,17
 304 894 304 894 267 793 c 1,18,-1
 595 793 l 1,19,-1
 623 871 l 1,20,21
 640 884 640 884 668.5 884 c 128,-1,22
 697 884 697 884 713 855 c 1,23,-1
 682 647 l 1,24,-1
 113 647 l 1,25,-1
 113 690 l 2,26,27
 114 884 114 884 312 1044 c 0,28,29
 438 1145 438 1145 474 1195.5 c 128,-1,30
 510 1246 510 1246 510 1290 c 128,-1,31
 510 1334 510 1334 498.5 1360.5 c 0,32,33
 486 1387 486 1387 466 1404 c 0,34,35
 427 1436 427 1436 376 1436 c 128,-1,36
 325 1436 325 1436 299 1427 c 128,-1,37
 273 1418 273 1418 250 1395 c 1,38,39
 282 1382 282 1382 294 1334 c 0,40,41
 298 1320 298 1320 298 1308 c 0,42,0
 298 1261 298 1261 269 1232 c 128,-1,1
EndSplineSet
EndChar

StartChar: uni00B3
Encoding: 179 179 117
Width: 800
Flags: W
HStem: 634.5 88.5<253.293 475.164> 1435 90<248.775 466.283>
VStem: 89 209<765.066 920.604 1233.46 1391.38> 504 186.5<1195.8 1397.99> 517 202<773.507 999.021>
LayerCount: 2
Fore
SplineSet
252 764 m 1,0,1
 293 723 293 723 382 723 c 0,2,3
 442 722 442 722 480 772 c 0,4,5
 517 820 517 820 517 897 c 0,6,7
 518 969 518 969 496 1000 c 0,8,9
 456 1058 456 1058 370 1067 c 1,10,-1
 370 1121 l 1,11,12
 437 1155 437 1155 460 1181 c 0,13,14
 504 1232 504 1232 504 1306 c 0,15,16
 504 1360 504 1360 463 1398 c 128,-1,17
 422 1436 422 1436 376 1435 c 0,18,19
 287 1435 287 1435 247 1395 c 1,20,21
 278 1380 278 1380 292 1337 c 0,22,23
 296 1325 296 1325 296 1316 c 0,24,25
 296 1262 296 1262 267 1232 c 128,-1,26
 238 1202 238 1202 193 1202 c 256,27,28
 148 1202 148 1202 118.5 1232.5 c 128,-1,29
 89 1263 89 1263 89 1314.5 c 128,-1,30
 89 1366 89 1366 117.5 1405 c 128,-1,31
 146 1444 146 1444 191 1470 c 0,32,33
 284 1524 284 1524 406 1525 c 0,34,35
 610 1525 610 1525 672 1398 c 0,36,37
 690 1360 690 1360 690.5 1317.5 c 128,-1,38
 691 1275 691 1275 676 1242.5 c 0,39,40
 660 1210 660 1210 636 1184 c 0,41,42
 589 1134 589 1134 517 1108 c 1,43,44
 616 1067 616 1067 648 1039 c 0,45,46
 719 977 719 977 719 880 c 0,47,48
 719 698 719 698 531 650 c 0,49,50
 471 634 471 634 407 634.5 c 128,-1,51
 343 635 343 635 288.5 649 c 0,52,53
 234 664 234 664 190 690 c 0,54,55
 90 750 90 750 89 843 c 256,56,57
 89 893 89 893 120.5 921.5 c 128,-1,58
 152 950 152 950 185 950 c 128,-1,59
 218 950 218 950 236 942.5 c 128,-1,60
 254 935 254 935 268 921 c 0,61,62
 298 891 298 891 298 844.5 c 128,-1,63
 298 798 298 798 252 764 c 1,0,1
EndSplineSet
EndChar

StartChar: acute
Encoding: 180 180 118
Width: 1065
Flags: W
HStem: 1188 393
VStem: 440 422
LayerCount: 2
Fore
SplineSet
539 1188 m 1,0,1
 497 1188 497 1188 476 1212 c 0,2,3
 440 1253 440 1253 440 1296 c 1,4,-1
 713 1581 l 1,5,6
 777 1582 777 1582 819 1538 c 0,7,8
 862 1494 862 1494 862 1423 c 1,9,-1
 539 1188 l 1,0,1
EndSplineSet
EndChar

StartChar: uni00B5
Encoding: 181 181 119
Width: 1239
Flags: W
HStem: -439 21G<207 272.5> -20 186<438.699 651.969> -14 155<894.5 1169.78> 981 20G<164 359 789 958.5>
VStem: 164 195<-425.157 -101.933 269.723 1001> 789 194<375.285 1000.91>
LayerCount: 2
Fore
SplineSet
525 -20 m 0,0,1
 340 -20 340 -20 281 139 c 1,2,3
 295 -43 295 -43 369 -365 c 1,4,5
 361 -397 361 -397 328 -418 c 128,-1,6
 295 -439 295 -439 250 -439 c 0,7,8
 164 -439 164 -439 164 -380 c 2,9,-1
 164 1001 l 1,10,-1
 359 1001 l 1,11,-1
 359 635 l 2,12,13
 359 270 359 270 454 194 c 0,14,15
 488 166 488 166 541 166 c 128,-1,16
 594 166 594 166 640.5 201 c 128,-1,17
 687 236 687 236 720 308 c 0,18,19
 789 459 789 459 789 754 c 2,20,-1
 789 1001 l 1,21,-1
 934 1001 l 2,22,23
 983 1001 983 1001 983 961 c 2,24,-1
 983 315 l 2,25,26
 983 210 983 210 1000 181.5 c 128,-1,27
 1017 153 1017 153 1032.5 147 c 128,-1,28
 1048 141 1048 141 1067 141 c 2,29,-1
 1151 141 l 1,30,31
 1180 132 1180 132 1180 94 c 0,32,33
 1180 12 1180 12 1137 0 c 0,34,35
 1130 -1 1130 -1 1110 -3 c 2,36,-1
 1066 -8 l 2,37,38
 1000 -14 1000 -14 961.5 -14 c 128,-1,39
 923 -14 923 -14 894.5 -2 c 128,-1,40
 866 10 866 10 845 36 c 0,41,42
 799 94 799 94 799 203 c 1,43,44
 767 103 767 103 727 63 c 0,45,46
 647 -20 647 -20 525 -20 c 0,0,1
EndSplineSet
EndChar

StartChar: paragraph
Encoding: 182 182 120
Width: 1579
Flags: W
HStem: 0 141<552.255 715 926 1076.44 1294 1472.53> 629 150<466.483 715> 1364 141<435.625 715 926 1083 1294 1507.44>
VStem: 59 233<926.017 1247.59> 715 211<147.104 629 779 1351> 1083 211<164.251 1364>
LayerCount: 2
Fore
SplineSet
549 0 m 2,0,1
 524 0 524 0 524 57 c 0,2,3
 524 106 524 106 552 134 c 0,4,5
 560 142 560 142 586.5 141.5 c 128,-1,6
 613 141 613 141 642 143.5 c 128,-1,7
 671 146 671 146 687 151 c 0,8,9
 715 160 715 160 715 184 c 2,10,-1
 715 629 l 1,11,-1
 563 629 l 2,12,13
 332 630 332 630 196 740 c 0,14,15
 59 851 59 851 59 1044 c 0,16,17
 59 1276 59 1276 228.5 1390.5 c 128,-1,18
 398 1505 398 1505 718 1505 c 2,19,-1
 1484 1505 l 2,20,21
 1509 1505 1509 1505 1509 1434.5 c 128,-1,22
 1509 1364 1509 1364 1474 1364 c 2,23,-1
 1294 1364 l 1,24,-1
 1294 141 l 1,25,-1
 1462 141 l 2,26,27
 1488 141 1488 141 1488 80 c 0,28,29
 1488 32 1488 32 1473 16 c 128,-1,30
 1458 0 1458 0 1447 0 c 2,31,-1
 549 0 l 2,0,1
323.5 1229.5 m 128,-1,33
 292 1177 292 1177 292 1089 c 128,-1,34
 292 1001 292 1001 326 942 c 128,-1,35
 360 883 360 883 418 847 c 0,36,37
 528 779 528 779 715 779 c 1,38,-1
 715 1351 l 1,39,40
 498 1351 498 1351 426.5 1316.5 c 128,-1,32
 355 1282 355 1282 323.5 1229.5 c 128,-1,33
1083 1348 m 2,41,42
 1083 1364 1083 1364 1070 1364 c 2,43,-1
 926 1364 l 1,44,-1
 926 141 l 1,45,-1
 935 141 l 2,46,47
 1060 140 1060 140 1077 164 c 0,48,49
 1083 172 1083 172 1083 184 c 2,50,-1
 1083 1348 l 2,41,42
EndSplineSet
EndChar

StartChar: periodcentered
Encoding: 183 183 121
Width: 522
Flags: W
HStem: 428 272<157.792 364.208>
VStem: 124 274<462.884 665.116>
LayerCount: 2
Fore
SplineSet
261 428 m 256,0,1
 168 428 168 428 134 509 c 0,2,3
 124 534 124 534 124 564 c 128,-1,4
 124 594 124 594 134.5 619 c 0,5,6
 146 644 146 644 164 662 c 0,7,8
 203 700 203 700 261 700 c 256,9,10
 354 700 354 700 388 619 c 0,11,12
 398 594 398 594 398 564 c 128,-1,13
 398 534 398 534 387.5 509 c 0,14,15
 376 484 376 484 358 466 c 0,16,17
 318 428 318 428 261 428 c 256,0,1
EndSplineSet
EndChar

StartChar: cedilla
Encoding: 184 184 122
Width: 1188
Flags: W
HStem: -440 112<410.197 618.535> -179 194<526 646.311>
VStem: 649 168<-294.77 -190.676>
LayerCount: 2
Fore
SplineSet
649 -240 m 0,0,1
 649 -179 649 -179 513 -179 c 1,2,-1
 474 -131 l 1,3,-1
 526 15 l 1,4,-1
 685 15 l 1,5,-1
 649 -90 l 1,6,7
 764 -110 764 -110 804 -182 c 0,8,9
 818 -206 818 -206 817 -236 c 0,10,11
 817 -440 817 -440 449 -440 c 0,12,13
 429 -440 429 -440 419 -420.5 c 0,14,15
 409 -402 409 -402 409 -382 c 0,16,17
 409 -328 409 -328 438 -328 c 0,18,19
 580 -328 580 -328 632 -278 c 0,20,21
 650 -262 650 -262 649 -240 c 0,0,1
EndSplineSet
EndChar

StartChar: uni00B9
Encoding: 185 185 123
Width: 720
Flags: W
HStem: 647 103<118.917 291 476 631.872> 1505 20G<382.78 457.5>
VStem: 291 185<750.61 1317.99>
LayerCount: 2
Fore
SplineSet
617 750 m 2,0,1
 632 750 632 750 632 698.5 c 128,-1,2
 632 647 632 647 611 647 c 2,3,-1
 131 647 l 2,4,5
 118 646 118 646 118 682 c 0,6,7
 118 750 118 750 142 750 c 2,8,-1
 228 750 l 2,9,10
 291 750 291 750 291 775 c 2,11,-1
 291 1283 l 2,12,13
 291 1318 291 1318 281.5 1318 c 128,-1,14
 272 1318 272 1318 251 1309 c 2,15,-1
 158 1270 l 2,16,17
 136 1261 136 1261 127.5 1261 c 128,-1,18
 119 1261 119 1261 110.5 1270.5 c 128,-1,19
 102 1280 102 1280 94 1293 c 0,20,21
 76 1323 76 1323 76.5 1339 c 128,-1,22
 77 1355 77 1355 86 1361 c 1,23,-1
 424 1525 l 1,24,-1
 439 1525 l 2,25,26
 476 1525 476 1525 476 1513 c 2,27,-1
 476 750 l 1,28,-1
 617 750 l 2,0,1
EndSplineSet
EndChar

StartChar: ordmasculine
Encoding: 186 186 124
Width: 913
Flags: W
HStem: 600 127<126.817 783.142> 837 102<331.967 572.115> 1423 102<329.396 574.778>
VStem: 112 149<1011.99 1352.25> 642 150<1013.93 1351.97>
LayerCount: 2
Fore
SplineSet
765 727 m 2,0,1
 785 728 785 728 793 686 c 0,2,3
 795 676 795 676 795 666 c 256,4,5
 795 627 795 627 783.5 613.5 c 128,-1,6
 772 600 772 600 765 600 c 2,7,-1
 156 600 l 2,8,9
 135 600 135 600 127 642 c 0,10,11
 125 652 125 652 125 662 c 128,-1,12
 125 672 125 672 127 683 c 0,13,14
 128 694 128 694 132 704 c 0,15,16
 140 727 140 727 156 727 c 2,17,-1
 765 727 l 2,0,1
430 837 m 0,18,19
 352 837 352 837 293.5 863.5 c 0,20,21
 234 890 234 890 194 937 c 0,22,23
 112 1033 112 1033 112 1187 c 0,24,25
 112 1349 112 1349 224 1442 c 0,26,27
 324 1525 324 1525 477 1525 c 0,28,29
 624 1526 624 1526 710 1426 c 0,30,31
 792 1331 792 1331 792 1182 c 0,32,33
 792 1016 792 1016 690 924 c 0,34,35
 593 836 593 836 430 837 c 0,18,19
261 1186 m 0,36,37
 261 1062 261 1062 314 1000.5 c 128,-1,38
 367 939 367 939 454 939 c 0,39,40
 546 939 546 939 596 1011 c 0,41,42
 642 1077 642 1077 642 1161.5 c 128,-1,43
 642 1246 642 1246 627.5 1291 c 128,-1,44
 613 1336 613 1336 587 1366 c 0,45,46
 536 1424 536 1424 449 1423 c 0,47,48
 326 1423 326 1423 279 1304 c 0,49,50
 261 1258 261 1258 261 1186 c 0,36,37
EndSplineSet
EndChar

StartChar: guillemotright
Encoding: 187 187 125
Width: 1184
Flags: W
LayerCount: 2
Fore
SplineSet
603 595 m 2,0,1
 643 563 643 563 643 523 c 0,2,3
 643 455 643 455 602 423 c 2,4,-1
 182 90 l 1,5,6
 151 90 151 90 130 112 c 0,7,8
 93 151 93 151 93 185 c 1,9,-1
 399 490 l 1,10,-1
 93 841 l 1,11,12
 92 874 92 874 112 896 c 0,13,14
 147 935 147 935 181 935 c 1,15,-1
 603 595 l 2,0,1
1102 595 m 1,16,17
 1143 560 1143 560 1143 521 c 0,18,19
 1143 455 1143 455 1101 423 c 2,20,-1
 681 90 l 1,21,22
 649 90 649 90 628 112 c 0,23,24
 592 151 592 151 592 185 c 1,25,-1
 898 490 l 1,26,-1
 592 841 l 1,27,28
 592 874 592 874 612 896 c 0,29,30
 647 935 647 935 680 935 c 1,31,-1
 1102 595 l 1,16,17
EndSplineSet
EndChar

StartChar: onequarter
Encoding: 188 188 126
Width: 1770
Flags: W
HStem: 0 103<1194.06 1382 1567 1688.85> 228 113<1137 1382 1567 1712.71> 647 103<110.917 283 468 623.872> 1505 20G<374.78 449.5>
VStem: 283 185<750.61 1317.99> 1382 185<104.373 228 341 571.451>
LayerCount: 2
Fore
SplineSet
1326 1505 m 2,0,1
 1346 1537 1346 1537 1422 1537 c 0,2,3
 1484 1537 1484 1537 1484 1505 c 1,4,-1
 500 0 l 1,5,6
 478 -30 478 -30 397 -30 c 0,7,8
 334 -30 334 -30 334 0 c 1,9,-1
 1326 1505 l 2,0,1
1018 228 m 1,10,11
 992 240 992 240 986 280 c 1,12,-1
 1304 880 l 1,13,14
 1373 880 1373 880 1423 842 c 0,15,16
 1467 808 1467 808 1467 776 c 1,17,-1
 1137 341 l 1,18,-1
 1382 341 l 1,19,-1
 1382 530 l 2,20,21
 1382 575 1382 575 1506 586 c 0,22,23
 1538 589 1538 589 1567 589 c 1,24,-1
 1567 341 l 1,25,-1
 1697 341 l 2,26,27
 1714 341 1714 341 1714 293 c 0,28,29
 1714 258 1714 258 1702 243 c 128,-1,30
 1690 228 1690 228 1683 228 c 2,31,-1
 1567 228 l 1,32,-1
 1567 103 l 1,33,-1
 1672 103 l 2,34,35
 1689 103 1689 103 1689 51.5 c 128,-1,36
 1689 0 1689 0 1664 0 c 2,37,-1
 1209 0 l 2,38,39
 1193 0 1193 0 1193 42 c 0,40,41
 1193 72 1193 72 1205 87.5 c 128,-1,42
 1217 103 1217 103 1223 103 c 2,43,-1
 1306 103 l 2,44,45
 1382 103 1382 103 1382 128 c 2,46,-1
 1382 228 l 1,47,-1
 1018 228 l 1,10,11
609 750 m 2,48,49
 624 750 624 750 624 698.5 c 128,-1,50
 624 647 624 647 603 647 c 2,51,-1
 123 647 l 2,52,53
 110 646 110 646 110 682 c 0,54,55
 110 750 110 750 134 750 c 2,56,-1
 220 750 l 2,57,58
 283 750 283 750 283 775 c 2,59,-1
 283 1283 l 2,60,61
 283 1318 283 1318 273.5 1318 c 128,-1,62
 264 1318 264 1318 243 1309 c 2,63,-1
 150 1270 l 2,64,65
 128 1261 128 1261 119.5 1261 c 128,-1,66
 111 1261 111 1261 102.5 1270.5 c 128,-1,67
 94 1280 94 1280 86 1293 c 0,68,69
 68 1323 68 1323 68.5 1339 c 128,-1,70
 69 1355 69 1355 78 1361 c 1,71,-1
 416 1525 l 1,72,-1
 431 1525 l 2,73,74
 468 1525 468 1525 468 1513 c 2,75,-1
 468 750 l 1,76,-1
 609 750 l 2,48,49
EndSplineSet
EndChar

StartChar: onehalf
Encoding: 189 189 127
Width: 1767
Flags: W
HStem: 0 146<1250 1578> 647 103<102.917 275 460 615.872> 789 89<1234.71 1460.8> 1505 20G<366.78 441.5>
VStem: 275 185<750.61 1317.99> 1076 205<586.426 746.796> 1493 185<537.741 756.992>
LayerCount: 2
Fore
SplineSet
1318 1505 m 2,0,1
 1338 1537 1338 1537 1414 1537 c 0,2,3
 1476 1537 1476 1537 1476 1505 c 1,4,-1
 492 0 l 1,5,6
 470 -30 470 -30 389 -30 c 0,7,8
 326 -30 326 -30 326 0 c 1,9,-1
 1318 1505 l 2,0,1
601 750 m 2,10,11
 616 750 616 750 616 698.5 c 128,-1,12
 616 647 616 647 595 647 c 2,13,-1
 115 647 l 2,14,15
 102 646 102 646 102 682 c 0,16,17
 102 750 102 750 126 750 c 2,18,-1
 212 750 l 2,19,20
 275 750 275 750 275 775 c 2,21,-1
 275 1283 l 2,22,23
 275 1318 275 1318 265.5 1318 c 128,-1,24
 256 1318 256 1318 235 1309 c 2,25,-1
 142 1270 l 2,26,27
 120 1261 120 1261 111.5 1261 c 128,-1,28
 103 1261 103 1261 94.5 1270.5 c 128,-1,29
 86 1280 86 1280 78 1293 c 0,30,31
 60 1323 60 1323 60.5 1339 c 128,-1,32
 61 1355 61 1355 70 1361 c 1,33,-1
 408 1525 l 1,34,-1
 423 1525 l 2,35,36
 460 1525 460 1525 460 1513 c 2,37,-1
 460 750 l 1,38,-1
 601 750 l 2,10,11
1252 585 m 128,-1,40
 1223 556 1223 556 1179.5 556 c 128,-1,41
 1136 556 1136 556 1106 585.5 c 128,-1,42
 1076 615 1076 615 1076 663 c 128,-1,43
 1076 711 1076 711 1098 751 c 0,44,45
 1120 792 1120 792 1160 820 c 0,46,47
 1242 878 1242 878 1379 878 c 0,48,49
 1592 878 1592 878 1656 756 c 0,50,51
 1678 716 1678 716 1678 654 c 128,-1,52
 1678 592 1678 592 1652.5 543.5 c 128,-1,53
 1627 495 1627 495 1587.5 458.5 c 128,-1,54
 1548 422 1548 422 1498.5 391.5 c 0,55,56
 1450 362 1450 362 1402 328 c 0,57,58
 1288 248 1288 248 1250 146 c 1,59,-1
 1578 146 l 1,60,-1
 1606 224 l 1,61,62
 1623 237 1623 237 1651.5 237 c 128,-1,63
 1680 237 1680 237 1696 208 c 1,64,-1
 1665 0 l 1,65,-1
 1096 0 l 1,66,-1
 1096 43 l 2,67,68
 1096 236 1096 236 1294 396 c 0,69,70
 1420 497 1420 497 1456.5 548 c 128,-1,71
 1493 599 1493 599 1493 643 c 128,-1,72
 1493 687 1493 687 1481.5 713.5 c 128,-1,73
 1470 740 1470 740 1450 757 c 0,74,75
 1411 789 1411 789 1359.5 789 c 128,-1,76
 1308 789 1308 789 1282 780 c 128,-1,77
 1256 771 1256 771 1233 748 c 1,78,79
 1266 736 1266 736 1278 688 c 0,80,81
 1282 674 1282 674 1281 661 c 0,82,39
 1281 614 1281 614 1252 585 c 128,-1,40
EndSplineSet
EndChar

StartChar: threequarters
Encoding: 190 190 128
Width: 1831
Flags: W
HStem: 0 103<1256.06 1444 1629 1750.85> 228 113<1199 1444 1629 1774.71> 634.5 88.5<247.293 469.164> 1435 90<242.775 460.283>
VStem: 83 209<765.066 920.604 1233.46 1391.38> 498 186.5<1195.8 1397.99> 511 202<773.507 999.021> 1444 185<104.373 228 341 571.451>
LayerCount: 2
Fore
SplineSet
1338 1505 m 2,0,1
 1358 1537 1358 1537 1434 1537 c 0,2,3
 1496 1537 1496 1537 1496 1505 c 1,4,-1
 512 0 l 1,5,6
 490 -30 490 -30 409 -30 c 0,7,8
 346 -30 346 -30 346 0 c 1,9,-1
 1338 1505 l 2,0,1
1080 228 m 1,10,11
 1054 240 1054 240 1048 280 c 1,12,-1
 1366 880 l 1,13,14
 1435 880 1435 880 1485 842 c 0,15,16
 1529 808 1529 808 1529 776 c 1,17,-1
 1199 341 l 1,18,-1
 1444 341 l 1,19,-1
 1444 530 l 2,20,21
 1444 575 1444 575 1568 586 c 0,22,23
 1600 589 1600 589 1629 589 c 1,24,-1
 1629 341 l 1,25,-1
 1759 341 l 2,26,27
 1776 341 1776 341 1776 293 c 0,28,29
 1776 258 1776 258 1764 243 c 128,-1,30
 1752 228 1752 228 1745 228 c 2,31,-1
 1629 228 l 1,32,-1
 1629 103 l 1,33,-1
 1734 103 l 2,34,35
 1751 103 1751 103 1751 51.5 c 128,-1,36
 1751 0 1751 0 1726 0 c 2,37,-1
 1271 0 l 2,38,39
 1255 0 1255 0 1255 42 c 0,40,41
 1255 72 1255 72 1267 87.5 c 128,-1,42
 1279 103 1279 103 1285 103 c 2,43,-1
 1368 103 l 2,44,45
 1444 103 1444 103 1444 128 c 2,46,-1
 1444 228 l 1,47,-1
 1080 228 l 1,10,11
246 764 m 1,48,49
 287 723 287 723 376 723 c 0,50,51
 436 722 436 722 474 772 c 0,52,53
 511 820 511 820 511 897 c 0,54,55
 512 969 512 969 490 1000 c 0,56,57
 450 1058 450 1058 364 1067 c 1,58,-1
 364 1121 l 1,59,60
 431 1155 431 1155 454 1181 c 0,61,62
 498 1232 498 1232 498 1306 c 0,63,64
 498 1360 498 1360 457 1398 c 128,-1,65
 416 1436 416 1436 370 1435 c 0,66,67
 281 1435 281 1435 241 1395 c 1,68,69
 272 1380 272 1380 286 1337 c 0,70,71
 290 1325 290 1325 290 1316 c 0,72,73
 290 1262 290 1262 261 1232 c 128,-1,74
 232 1202 232 1202 187 1202 c 256,75,76
 142 1202 142 1202 112.5 1232.5 c 128,-1,77
 83 1263 83 1263 83 1314.5 c 128,-1,78
 83 1366 83 1366 111.5 1405 c 128,-1,79
 140 1444 140 1444 185 1470 c 0,80,81
 278 1524 278 1524 400 1525 c 0,82,83
 604 1525 604 1525 666 1398 c 0,84,85
 684 1360 684 1360 684.5 1317.5 c 128,-1,86
 685 1275 685 1275 670 1242.5 c 0,87,88
 654 1210 654 1210 630 1184 c 0,89,90
 583 1134 583 1134 511 1108 c 1,91,92
 610 1067 610 1067 642 1039 c 0,93,94
 713 977 713 977 713 880 c 0,95,96
 713 698 713 698 525 650 c 0,97,98
 465 634 465 634 401 634.5 c 128,-1,99
 337 635 337 635 282.5 649 c 0,100,101
 228 664 228 664 184 690 c 0,102,103
 84 750 84 750 83 843 c 256,104,105
 83 893 83 893 114.5 921.5 c 128,-1,106
 146 950 146 950 179 950 c 128,-1,107
 212 950 212 950 230 942.5 c 128,-1,108
 248 935 248 935 262 921 c 0,109,110
 292 891 292 891 292 844.5 c 128,-1,111
 292 798 292 798 246 764 c 1,48,49
EndSplineSet
EndChar

StartChar: questiondown
Encoding: 191 191 129
Width: 949
Flags: W
HStem: -438 154<382.082 650.572> 739 279<442.246 648.406>
VStem: 83 217<-203.252 90.4187> 405 280<775.512 981.342> 445 195<395 603.387> 630 280<-271.719 -82.6909>
LayerCount: 2
Fore
SplineSet
653 -273 m 1,0,1
 630 -232 630 -232 630 -194 c 128,-1,2
 630 -156 630 -156 641 -130.5 c 0,3,4
 652 -104 652 -104 671 -86 c 0,5,6
 712 -47 712 -47 756 -47 c 128,-1,7
 800 -47 800 -47 825.5 -57.5 c 0,8,9
 852 -68 852 -68 870 -86 c 0,10,11
 910 -126 910 -126 910 -179.5 c 128,-1,12
 910 -233 910 -233 888 -269.5 c 128,-1,13
 866 -306 866 -306 830 -333.5 c 128,-1,14
 794 -361 794 -361 749.5 -381 c 0,15,16
 705 -402 705 -402 659 -414 c 0,17,18
 569 -438 569 -438 483.5 -438 c 128,-1,19
 398 -438 398 -438 320 -409 c 128,-1,20
 242 -380 242 -380 190 -331 c 0,21,22
 84 -232 84 -232 83 -80 c 0,23,24
 83 68 83 68 200 190 c 0,25,26
 252 244 252 244 316 294 c 1,27,-1
 445 395 l 1,28,-1
 445 550 l 2,29,30
 445 595 445 595 508 609 c 0,31,32
 526 613 526 613 546 613 c 0,33,34
 640 613 640 613 640 550 c 2,35,-1
 640 372 l 1,36,37
 585 323 585 323 525 281 c 0,38,39
 465 240 465 240 415 192 c 0,40,41
 300 83 300 83 300 -60 c 0,42,43
 300 -162 300 -162 363 -224 c 0,44,45
 425 -284 425 -284 529 -284 c 2,46,-1
 564 -284 l 2,47,48
 609 -284 609 -284 653 -273 c 1,0,1
674 934.5 m 128,-1,50
 685 909 685 909 685 879 c 128,-1,51
 685 849 685 849 674 823.5 c 0,52,53
 662 798 662 798 644 779 c 0,54,55
 605 739 605 739 560.5 739 c 128,-1,56
 516 739 516 739 490.5 749.5 c 128,-1,57
 465 760 465 760 446 779 c 0,58,59
 405 820 405 820 405 864.5 c 128,-1,60
 405 909 405 909 416 934.5 c 128,-1,61
 427 960 427 960 446 978 c 0,62,63
 487 1018 487 1018 531 1018 c 128,-1,64
 575 1018 575 1018 600.5 1007.5 c 128,-1,65
 626 997 626 997 644.5 978.5 c 128,-1,49
 663 960 663 960 674 934.5 c 128,-1,50
EndSplineSet
EndChar

StartChar: Agrave
Encoding: 192 192 130
Width: 1424
Flags: W
HStem: 0 141<-7.40625 138.453 287 471.079 910.468 1059.97 1301 1429.05> 499 154<485 874> 1505 20G<677.5 726.5>
LayerCount: 2
Fore
SplineSet
13 0 m 2,0,1
 -12 0 -12 0 -12 57 c 0,2,3
 -12 109 -12 109 12 133 c 0,4,5
 20 141 20 141 48 141 c 0,6,7
 122 141 122 141 145 198 c 2,8,-1
 654 1505 l 2,9,10
 662 1525 662 1525 693 1525 c 0,11,12
 760 1525 760 1525 768 1505 c 2,13,-1
 1301 141 l 1,14,-1
 1418 141 l 2,15,16
 1444 141 1444 141 1444 81 c 0,17,18
 1444 31 1444 31 1429.5 15.5 c 128,-1,19
 1415 0 1415 0 1405 0 c 2,20,-1
 920 0 l 2,21,22
 895 0 895 0 895 55 c 0,23,24
 895 107 895 107 910 124 c 128,-1,25
 925 141 925 141 936 141 c 0,26,27
 1060 141 1060 141 1060 165 c 0,28,29
 1060 174 1060 174 1052 190 c 1,30,-1
 933 499 l 1,31,-1
 426 499 l 1,32,-1
 287 141 l 1,33,-1
 459 141 l 2,34,35
 485 141 485 141 485 83 c 0,36,37
 485 31 485 31 471.5 15.5 c 128,-1,38
 458 0 458 0 449 0 c 2,39,-1
 13 0 l 2,0,1
485 653 m 1,40,-1
 874 653 l 1,41,-1
 681 1157 l 1,42,-1
 485 653 l 1,40,-1
321 1833 m 1,43,44
 321 1942 321 1942 411 1980 c 0,45,46
 438 1992 438 1992 470 1991 c 1,47,-1
 743 1706 l 1,48,49
 742 1663 742 1663 722 1640 c 0,50,51
 686 1598 686 1598 645 1598 c 1,52,-1
 321 1833 l 1,43,44
EndSplineSet
EndChar

StartChar: Aacute
Encoding: 193 193 131
Width: 1424
Flags: W
HStem: 0 141<-7.40625 138.453 287 471.079 910.468 1059.97 1301 1429.05> 499 154<485 874> 1505 20G<677.5 726.5>
LayerCount: 2
Fore
SplineSet
13 0 m 2,0,1
 -12 0 -12 0 -12 57 c 0,2,3
 -12 109 -12 109 12 133 c 0,4,5
 20 141 20 141 48 141 c 0,6,7
 122 141 122 141 145 198 c 2,8,-1
 654 1505 l 2,9,10
 662 1525 662 1525 693 1525 c 0,11,12
 760 1525 760 1525 768 1505 c 2,13,-1
 1301 141 l 1,14,-1
 1418 141 l 2,15,16
 1444 141 1444 141 1444 81 c 0,17,18
 1444 31 1444 31 1429.5 15.5 c 128,-1,19
 1415 0 1415 0 1405 0 c 2,20,-1
 920 0 l 2,21,22
 895 0 895 0 895 55 c 0,23,24
 895 107 895 107 910 124 c 128,-1,25
 925 141 925 141 936 141 c 0,26,27
 1060 141 1060 141 1060 165 c 0,28,29
 1060 174 1060 174 1052 190 c 1,30,-1
 933 499 l 1,31,-1
 426 499 l 1,32,-1
 287 141 l 1,33,-1
 459 141 l 2,34,35
 485 141 485 141 485 83 c 0,36,37
 485 31 485 31 471.5 15.5 c 128,-1,38
 458 0 458 0 449 0 c 2,39,-1
 13 0 l 2,0,1
485 653 m 1,40,-1
 874 653 l 1,41,-1
 681 1157 l 1,42,-1
 485 653 l 1,40,-1
782 1598 m 1,43,44
 740 1598 740 1598 719 1622 c 0,45,46
 683 1663 683 1663 683 1706 c 1,47,-1
 956 1991 l 1,48,49
 1020 1992 1020 1992 1062 1948 c 0,50,51
 1105 1904 1105 1904 1105 1833 c 1,52,-1
 782 1598 l 1,43,44
EndSplineSet
EndChar

StartChar: Acircumflex
Encoding: 194 194 132
Width: 1424
Flags: W
HStem: 0 141<-7.40625 138.453 287 471.079 910.468 1059.97 1301 1429.05> 499 154<485 874> 1505 20G<677.5 726.5>
LayerCount: 2
Fore
SplineSet
13 0 m 2,0,1
 -12 0 -12 0 -12 57 c 0,2,3
 -12 109 -12 109 12 133 c 0,4,5
 20 141 20 141 48 141 c 0,6,7
 122 141 122 141 145 198 c 2,8,-1
 654 1505 l 2,9,10
 662 1525 662 1525 693 1525 c 0,11,12
 760 1525 760 1525 768 1505 c 2,13,-1
 1301 141 l 1,14,-1
 1418 141 l 2,15,16
 1444 141 1444 141 1444 81 c 0,17,18
 1444 31 1444 31 1429.5 15.5 c 128,-1,19
 1415 0 1415 0 1405 0 c 2,20,-1
 920 0 l 2,21,22
 895 0 895 0 895 55 c 0,23,24
 895 107 895 107 910 124 c 128,-1,25
 925 141 925 141 936 141 c 0,26,27
 1060 141 1060 141 1060 165 c 0,28,29
 1060 174 1060 174 1052 190 c 1,30,-1
 933 499 l 1,31,-1
 426 499 l 1,32,-1
 287 141 l 1,33,-1
 459 141 l 2,34,35
 485 141 485 141 485 83 c 0,36,37
 485 31 485 31 471.5 15.5 c 128,-1,38
 458 0 458 0 449 0 c 2,39,-1
 13 0 l 2,0,1
485 653 m 1,40,-1
 874 653 l 1,41,-1
 681 1157 l 1,42,-1
 485 653 l 1,40,-1
465 1609 m 1,43,44
 431 1610 431 1610 412 1632 c 0,45,46
 381 1670 381 1670 381 1709 c 1,47,-1
 637 1886 l 2,48,49
 680 1914 680 1914 708 1914 c 0,50,51
 744 1914 744 1914 786 1886 c 2,52,-1
 1042 1709 l 1,53,54
 1042 1646 1042 1646 991 1618 c 0,55,56
 976 1610 976 1610 958 1609 c 1,57,-1
 713 1726 l 1,58,-1
 465 1609 l 1,43,44
EndSplineSet
EndChar

StartChar: Atilde
Encoding: 195 195 133
Width: 1424
Flags: W
HStem: 0 141<-7.40625 138.453 287 471.079 910.468 1059.97 1301 1429.05> 499 154<485 874> 1505 20G<677.5 726.5> 1604 168<763.305 962.578> 1736.5 180.5<447.047 659.057>
LayerCount: 2
Fore
SplineSet
13 0 m 2,0,1
 -12 0 -12 0 -12 57 c 0,2,3
 -12 109 -12 109 12 133 c 0,4,5
 20 141 20 141 48 141 c 0,6,7
 122 141 122 141 145 198 c 2,8,-1
 654 1505 l 2,9,10
 662 1525 662 1525 693 1525 c 0,11,12
 760 1525 760 1525 768 1505 c 2,13,-1
 1301 141 l 1,14,-1
 1418 141 l 2,15,16
 1444 141 1444 141 1444 81 c 0,17,18
 1444 31 1444 31 1429.5 15.5 c 128,-1,19
 1415 0 1415 0 1405 0 c 2,20,-1
 920 0 l 2,21,22
 895 0 895 0 895 55 c 0,23,24
 895 107 895 107 910 124 c 128,-1,25
 925 141 925 141 936 141 c 0,26,27
 1060 141 1060 141 1060 165 c 0,28,29
 1060 174 1060 174 1052 190 c 1,30,-1
 933 499 l 1,31,-1
 426 499 l 1,32,-1
 287 141 l 1,33,-1
 459 141 l 2,34,35
 485 141 485 141 485 83 c 0,36,37
 485 31 485 31 471.5 15.5 c 128,-1,38
 458 0 458 0 449 0 c 2,39,-1
 13 0 l 2,0,1
485 653 m 1,40,-1
 874 653 l 1,41,-1
 681 1157 l 1,42,-1
 485 653 l 1,40,-1
382 1627 m 1,43,44
 342 1628 342 1628 322 1648 c 0,45,46
 288 1682 288 1682 288 1719 c 1,47,48
 354 1836 354 1836 468 1893 c 0,49,50
 516 1917 516 1917 567 1917 c 128,-1,51
 618 1917 618 1917 654.5 1894.5 c 128,-1,52
 691 1872 691 1872 726 1844.5 c 128,-1,53
 761 1817 761 1817 796.5 1794.5 c 128,-1,54
 832 1772 832 1772 865.5 1772 c 128,-1,55
 899 1772 899 1772 924 1787.5 c 128,-1,56
 949 1803 949 1803 970 1824 c 128,-1,57
 991 1845 991 1845 1008 1867 c 128,-1,58
 1025 1889 1025 1889 1039 1901 c 1,59,60
 1077 1901 1077 1901 1099 1880 c 0,61,62
 1137 1844 1137 1844 1137 1809 c 1,63,64
 1084 1688 1084 1688 970 1629 c 0,65,66
 922 1604 922 1604 873 1604 c 128,-1,67
 824 1604 824 1604 794.5 1614 c 128,-1,68
 765 1624 765 1624 739 1638.5 c 128,-1,69
 713 1653 713 1653 689.5 1670.5 c 128,-1,70
 666 1688 666 1688 644 1702 c 0,71,72
 590 1736 590 1736 554 1736.5 c 128,-1,73
 518 1737 518 1737 491.5 1723 c 128,-1,74
 465 1709 465 1709 444 1691 c 128,-1,75
 423 1673 423 1673 407.5 1654.5 c 128,-1,76
 392 1636 392 1636 382 1627 c 1,43,44
EndSplineSet
EndChar

StartChar: Adieresis
Encoding: 196 196 134
Width: 1424
Flags: W
HStem: 0 141<-7.40625 138.453 287 471.079 910.468 1059.97 1301 1429.05> 499 154<485 874> 1505 20G<677.5 726.5> 1620 276<392.65 591.662 839.694 1040.75>
VStem: 355 273<1660.22 1860.4> 808 272<1652.03 1854.81>
LayerCount: 2
Fore
SplineSet
13 0 m 2,0,1
 -12 0 -12 0 -12 57 c 0,2,3
 -12 109 -12 109 12 133 c 0,4,5
 20 141 20 141 48 141 c 0,6,7
 122 141 122 141 145 198 c 2,8,-1
 654 1505 l 2,9,10
 662 1525 662 1525 693 1525 c 0,11,12
 760 1525 760 1525 768 1505 c 2,13,-1
 1301 141 l 1,14,-1
 1418 141 l 2,15,16
 1444 141 1444 141 1444 81 c 0,17,18
 1444 31 1444 31 1429.5 15.5 c 128,-1,19
 1415 0 1415 0 1405 0 c 2,20,-1
 920 0 l 2,21,22
 895 0 895 0 895 55 c 0,23,24
 895 107 895 107 910 124 c 128,-1,25
 925 141 925 141 936 141 c 0,26,27
 1060 141 1060 141 1060 165 c 0,28,29
 1060 174 1060 174 1052 190 c 1,30,-1
 933 499 l 1,31,-1
 426 499 l 1,32,-1
 287 141 l 1,33,-1
 459 141 l 2,34,35
 485 141 485 141 485 83 c 0,36,37
 485 31 485 31 471.5 15.5 c 128,-1,38
 458 0 458 0 449 0 c 2,39,-1
 13 0 l 2,0,1
485 653 m 1,40,-1
 874 653 l 1,41,-1
 681 1157 l 1,42,-1
 485 653 l 1,40,-1
355 1757 m 256,43,44
 354 1852 354 1852 434 1886 c 0,45,46
 458 1896 458 1896 488.5 1896 c 128,-1,47
 519 1896 519 1896 544.5 1885.5 c 0,48,49
 570 1874 570 1874 588 1856 c 0,50,51
 628 1816 628 1816 628 1757 c 256,52,53
 628 1698 628 1698 588 1658 c 0,54,55
 550 1620 550 1620 504 1620 c 0,56,57
 428 1620 428 1620 391.5 1659 c 128,-1,58
 355 1698 355 1698 355 1757 c 256,43,44
943 1620 m 256,59,60
 851 1620 851 1620 818 1702 c 0,61,62
 808 1727 808 1727 808 1757 c 256,63,64
 808 1852 808 1852 888 1886 c 0,65,66
 913 1896 913 1896 943 1896 c 256,67,68
 1002 1896 1002 1896 1042 1856 c 0,69,70
 1080 1818 1080 1818 1080 1757 c 256,71,72
 1080 1663 1080 1663 998 1630 c 0,73,74
 973 1620 973 1620 943 1620 c 256,59,60
EndSplineSet
EndChar

StartChar: Aring
Encoding: 197 197 135
Width: 1420
Flags: W
HStem: 0 141<-9.40625 136.453 285 469.079 908.468 1057.97 1299 1427.05> 499 154<483 872> 1696 125<644.814 774.286>
VStem: 488 139<1545.5 1678.79> 791 131<1544.9 1678.76>
LayerCount: 2
Fore
SplineSet
11 0 m 2,0,1
 -14 0 -14 0 -14 57 c 0,2,3
 -14 109 -14 109 10 133 c 0,4,5
 18 141 18 141 46 141 c 0,6,7
 120 141 120 141 143 198 c 2,8,-1
 616 1413 l 1,9,10
 556 1438 556 1438 522 1490 c 128,-1,11
 488 1542 488 1542 488 1597 c 128,-1,12
 488 1652 488 1652 503.5 1690.5 c 0,13,14
 520 1729 520 1729 548 1758 c 0,15,16
 610 1821 610 1821 705 1821 c 256,17,18
 800 1821 800 1821 862 1758 c 0,19,20
 922 1697 922 1697 922 1621 c 0,21,22
 922 1471 922 1471 800 1416 c 1,23,-1
 1299 141 l 1,24,-1
 1416 141 l 2,25,26
 1442 141 1442 141 1442 81 c 0,27,28
 1442 31 1442 31 1427.5 15.5 c 128,-1,29
 1413 0 1413 0 1403 0 c 2,30,-1
 918 0 l 2,31,32
 893 0 893 0 893 55 c 0,33,34
 893 107 893 107 908 124 c 128,-1,35
 923 141 923 141 934 141 c 0,36,37
 1058 141 1058 141 1058 165 c 0,38,39
 1058 174 1058 174 1050 190 c 1,40,-1
 931 499 l 1,41,-1
 424 499 l 1,42,-1
 285 141 l 1,43,-1
 457 141 l 2,44,45
 483 141 483 141 483 83 c 0,46,47
 483 31 483 31 469.5 15.5 c 128,-1,48
 456 0 456 0 447 0 c 2,49,-1
 11 0 l 2,0,1
483 653 m 1,50,-1
 872 653 l 1,51,-1
 679 1157 l 1,52,-1
 483 653 l 1,50,-1
627 1612 m 256,53,54
 627 1577 627 1577 650.5 1552.5 c 128,-1,55
 674 1528 674 1528 709 1528 c 256,56,57
 744 1528 744 1528 767.5 1552.5 c 128,-1,58
 791 1577 791 1577 791 1612 c 256,59,60
 791 1647 791 1647 767.5 1671.5 c 128,-1,61
 744 1696 744 1696 709 1696 c 256,62,63
 674 1696 674 1696 650.5 1671.5 c 128,-1,64
 627 1647 627 1647 627 1612 c 256,53,54
EndSplineSet
EndChar

StartChar: AE
Encoding: 198 198 136
Width: 1875
Flags: W
HStem: 0 141<273 397.079 690.271 875> 631 154<526 852 1068 1393.74> 1180 325<1643.02 1784> 1351 154<735.004 830.438 1040 1619.77>
VStem: 829 211<997.833 1350.86> 875 211<154.316 533.904> 1405 144<454.962 631 808.016 944.564> 1643 141<1181.4 1309.24> 1682 143<218.721 316.315>
LayerCount: 2
Fore
SplineSet
1477 453 m 128,-1,1
 1405 453 1405 453 1405 480 c 2,2,-1
 1405 631 l 1,3,-1
 1068 631 l 1,4,-1
 1086 154 l 1,5,-1
 1370 154 l 2,6,7
 1513 154 1513 154 1561 171 c 128,-1,8
 1609 188 1609 188 1638.5 218 c 128,-1,9
 1668 248 1668 248 1682 303 c 1,10,11
 1686 323 1686 323 1725 323 c 0,12,13
 1740 324 1740 324 1762 320 c 0,14,15
 1824 311 1824 311 1825 282 c 2,16,-1
 1825 274 l 1,17,18
 1811 172 1811 172 1779.5 96.5 c 128,-1,19
 1748 21 1748 21 1733 0 c 1,20,-1
 713 0 l 2,21,22
 686 0 686 0 686 59 c 0,23,24
 686 109 686 109 710 134 c 0,25,26
 718 142 718 142 745 141.5 c 128,-1,27
 772 141 772 141 801 143 c 128,-1,28
 830 145 830 145 846 150 c 0,29,30
 875 159 875 159 875 184 c 2,31,-1
 858 631 l 1,32,-1
 467 631 l 1,33,-1
 273 141 l 1,34,-1
 385 141 l 2,35,36
 411 141 411 141 411 83 c 0,37,38
 411 31 411 31 397.5 15.5 c 128,-1,39
 384 0 384 0 375 0 c 2,40,-1
 -12 0 l 2,41,42
 -37 0 -37 0 -37 57 c 0,43,44
 -37 108 -37 108 -21 125 c 128,-1,45
 -5 142 -5 142 4 143 c 0,46,47
 52 147 52 147 80 157.5 c 128,-1,48
 108 168 108 168 120 198 c 2,49,-1
 615 1469 l 2,50,51
 629 1505 629 1505 671 1505 c 2,52,-1
 1784 1505 l 1,53,-1
 1784 1214 l 2,54,55
 1784 1180 1784 1180 1713.5 1180 c 128,-1,56
 1643 1180 1643 1180 1643 1202 c 0,57,58
 1643 1286 1643 1286 1621 1310 c 0,59,60
 1582 1351 1582 1351 1479 1351 c 2,61,-1
 1040 1351 l 1,62,-1
 1062 785 l 1,63,-1
 1340 785 l 2,64,65
 1386 785 1386 785 1394 807 c 0,66,67
 1407 839 1407 839 1407 936 c 0,68,69
 1407 959 1407 959 1467 959 c 0,70,71
 1519 959 1519 959 1534 945 c 128,-1,72
 1549 931 1549 931 1549 922 c 2,73,-1
 1549 494 l 2,74,0
 1549 453 1549 453 1477 453 c 128,-1,1
829 1350 m 2,75,76
 830 1364 830 1364 812 1364 c 0,77,78
 755 1364 755 1364 735 1313 c 2,79,-1
 526 785 l 1,80,-1
 852 785 l 1,81,-1
 829 1350 l 2,75,76
EndSplineSet
EndChar

StartChar: Ccedilla
Encoding: 199 199 137
Width: 1277
Flags: W
HStem: -440 112<546.197 754.535> 1371 154<585.812 923.994>
VStem: 103 233<461.289 1060.33> 785 168<-294.77 -190.676> 904 307<1132.44 1333.78>
LayerCount: 2
Fore
SplineSet
785 -240 m 0,0,1
 785 -179 785 -179 649 -179 c 1,2,-1
 610 -131 l 1,3,-1
 651 -16 l 1,4,5
 412 9 412 9 264 191 c 0,6,7
 104 389 104 389 103 734 c 0,8,9
 103 1120 103 1120 297 1330 c 0,10,11
 478 1526 478 1526 778 1525 c 0,12,13
 935 1525 935 1525 1066 1449 c 0,14,15
 1211 1365 1211 1365 1211 1241 c 0,16,17
 1210 1177 1210 1177 1166 1131 c 0,18,19
 1123 1087 1123 1087 1058 1087 c 256,20,21
 993 1087 993 1087 949 1131 c 0,22,23
 904 1176 904 1176 904 1236 c 128,-1,24
 904 1296 904 1296 926 1335 c 1,25,26
 867 1371 867 1371 771 1371 c 128,-1,27
 675 1371 675 1371 595.5 1332 c 128,-1,28
 516 1293 516 1293 458 1221 c 0,29,30
 336 1068 336 1068 336 823 c 0,31,32
 336 316 336 316 585 186 c 0,33,34
 665 144 665 144 747.5 144.5 c 128,-1,35
 830 145 830 145 878.5 158 c 128,-1,36
 927 171 927 171 966 189.5 c 128,-1,37
 1005 208 1005 208 1035 228 c 0,38,39
 1093 268 1093 268 1107.5 268 c 128,-1,40
 1122 268 1122 268 1136 257 c 128,-1,41
 1150 246 1150 246 1162 230 c 0,42,43
 1189 195 1189 195 1189 168.5 c 128,-1,44
 1189 142 1189 142 1172 126.5 c 128,-1,45
 1155 111 1155 111 1123 89.5 c 128,-1,46
 1091 68 1091 68 1045 47 c 0,47,48
 936 -3 936 -3 810 -15 c 1,49,-1
 785 -90 l 1,50,51
 900 -110 900 -110 940 -182 c 0,52,53
 954 -206 954 -206 953 -236 c 0,54,55
 953 -440 953 -440 585 -440 c 0,56,57
 565 -440 565 -440 555 -420.5 c 0,58,59
 545 -402 545 -402 545 -382 c 0,60,61
 545 -328 545 -328 574 -328 c 0,62,63
 716 -328 716 -328 768 -278 c 0,64,65
 786 -262 786 -262 785 -240 c 0,0,1
EndSplineSet
EndChar

StartChar: Egrave
Encoding: 200 200 138
Width: 1288
Flags: W
HStem: 0 154<126.255 290 501 1031> 0 134<104.19 160.161> 694 154<501 808.741> 1002 20G<852 908> 1180 325<1058.02 1199> 1351 154<81.2363 290 501 1034.77>
VStem: 290 211<154.179 694 848 1350.86> 820 144<517.962 694 871.016 1007.56> 1058 141<1181.4 1309.24>
LayerCount: 2
Fore
SplineSet
892 516 m 128,-1,1
 820 516 820 516 820 543 c 2,2,-1
 820 694 l 1,3,-1
 501 694 l 1,4,-1
 501 154 l 1,5,-1
 1031 154 l 1,6,-1
 1107 303 l 2,7,8
 1117 322 1117 322 1144.5 322 c 128,-1,9
 1172 322 1172 322 1187 319 c 128,-1,10
 1202 316 1202 316 1214 311 c 0,11,12
 1241 300 1241 300 1241 281 c 0,13,14
 1241 276 1241 276 1240 274 c 2,15,-1
 1148 0 l 1,16,-1
 128 0 l 2,17,18
 101 0 101 0 101 59 c 0,19,20
 102 109 102 109 126 134 c 0,21,22
 134 142 134 142 161 141.5 c 128,-1,23
 188 141 188 141 217 143.5 c 128,-1,24
 246 146 246 146 262 151 c 0,25,26
 290 160 290 160 290 184 c 2,27,-1
 290 1350 l 2,28,29
 290 1364 290 1364 278 1364 c 2,30,-1
 114 1364 l 2,31,32
 86 1364 86 1364 76 1416 c 0,33,34
 74 1430 74 1430 73 1442 c 0,35,36
 73 1505 73 1505 99 1505 c 2,37,-1
 1199 1505 l 1,38,-1
 1199 1214 l 2,39,40
 1199 1180 1199 1180 1128.5 1180 c 128,-1,41
 1058 1180 1058 1180 1058 1202 c 0,42,43
 1058 1286 1058 1286 1036 1310 c 0,44,45
 997 1351 997 1351 894 1351 c 2,46,-1
 501 1351 l 1,47,-1
 501 848 l 1,48,-1
 755 848 l 2,49,50
 801 848 801 848 809 870 c 0,51,52
 822 902 822 902 822 999 c 0,53,54
 822 1022 822 1022 882 1022 c 0,55,56
 934 1022 934 1022 949 1008 c 128,-1,57
 964 994 964 994 964 985 c 2,58,-1
 964 557 l 2,59,0
 964 516 964 516 892 516 c 128,-1,1
411 1833 m 1,60,61
 411 1942 411 1942 501 1980 c 0,62,63
 528 1992 528 1992 560 1991 c 1,64,-1
 833 1706 l 1,65,66
 832 1663 832 1663 812 1640 c 0,67,68
 776 1598 776 1598 735 1598 c 1,69,-1
 411 1833 l 1,60,61
EndSplineSet
EndChar

StartChar: Eacute
Encoding: 201 201 139
Width: 1288
Flags: W
HStem: 0 154<126.255 290 501 1031> 0 134<104.19 160.161> 694 154<501 808.741> 1002 20G<852 908> 1180 325<1058.02 1199> 1351 154<81.2363 290 501 1034.77>
VStem: 290 211<154.179 694 848 1350.86> 820 144<517.962 694 871.016 1007.56> 1058 141<1181.4 1309.24>
LayerCount: 2
Fore
SplineSet
892 516 m 128,-1,1
 820 516 820 516 820 543 c 2,2,-1
 820 694 l 1,3,-1
 501 694 l 1,4,-1
 501 154 l 1,5,-1
 1031 154 l 1,6,-1
 1107 303 l 2,7,8
 1117 322 1117 322 1144.5 322 c 128,-1,9
 1172 322 1172 322 1187 319 c 128,-1,10
 1202 316 1202 316 1214 311 c 0,11,12
 1241 300 1241 300 1241 281 c 0,13,14
 1241 276 1241 276 1240 274 c 2,15,-1
 1148 0 l 1,16,-1
 128 0 l 2,17,18
 101 0 101 0 101 59 c 0,19,20
 102 109 102 109 126 134 c 0,21,22
 134 142 134 142 161 141.5 c 128,-1,23
 188 141 188 141 217 143.5 c 128,-1,24
 246 146 246 146 262 151 c 0,25,26
 290 160 290 160 290 184 c 2,27,-1
 290 1350 l 2,28,29
 290 1364 290 1364 278 1364 c 2,30,-1
 114 1364 l 2,31,32
 86 1364 86 1364 76 1416 c 0,33,34
 74 1430 74 1430 73 1442 c 0,35,36
 73 1505 73 1505 99 1505 c 2,37,-1
 1199 1505 l 1,38,-1
 1199 1214 l 2,39,40
 1199 1180 1199 1180 1128.5 1180 c 128,-1,41
 1058 1180 1058 1180 1058 1202 c 0,42,43
 1058 1286 1058 1286 1036 1310 c 0,44,45
 997 1351 997 1351 894 1351 c 2,46,-1
 501 1351 l 1,47,-1
 501 848 l 1,48,-1
 755 848 l 2,49,50
 801 848 801 848 809 870 c 0,51,52
 822 902 822 902 822 999 c 0,53,54
 822 1022 822 1022 882 1022 c 0,55,56
 934 1022 934 1022 949 1008 c 128,-1,57
 964 994 964 994 964 985 c 2,58,-1
 964 557 l 2,59,0
 964 516 964 516 892 516 c 128,-1,1
683 1598 m 1,60,61
 641 1598 641 1598 620 1622 c 0,62,63
 584 1663 584 1663 584 1706 c 1,64,-1
 857 1991 l 1,65,66
 921 1992 921 1992 963 1948 c 0,67,68
 1006 1904 1006 1904 1006 1833 c 1,69,-1
 683 1598 l 1,60,61
EndSplineSet
EndChar

StartChar: Ecircumflex
Encoding: 202 202 140
Width: 1288
Flags: W
HStem: 0 154<126.255 290 501 1031> 0 134<104.19 160.161> 694 154<501 808.741> 1002 20G<852 908> 1180 325<1058.02 1199> 1351 154<81.2363 290 501 1034.77>
VStem: 290 211<154.179 694 848 1350.86> 820 144<517.962 694 871.016 1007.56> 1058 141<1181.4 1309.24>
LayerCount: 2
Fore
SplineSet
892 516 m 128,-1,1
 820 516 820 516 820 543 c 2,2,-1
 820 694 l 1,3,-1
 501 694 l 1,4,-1
 501 154 l 1,5,-1
 1031 154 l 1,6,-1
 1107 303 l 2,7,8
 1117 322 1117 322 1144.5 322 c 128,-1,9
 1172 322 1172 322 1187 319 c 128,-1,10
 1202 316 1202 316 1214 311 c 0,11,12
 1241 300 1241 300 1241 281 c 0,13,14
 1241 276 1241 276 1240 274 c 2,15,-1
 1148 0 l 1,16,-1
 128 0 l 2,17,18
 101 0 101 0 101 59 c 0,19,20
 102 109 102 109 126 134 c 0,21,22
 134 142 134 142 161 141.5 c 128,-1,23
 188 141 188 141 217 143.5 c 128,-1,24
 246 146 246 146 262 151 c 0,25,26
 290 160 290 160 290 184 c 2,27,-1
 290 1350 l 2,28,29
 290 1364 290 1364 278 1364 c 2,30,-1
 114 1364 l 2,31,32
 86 1364 86 1364 76 1416 c 0,33,34
 74 1430 74 1430 73 1442 c 0,35,36
 73 1505 73 1505 99 1505 c 2,37,-1
 1199 1505 l 1,38,-1
 1199 1214 l 2,39,40
 1199 1180 1199 1180 1128.5 1180 c 128,-1,41
 1058 1180 1058 1180 1058 1202 c 0,42,43
 1058 1286 1058 1286 1036 1310 c 0,44,45
 997 1351 997 1351 894 1351 c 2,46,-1
 501 1351 l 1,47,-1
 501 848 l 1,48,-1
 755 848 l 2,49,50
 801 848 801 848 809 870 c 0,51,52
 822 902 822 902 822 999 c 0,53,54
 822 1022 822 1022 882 1022 c 0,55,56
 934 1022 934 1022 949 1008 c 128,-1,57
 964 994 964 994 964 985 c 2,58,-1
 964 557 l 2,59,0
 964 516 964 516 892 516 c 128,-1,1
450 1609 m 1,60,61
 416 1610 416 1610 397 1632 c 0,62,63
 366 1670 366 1670 366 1709 c 1,64,-1
 622 1886 l 2,65,66
 664 1914 664 1914 692 1914 c 0,67,68
 728 1914 728 1914 771 1886 c 2,69,-1
 1027 1709 l 1,70,71
 1027 1646 1027 1646 976 1618 c 0,72,73
 961 1610 961 1610 943 1609 c 1,74,-1
 698 1726 l 1,75,-1
 450 1609 l 1,60,61
EndSplineSet
EndChar

StartChar: Edieresis
Encoding: 203 203 141
Width: 1288
Flags: W
HStem: 0 154<126.255 290 501 1031> 0 134<104.19 160.161> 694 154<501 808.741> 1002 20G<852 908> 1180 325<1058.02 1199> 1351 154<81.2363 290 501 1034.77> 1620 276<362.166 561.66 823.895 1008.75>
VStem: 290 211<154.179 694 848 1350.86> 324 273<1660.22 1860.44> 777 272<1652.03 1854.81> 820 144<517.962 694 871.016 1007.56> 1058 141<1181.4 1309.24>
LayerCount: 2
Fore
SplineSet
892 516 m 128,-1,1
 820 516 820 516 820 543 c 2,2,-1
 820 694 l 1,3,-1
 501 694 l 1,4,-1
 501 154 l 1,5,-1
 1031 154 l 1,6,-1
 1107 303 l 2,7,8
 1117 322 1117 322 1144.5 322 c 128,-1,9
 1172 322 1172 322 1187 319 c 128,-1,10
 1202 316 1202 316 1214 311 c 0,11,12
 1241 300 1241 300 1241 281 c 0,13,14
 1241 276 1241 276 1240 274 c 2,15,-1
 1148 0 l 1,16,-1
 128 0 l 2,17,18
 101 0 101 0 101 59 c 0,19,20
 102 109 102 109 126 134 c 0,21,22
 134 142 134 142 161 141.5 c 128,-1,23
 188 141 188 141 217 143.5 c 128,-1,24
 246 146 246 146 262 151 c 0,25,26
 290 160 290 160 290 184 c 2,27,-1
 290 1350 l 2,28,29
 290 1364 290 1364 278 1364 c 2,30,-1
 114 1364 l 2,31,32
 86 1364 86 1364 76 1416 c 0,33,34
 74 1430 74 1430 73 1442 c 0,35,36
 73 1505 73 1505 99 1505 c 2,37,-1
 1199 1505 l 1,38,-1
 1199 1214 l 2,39,40
 1199 1180 1199 1180 1128.5 1180 c 128,-1,41
 1058 1180 1058 1180 1058 1202 c 0,42,43
 1058 1286 1058 1286 1036 1310 c 0,44,45
 997 1351 997 1351 894 1351 c 2,46,-1
 501 1351 l 1,47,-1
 501 848 l 1,48,-1
 755 848 l 2,49,50
 801 848 801 848 809 870 c 0,51,52
 822 902 822 902 822 999 c 0,53,54
 822 1022 822 1022 882 1022 c 0,55,56
 934 1022 934 1022 949 1008 c 128,-1,57
 964 994 964 994 964 985 c 2,58,-1
 964 557 l 2,59,0
 964 516 964 516 892 516 c 128,-1,1
324 1757 m 256,60,61
 324 1852 324 1852 404 1886 c 0,62,63
 428 1896 428 1896 458 1896 c 128,-1,64
 488 1896 488 1896 513.5 1885.5 c 0,65,66
 540 1874 540 1874 558 1856 c 0,67,68
 598 1816 598 1816 597 1757 c 256,69,70
 598 1698 598 1698 558 1658 c 0,71,72
 520 1620 520 1620 474 1620 c 0,73,74
 398 1620 398 1620 361 1659 c 128,-1,75
 324 1698 324 1698 324 1757 c 256,60,61
912 1620 m 256,76,77
 820 1620 820 1620 787 1702 c 0,78,79
 777 1727 777 1727 777 1757 c 256,80,81
 777 1852 777 1852 857 1886 c 0,82,83
 882 1896 882 1896 912 1896 c 256,84,85
 970 1896 970 1896 1010 1856 c 0,86,87
 1048 1818 1048 1818 1049 1757 c 256,88,89
 1049 1663 1049 1663 967 1630 c 0,90,91
 942 1620 942 1620 912 1620 c 256,76,77
EndSplineSet
EndChar

StartChar: Igrave
Encoding: 204 204 142
Width: 791
Flags: W
HStem: 0 141<128.255 291 502 680.532> 1364 141<78.042 291 502 715.438>
VStem: 291 211<147.104 1364>
LayerCount: 2
Fore
SplineSet
670 141 m 2,0,1
 696 141 696 141 696 80 c 0,2,3
 696 32 696 32 681 16 c 128,-1,4
 666 0 666 0 655 0 c 2,5,-1
 123 0 l 2,6,7
 100 0 100 0 100 57 c 0,8,9
 100 106 100 106 128 134 c 0,10,11
 136 142 136 142 162.5 141.5 c 128,-1,12
 189 141 189 141 218 143.5 c 128,-1,13
 247 146 247 146 263 151 c 0,14,15
 291 160 291 160 291 184 c 2,16,-1
 291 1348 l 2,17,18
 291 1364 291 1364 278 1364 c 2,19,-1
 115 1364 l 2,20,21
 86 1364 86 1364 76 1418 c 0,22,23
 74 1432 74 1432 74 1446 c 0,24,25
 74 1505 74 1505 100 1505 c 2,26,-1
 692 1505 l 2,27,28
 717 1505 717 1505 717 1434.5 c 128,-1,29
 717 1364 717 1364 682 1364 c 2,30,-1
 502 1364 l 1,31,-1
 502 141 l 1,32,-1
 670 141 l 2,0,1
57 1833 m 1,33,34
 57 1942 57 1942 147 1980 c 0,35,36
 174 1992 174 1992 206 1991 c 1,37,-1
 479 1706 l 1,38,39
 478 1663 478 1663 458 1640 c 0,40,41
 422 1598 422 1598 381 1598 c 1,42,-1
 57 1833 l 1,33,34
EndSplineSet
EndChar

StartChar: Iacute
Encoding: 205 205 143
Width: 791
Flags: W
HStem: 0 141<128.255 291 502 680.532> 1364 141<78.042 291 502 715.438>
VStem: 291 211<147.104 1364>
LayerCount: 2
Fore
SplineSet
670 141 m 2,0,1
 696 141 696 141 696 80 c 0,2,3
 696 32 696 32 681 16 c 128,-1,4
 666 0 666 0 655 0 c 2,5,-1
 123 0 l 2,6,7
 100 0 100 0 100 57 c 0,8,9
 100 106 100 106 128 134 c 0,10,11
 136 142 136 142 162.5 141.5 c 128,-1,12
 189 141 189 141 218 143.5 c 128,-1,13
 247 146 247 146 263 151 c 0,14,15
 291 160 291 160 291 184 c 2,16,-1
 291 1348 l 2,17,18
 291 1364 291 1364 278 1364 c 2,19,-1
 115 1364 l 2,20,21
 86 1364 86 1364 76 1418 c 0,22,23
 74 1432 74 1432 74 1446 c 0,24,25
 74 1505 74 1505 100 1505 c 2,26,-1
 692 1505 l 2,27,28
 717 1505 717 1505 717 1434.5 c 128,-1,29
 717 1364 717 1364 682 1364 c 2,30,-1
 502 1364 l 1,31,-1
 502 141 l 1,32,-1
 670 141 l 2,0,1
412 1598 m 1,33,34
 370 1598 370 1598 349 1622 c 0,35,36
 313 1663 313 1663 313 1706 c 1,37,-1
 586 1991 l 1,38,39
 650 1992 650 1992 692 1948 c 0,40,41
 735 1904 735 1904 735 1833 c 1,42,-1
 412 1598 l 1,33,34
EndSplineSet
EndChar

StartChar: Icircumflex
Encoding: 206 206 144
Width: 791
Flags: W
HStem: 0 141<128.255 291 502 680.532> 1364 141<78.042 291 502 715.438>
VStem: 291 211<147.104 1364>
LayerCount: 2
Fore
SplineSet
670 141 m 2,0,1
 696 141 696 141 696 80 c 0,2,3
 696 32 696 32 681 16 c 128,-1,4
 666 0 666 0 655 0 c 2,5,-1
 123 0 l 2,6,7
 100 0 100 0 100 57 c 0,8,9
 100 106 100 106 128 134 c 0,10,11
 136 142 136 142 162.5 141.5 c 128,-1,12
 189 141 189 141 218 143.5 c 128,-1,13
 247 146 247 146 263 151 c 0,14,15
 291 160 291 160 291 184 c 2,16,-1
 291 1348 l 2,17,18
 291 1364 291 1364 278 1364 c 2,19,-1
 115 1364 l 2,20,21
 86 1364 86 1364 76 1418 c 0,22,23
 74 1432 74 1432 74 1446 c 0,24,25
 74 1505 74 1505 100 1505 c 2,26,-1
 692 1505 l 2,27,28
 717 1505 717 1505 717 1434.5 c 128,-1,29
 717 1364 717 1364 682 1364 c 2,30,-1
 502 1364 l 1,31,-1
 502 141 l 1,32,-1
 670 141 l 2,0,1
145 1609 m 1,33,34
 111 1610 111 1610 92 1632 c 0,35,36
 61 1670 61 1670 61 1709 c 1,37,-1
 317 1886 l 2,38,39
 360 1914 360 1914 388 1914 c 0,40,41
 424 1914 424 1914 466 1886 c 2,42,-1
 722 1709 l 1,43,44
 722 1646 722 1646 671 1618 c 0,45,46
 656 1610 656 1610 638 1609 c 1,47,-1
 393 1726 l 1,48,-1
 145 1609 l 1,33,34
EndSplineSet
EndChar

StartChar: Idieresis
Encoding: 207 207 145
Width: 791
Flags: W
HStem: 0 141<128.255 291 502 680.532> 1364 141<78.042 291 502 715.438> 1620 276<72.6503 271.662 519.694 720.745>
VStem: 35 273<1660.22 1860.4> 291 211<147.104 1364> 488 272<1652.03 1854.81>
LayerCount: 2
Fore
SplineSet
670 141 m 2,0,1
 696 141 696 141 696 80 c 0,2,3
 696 32 696 32 681 16 c 128,-1,4
 666 0 666 0 655 0 c 2,5,-1
 123 0 l 2,6,7
 100 0 100 0 100 57 c 0,8,9
 100 106 100 106 128 134 c 0,10,11
 136 142 136 142 162.5 141.5 c 128,-1,12
 189 141 189 141 218 143.5 c 128,-1,13
 247 146 247 146 263 151 c 0,14,15
 291 160 291 160 291 184 c 2,16,-1
 291 1348 l 2,17,18
 291 1364 291 1364 278 1364 c 2,19,-1
 115 1364 l 2,20,21
 86 1364 86 1364 76 1418 c 0,22,23
 74 1432 74 1432 74 1446 c 0,24,25
 74 1505 74 1505 100 1505 c 2,26,-1
 692 1505 l 2,27,28
 717 1505 717 1505 717 1434.5 c 128,-1,29
 717 1364 717 1364 682 1364 c 2,30,-1
 502 1364 l 1,31,-1
 502 141 l 1,32,-1
 670 141 l 2,0,1
35 1757 m 256,33,34
 34 1852 34 1852 114 1886 c 0,35,36
 138 1896 138 1896 168.5 1896 c 128,-1,37
 199 1896 199 1896 224.5 1885.5 c 0,38,39
 250 1874 250 1874 268 1856 c 0,40,41
 308 1816 308 1816 308 1757 c 256,42,43
 308 1698 308 1698 268 1658 c 0,44,45
 230 1620 230 1620 184 1620 c 0,46,47
 108 1620 108 1620 71.5 1659 c 128,-1,48
 35 1698 35 1698 35 1757 c 256,33,34
623 1620 m 256,49,50
 531 1620 531 1620 498 1702 c 0,51,52
 488 1727 488 1727 488 1757 c 256,53,54
 488 1852 488 1852 568 1886 c 0,55,56
 593 1896 593 1896 623 1896 c 256,57,58
 682 1896 682 1896 722 1856 c 0,59,60
 760 1818 760 1818 760 1757 c 256,61,62
 760 1663 760 1663 678 1630 c 0,63,64
 653 1620 653 1620 623 1620 c 256,49,50
EndSplineSet
EndChar

StartChar: Eth
Encoding: 208 208 146
Width: 1527
Flags: W
HStem: 0 154<137.224 300 511 877.872> 694 154<130 300 511 765> 1351 154<91.2363 300 511 906.053>
VStem: 300 211<154.179 694 848 1350.86> 1190 233<477.662 1033.25>
LayerCount: 2
Fore
SplineSet
138 0 m 2,0,1
 111 0 111 0 111 57 c 0,2,3
 111 103 111 103 137 133 c 0,4,5
 144 141 144 141 170.5 141 c 128,-1,6
 197 141 197 141 226 143.5 c 0,7,8
 256 146 256 146 272 151 c 0,9,10
 300 160 300 160 300 184 c 2,11,-1
 300 694 l 1,12,-1
 130 694 l 1,13,-1
 130 848 l 1,14,-1
 300 848 l 1,15,-1
 300 1350 l 2,16,17
 300 1364 300 1364 288 1364 c 2,18,-1
 124 1364 l 2,19,20
 96 1364 96 1364 86 1416 c 0,21,22
 84 1430 84 1430 83 1442 c 0,23,24
 83 1505 83 1505 109 1505 c 2,25,-1
 691 1505 l 2,26,27
 1086 1505 1086 1505 1260 1315 c 0,28,29
 1422 1138 1422 1138 1423 758 c 0,30,31
 1424 376 1424 376 1194 176 c 0,32,33
 992 1 992 1 691 0 c 2,34,-1
 138 0 l 2,0,1
511 848 m 1,35,-1
 765 848 l 1,36,-1
 765 694 l 1,37,-1
 511 694 l 1,38,-1
 511 154 l 1,39,-1
 658 154 l 2,40,41
 872 154 872 154 1022 293 c 0,42,43
 1190 450 1190 450 1190 723 c 0,44,45
 1190 1191 1190 1191 898 1312 c 0,46,47
 804 1351 804 1351 683 1351 c 2,48,-1
 511 1351 l 1,49,-1
 511 848 l 1,35,-1
EndSplineSet
EndChar

StartChar: Ntilde
Encoding: 209 209 147
Width: 1667
Flags: W
HStem: 0 141<128.255 291 445 624.532> 1364 141<78.042 291 1028.04 1241 1395 1607.44> 1604 168<896.305 1095.08> 1736.5 180.5<579.056 792.057>
VStem: 291 154<147.104 1127> 1241 154<345 1364>
LayerCount: 2
Fore
SplineSet
74 1446 m 0,0,1
 74 1505 74 1505 100 1505 c 2,2,-1
 448 1505 l 1,3,-1
 1241 345 l 1,4,-1
 1241 1348 l 2,5,6
 1241 1364 1241 1364 1228 1364 c 2,7,-1
 1065 1364 l 2,8,9
 1036 1364 1036 1364 1026 1418 c 0,10,11
 1024 1432 1024 1432 1024 1446 c 0,12,13
 1024 1505 1024 1505 1050 1505 c 2,14,-1
 1584 1505 l 2,15,16
 1609 1505 1609 1505 1609 1434.5 c 128,-1,17
 1609 1364 1609 1364 1574 1364 c 2,18,-1
 1395 1364 l 1,19,-1
 1395 -2 l 2,20,21
 1395 -20 1395 -20 1321 -20 c 0,22,23
 1250 -20 1250 -20 1239 -2 c 1,24,-1
 445 1127 l 1,25,-1
 445 141 l 1,26,-1
 613 141 l 2,27,28
 640 141 640 141 640 80 c 0,29,30
 640 30 640 30 625 15 c 128,-1,31
 610 0 610 0 598 0 c 2,32,-1
 125 0 l 2,33,34
 100 0 100 0 100 57 c 0,35,36
 100 106 100 106 128 134 c 0,37,38
 136 142 136 142 162.5 141.5 c 128,-1,39
 189 141 189 141 218 143.5 c 128,-1,40
 247 146 247 146 263 151 c 0,41,42
 291 160 291 160 291 184 c 2,43,-1
 291 1348 l 2,44,45
 291 1364 291 1364 278 1364 c 2,46,-1
 115 1364 l 2,47,48
 86 1364 86 1364 76 1418 c 0,49,50
 74 1432 74 1432 74 1446 c 0,0,1
515 1627 m 1,51,52
 476 1628 476 1628 456 1648 c 0,53,54
 422 1682 422 1682 421 1719 c 1,55,56
 486 1836 486 1836 600 1893 c 0,57,58
 648 1917 648 1917 699.5 1917 c 128,-1,59
 751 1917 751 1917 787.5 1894.5 c 128,-1,60
 824 1872 824 1872 859 1844.5 c 128,-1,61
 894 1817 894 1817 929.5 1794.5 c 128,-1,62
 965 1772 965 1772 998.5 1772 c 128,-1,63
 1032 1772 1032 1772 1057 1787.5 c 128,-1,64
 1082 1803 1082 1803 1103 1824 c 128,-1,65
 1124 1845 1124 1845 1141 1867 c 128,-1,66
 1158 1889 1158 1889 1172 1901 c 1,67,68
 1210 1901 1210 1901 1232 1880 c 0,69,70
 1270 1844 1270 1844 1270 1809 c 1,71,72
 1216 1688 1216 1688 1102 1629 c 0,73,74
 1054 1604 1054 1604 1005.5 1604 c 128,-1,75
 957 1604 957 1604 927.5 1614 c 128,-1,76
 898 1624 898 1624 872 1638.5 c 128,-1,77
 846 1653 846 1653 822.5 1670.5 c 0,78,79
 798 1688 798 1688 776 1702 c 0,80,81
 722 1736 722 1736 686.5 1736.5 c 128,-1,82
 651 1737 651 1737 624.5 1723 c 128,-1,83
 598 1709 598 1709 577 1691 c 128,-1,84
 556 1673 556 1673 540.5 1654.5 c 128,-1,85
 525 1636 525 1636 515 1627 c 1,51,52
EndSplineSet
EndChar

StartChar: Ograve
Encoding: 210 210 148
Width: 1501
Flags: W
HStem: -20 165<578.426 943.932> 1360 165<566.622 901.393>
VStem: 102 230<465.674 1061.78> 1168 230<420.095 1016.56>
LayerCount: 2
Fore
SplineSet
734 -20 m 0,0,1
 602 -20 602 -20 487.5 24.5 c 0,2,3
 374 69 374 69 288 161 c 0,4,5
 102 361 102 361 102 731 c 0,6,7
 102 1117 102 1117 294 1328 c 0,8,9
 473 1525 473 1525 774 1525 c 0,10,11
 1077 1524 1077 1524 1239 1310 c 0,12,13
 1398 1100 1398 1100 1398 716 c 0,14,15
 1398 350 1398 350 1198 154 c 0,16,17
 1022 -20 1022 -20 734 -20 c 0,0,1
581 187 m 0,18,19
 661 145 661 145 752.5 145 c 128,-1,20
 844 145 844 145 917 175 c 0,21,22
 990 206 990 206 1046 274 c 0,23,24
 1168 423 1168 423 1168 729 c 0,25,26
 1168 994 1168 994 1046 1176 c 0,27,28
 922 1360 922 1360 741 1360 c 0,29,30
 566 1360 566 1360 452 1215 c 0,31,32
 332 1064 332 1064 332 823 c 0,33,34
 332 318 332 318 581 187 c 0,18,19
379 1833 m 1,35,36
 379 1942 379 1942 469 1980 c 0,37,38
 496 1992 496 1992 528 1991 c 1,39,-1
 801 1706 l 1,40,41
 800 1663 800 1663 780 1640 c 0,42,43
 744 1598 744 1598 703 1598 c 1,44,-1
 379 1833 l 1,35,36
EndSplineSet
EndChar

StartChar: Oacute
Encoding: 211 211 149
Width: 1501
Flags: W
HStem: -20 165<578.426 943.932> 1360 165<566.622 901.393>
VStem: 102 230<465.674 1061.78> 1168 230<420.095 1016.56>
LayerCount: 2
Fore
SplineSet
734 -20 m 0,0,1
 602 -20 602 -20 487.5 24.5 c 0,2,3
 374 69 374 69 288 161 c 0,4,5
 102 361 102 361 102 731 c 0,6,7
 102 1117 102 1117 294 1328 c 0,8,9
 473 1525 473 1525 774 1525 c 0,10,11
 1077 1524 1077 1524 1239 1310 c 0,12,13
 1398 1100 1398 1100 1398 716 c 0,14,15
 1398 350 1398 350 1198 154 c 0,16,17
 1022 -20 1022 -20 734 -20 c 0,0,1
581 187 m 0,18,19
 661 145 661 145 752.5 145 c 128,-1,20
 844 145 844 145 917 175 c 0,21,22
 990 206 990 206 1046 274 c 0,23,24
 1168 423 1168 423 1168 729 c 0,25,26
 1168 994 1168 994 1046 1176 c 0,27,28
 922 1360 922 1360 741 1360 c 0,29,30
 566 1360 566 1360 452 1215 c 0,31,32
 332 1064 332 1064 332 823 c 0,33,34
 332 318 332 318 581 187 c 0,18,19
775 1598 m 1,35,36
 733 1598 733 1598 712 1622 c 0,37,38
 676 1663 676 1663 676 1706 c 1,39,-1
 949 1991 l 1,40,41
 1013 1992 1013 1992 1055 1948 c 0,42,43
 1098 1904 1098 1904 1098 1833 c 1,44,-1
 775 1598 l 1,35,36
EndSplineSet
EndChar

StartChar: Ocircumflex
Encoding: 212 212 150
Width: 1501
Flags: W
HStem: -20 165<578.426 943.932> 1360 165<566.622 901.393>
VStem: 102 230<465.674 1061.78> 1168 230<420.095 1016.56>
LayerCount: 2
Fore
SplineSet
734 -20 m 0,0,1
 602 -20 602 -20 487.5 24.5 c 0,2,3
 374 69 374 69 288 161 c 0,4,5
 102 361 102 361 102 731 c 0,6,7
 102 1117 102 1117 294 1328 c 0,8,9
 473 1525 473 1525 774 1525 c 0,10,11
 1077 1524 1077 1524 1239 1310 c 0,12,13
 1398 1100 1398 1100 1398 716 c 0,14,15
 1398 350 1398 350 1198 154 c 0,16,17
 1022 -20 1022 -20 734 -20 c 0,0,1
581 187 m 0,18,19
 661 145 661 145 752.5 145 c 128,-1,20
 844 145 844 145 917 175 c 0,21,22
 990 206 990 206 1046 274 c 0,23,24
 1168 423 1168 423 1168 729 c 0,25,26
 1168 994 1168 994 1046 1176 c 0,27,28
 922 1360 922 1360 741 1360 c 0,29,30
 566 1360 566 1360 452 1215 c 0,31,32
 332 1064 332 1064 332 823 c 0,33,34
 332 318 332 318 581 187 c 0,18,19
509 1609 m 1,35,36
 475 1610 475 1610 456 1632 c 0,37,38
 425 1670 425 1670 425 1709 c 1,39,-1
 681 1886 l 2,40,41
 724 1914 724 1914 752 1914 c 0,42,43
 788 1914 788 1914 830 1886 c 2,44,-1
 1086 1709 l 1,45,46
 1086 1646 1086 1646 1035 1618 c 0,47,48
 1020 1610 1020 1610 1002 1609 c 1,49,-1
 757 1726 l 1,50,-1
 509 1609 l 1,35,36
EndSplineSet
EndChar

StartChar: Otilde
Encoding: 213 213 151
Width: 1501
Flags: W
HStem: -20 165<578.426 943.932> 1360 165<566.622 901.393> 1604 168<802.305 1001.08> 1736.5 180.5<485.056 698.057>
VStem: 102 230<465.674 1061.78> 1168 230<420.095 1016.56>
LayerCount: 2
Fore
SplineSet
421 1627 m 1,0,1
 382 1628 382 1628 362 1648 c 0,2,3
 328 1682 328 1682 327 1719 c 1,4,5
 392 1836 392 1836 506 1893 c 0,6,7
 554 1917 554 1917 605.5 1917 c 128,-1,8
 657 1917 657 1917 693.5 1894.5 c 128,-1,9
 730 1872 730 1872 765 1844.5 c 128,-1,10
 800 1817 800 1817 835.5 1794.5 c 128,-1,11
 871 1772 871 1772 904.5 1772 c 128,-1,12
 938 1772 938 1772 963 1787.5 c 128,-1,13
 988 1803 988 1803 1009 1824 c 128,-1,14
 1030 1845 1030 1845 1047 1867 c 128,-1,15
 1064 1889 1064 1889 1078 1901 c 1,16,17
 1116 1901 1116 1901 1138 1880 c 0,18,19
 1176 1844 1176 1844 1176 1809 c 1,20,21
 1122 1688 1122 1688 1008 1629 c 0,22,23
 960 1604 960 1604 911.5 1604 c 128,-1,24
 863 1604 863 1604 833.5 1614 c 128,-1,25
 804 1624 804 1624 778 1638.5 c 128,-1,26
 752 1653 752 1653 728.5 1670.5 c 0,27,28
 704 1688 704 1688 682 1702 c 0,29,30
 628 1736 628 1736 592.5 1736.5 c 128,-1,31
 557 1737 557 1737 530.5 1723 c 128,-1,32
 504 1709 504 1709 483 1691 c 128,-1,33
 462 1673 462 1673 446.5 1654.5 c 128,-1,34
 431 1636 431 1636 421 1627 c 1,0,1
734 -20 m 0,35,36
 602 -20 602 -20 487.5 24.5 c 0,37,38
 374 69 374 69 288 161 c 0,39,40
 102 361 102 361 102 731 c 0,41,42
 102 1117 102 1117 294 1328 c 0,43,44
 473 1525 473 1525 774 1525 c 0,45,46
 1077 1524 1077 1524 1239 1310 c 0,47,48
 1398 1100 1398 1100 1398 716 c 0,49,50
 1398 350 1398 350 1198 154 c 0,51,52
 1022 -20 1022 -20 734 -20 c 0,35,36
581 187 m 0,53,54
 661 145 661 145 752.5 145 c 128,-1,55
 844 145 844 145 917 175 c 0,56,57
 990 206 990 206 1046 274 c 0,58,59
 1168 423 1168 423 1168 729 c 0,60,61
 1168 994 1168 994 1046 1176 c 0,62,63
 922 1360 922 1360 741 1360 c 0,64,65
 566 1360 566 1360 452 1215 c 0,66,67
 332 1064 332 1064 332 823 c 0,68,69
 332 318 332 318 581 187 c 0,53,54
EndSplineSet
EndChar

StartChar: Odieresis
Encoding: 214 214 152
Width: 1501
Flags: W
HStem: -20 165<578.426 943.932> 1360 165<566.622 901.393> 1620 276<424.166 623.66 870.694 1070.75>
VStem: 102 230<465.674 1061.78> 386 273<1660.22 1860.44> 839 272<1652.03 1854.81> 1168 230<420.095 1016.56>
LayerCount: 2
Fore
SplineSet
734 -20 m 0,0,1
 602 -20 602 -20 487.5 24.5 c 0,2,3
 374 69 374 69 288 161 c 0,4,5
 102 361 102 361 102 731 c 0,6,7
 102 1117 102 1117 294 1328 c 0,8,9
 473 1525 473 1525 774 1525 c 0,10,11
 1077 1524 1077 1524 1239 1310 c 0,12,13
 1398 1100 1398 1100 1398 716 c 0,14,15
 1398 350 1398 350 1198 154 c 0,16,17
 1022 -20 1022 -20 734 -20 c 0,0,1
581 187 m 0,18,19
 661 145 661 145 752.5 145 c 128,-1,20
 844 145 844 145 917 175 c 0,21,22
 990 206 990 206 1046 274 c 0,23,24
 1168 423 1168 423 1168 729 c 0,25,26
 1168 994 1168 994 1046 1176 c 0,27,28
 922 1360 922 1360 741 1360 c 0,29,30
 566 1360 566 1360 452 1215 c 0,31,32
 332 1064 332 1064 332 823 c 0,33,34
 332 318 332 318 581 187 c 0,18,19
386 1757 m 256,35,36
 386 1852 386 1852 466 1886 c 0,37,38
 490 1896 490 1896 520 1896 c 128,-1,39
 550 1896 550 1896 575.5 1885.5 c 0,40,41
 602 1874 602 1874 620 1856 c 0,42,43
 660 1816 660 1816 659 1757 c 256,44,45
 660 1698 660 1698 620 1658 c 0,46,47
 582 1620 582 1620 536 1620 c 0,48,49
 460 1620 460 1620 423 1659 c 128,-1,50
 386 1698 386 1698 386 1757 c 256,35,36
974 1620 m 256,51,52
 882 1620 882 1620 849 1702 c 0,53,54
 839 1727 839 1727 839 1757 c 256,55,56
 839 1852 839 1852 919 1886 c 0,57,58
 944 1896 944 1896 974 1896 c 256,59,60
 1032 1896 1032 1896 1072 1856 c 0,61,62
 1110 1818 1110 1818 1111 1757 c 256,63,64
 1111 1663 1111 1663 1029 1630 c 0,65,66
 1004 1620 1004 1620 974 1620 c 256,51,52
EndSplineSet
EndChar

StartChar: multiply
Encoding: 215 215 153
Width: 1143
Flags: W
LayerCount: 2
Fore
SplineSet
93 1004 m 1,0,1
 93 1087 93 1087 161 1108 c 0,2,3
 180 1114 180 1114 199 1114 c 1,4,-1
 568 762 l 1,5,-1
 943 1128 l 1,6,7
 1049 1122 1049 1122 1049 1022 c 1,8,-1
 679 657 l 1,9,-1
 1058 295 l 1,10,11
 1058 244 1058 244 1031 214 c 128,-1,12
 1004 184 1004 184 951 184 c 1,13,-1
 568 549 l 1,14,-1
 191 178 l 1,15,16
 153 178 153 178 129 201 c 0,17,18
 85 242 85 242 85 285 c 1,19,-1
 460 653 l 1,20,-1
 93 1004 l 1,0,1
EndSplineSet
EndChar

StartChar: Oslash
Encoding: 216 216 154
Width: 1522
Flags: W
HStem: -20 165<588.359 958.827> 1360 165<577.224 912.049>
VStem: 113 230<469.457 1059.68> 1179 230<425.8 1009.2>
LayerCount: 2
Fore
SplineSet
1274 1275 m 1,0,1
 1409 1067 1409 1067 1409 716 c 0,2,3
 1410 350 1410 350 1210 154 c 0,4,5
 1033 -19 1033 -19 742 -20 c 0,6,7
 517 -20 517 -20 360 104 c 1,8,-1
 248 -39 l 1,9,10
 176 -66 176 -66 150.5 -66 c 128,-1,11
 125 -66 125 -66 112 -65.5 c 0,12,13
 99 -64 99 -64 88 -62 c 0,14,15
 63 -56 63 -56 63 -39 c 1,16,-1
 259 208 l 1,17,18
 113 403 113 403 113 731 c 0,19,20
 113 1117 113 1117 305 1328 c 0,21,22
 484 1525 484 1525 785 1525 c 0,23,24
 1034 1525 1034 1525 1188 1379 c 1,25,-1
 1288 1506 l 1,26,27
 1342 1532 1342 1532 1367 1532 c 128,-1,28
 1392 1532 1392 1532 1404.5 1531 c 128,-1,29
 1417 1530 1417 1530 1428 1528 c 0,30,31
 1454 1522 1454 1522 1454 1506 c 1,32,-1
 1274 1275 l 1,0,1
1042 1196 m 1,33,34
 921 1360 921 1360 752 1360 c 0,35,36
 576 1360 576 1360 462 1215 c 0,37,38
 342 1064 342 1064 343 823 c 0,39,40
 343 567 343 567 411 400 c 1,41,-1
 1042 1196 l 1,33,34
774 145 m 0,42,43
 1055 146 1055 146 1146 454 c 0,44,45
 1179 566 1179 566 1179 694 c 0,46,47
 1179 916 1179 916 1113 1069 c 1,48,-1
 489 270 l 1,49,50
 596 145 596 145 774 145 c 0,42,43
EndSplineSet
EndChar

StartChar: Ugrave
Encoding: 217 217 155
Width: 1545
Flags: W
HStem: -20 165<618.603 978.415> 1364 141<46.0332 257.997 469 662.438 932.042 1126 1291 1482.08>
VStem: 258 211<317.858 1364> 1126 165<317.054 1364>
LayerCount: 2
Fore
SplineSet
1291 555 m 2,0,1
 1291 -20 1291 -20 772 -20 c 0,2,3
 492 -20 492 -20 370 132 c 0,4,5
 258 271 258 271 258 569 c 2,6,-1
 258 1348 l 2,7,8
 258 1364 258 1364 245 1364 c 2,9,-1
 82 1364 l 2,10,11
 54 1364 54 1364 44 1418 c 0,12,13
 42 1432 42 1432 41 1444 c 0,14,15
 41 1505 41 1505 67 1505 c 2,16,-1
 639 1505 l 2,17,18
 664 1505 664 1505 664 1434.5 c 128,-1,19
 664 1364 664 1364 629 1364 c 2,20,-1
 469 1364 l 1,21,-1
 469 578 l 2,22,23
 469 237 469 237 663 167 c 0,24,25
 724 145 724 145 804 145 c 128,-1,26
 884 145 884 145 946 170.5 c 128,-1,27
 1008 196 1008 196 1048 249 c 0,28,29
 1126 352 1126 352 1126 575 c 2,30,-1
 1126 1348 l 2,31,32
 1126 1364 1126 1364 1113 1364 c 2,33,-1
 969 1364 l 2,34,35
 940 1364 940 1364 930 1418 c 0,36,37
 928 1432 928 1432 928 1446 c 0,38,39
 928 1505 928 1505 954 1505 c 2,40,-1
 1470 1505 l 2,41,42
 1496 1505 1496 1505 1496 1441 c 0,43,44
 1496 1393 1496 1393 1482.5 1378.5 c 128,-1,45
 1469 1364 1469 1364 1460 1364 c 2,46,-1
 1291 1364 l 1,47,-1
 1291 555 l 2,0,1
447 1833 m 1,48,49
 447 1942 447 1942 537 1980 c 0,50,51
 564 1992 564 1992 596 1991 c 1,52,-1
 869 1706 l 1,53,54
 868 1663 868 1663 848 1640 c 0,55,56
 812 1598 812 1598 771 1598 c 1,57,-1
 447 1833 l 1,48,49
EndSplineSet
EndChar

StartChar: Uacute
Encoding: 218 218 156
Width: 1545
Flags: W
HStem: -20 165<618.603 978.415> 1364 141<46.0332 257.997 469 662.438 932.042 1126 1291 1482.08>
VStem: 258 211<317.858 1364> 1126 165<317.054 1364>
LayerCount: 2
Fore
SplineSet
1291 555 m 2,0,1
 1291 -20 1291 -20 772 -20 c 0,2,3
 492 -20 492 -20 370 132 c 0,4,5
 258 271 258 271 258 569 c 2,6,-1
 258 1348 l 2,7,8
 258 1364 258 1364 245 1364 c 2,9,-1
 82 1364 l 2,10,11
 54 1364 54 1364 44 1418 c 0,12,13
 42 1432 42 1432 41 1444 c 0,14,15
 41 1505 41 1505 67 1505 c 2,16,-1
 639 1505 l 2,17,18
 664 1505 664 1505 664 1434.5 c 128,-1,19
 664 1364 664 1364 629 1364 c 2,20,-1
 469 1364 l 1,21,-1
 469 578 l 2,22,23
 469 237 469 237 663 167 c 0,24,25
 724 145 724 145 804 145 c 128,-1,26
 884 145 884 145 946 170.5 c 128,-1,27
 1008 196 1008 196 1048 249 c 0,28,29
 1126 352 1126 352 1126 575 c 2,30,-1
 1126 1348 l 2,31,32
 1126 1364 1126 1364 1113 1364 c 2,33,-1
 969 1364 l 2,34,35
 940 1364 940 1364 930 1418 c 0,36,37
 928 1432 928 1432 928 1446 c 0,38,39
 928 1505 928 1505 954 1505 c 2,40,-1
 1470 1505 l 2,41,42
 1496 1505 1496 1505 1496 1441 c 0,43,44
 1496 1393 1496 1393 1482.5 1378.5 c 128,-1,45
 1469 1364 1469 1364 1460 1364 c 2,46,-1
 1291 1364 l 1,47,-1
 1291 555 l 2,0,1
857 1598 m 1,48,49
 815 1598 815 1598 794 1622 c 0,50,51
 758 1663 758 1663 758 1706 c 1,52,-1
 1031 1991 l 1,53,54
 1095 1992 1095 1992 1137 1948 c 0,55,56
 1180 1904 1180 1904 1180 1833 c 1,57,-1
 857 1598 l 1,48,49
EndSplineSet
EndChar

